<svg width="20" height="20" viewBox="0 0 20 20" fill="none" xmlns="http://www.w3.org/2000/svg">
<path d="M8.19375 1.5C7.77813 1.5 7.40312 1.75938 7.25625 2.15L6.75 3.5H3.75C3.33437 3.5 3 3.83437 3 4.25C3 4.66563 3.33437 5 3.75 5H16.25C16.6656 5 17 4.66563 17 4.25C17 3.83437 16.6656 3.5 16.25 3.5H13.25L12.7437 2.15C12.5969 1.75938 12.225 1.5 11.8062 1.5H8.19375ZM4 6.5V16C4 17.1031 4.89687 18 6 18H14C15.1031 18 16 17.1031 16 16V6.5H14.5V16C14.5 16.275 14.275 16.5 14 16.5H6C5.725 16.5 5.5 16.275 5.5 16V6.5H4ZM9 8.75C9 8.33437 8.66562 8 8.25 8C7.83437 8 7.5 8.33437 7.5 8.75V14.25C7.5 14.6656 7.83437 15 8.25 15C8.66562 15 9 14.6656 9 14.25V8.75ZM12.5 8.75C12.5 8.33437 12.1656 8 11.75 8C11.3344 8 11 8.33437 11 8.75V14.25C11 14.6656 11.3344 15 11.75 15C12.1656 15 12.5 14.6656 12.5 14.25V8.75Z" fill="black" fill-opacity="0.6"/>
</svg>
