<svg width="23" height="37" viewBox="0 0 23 37" fill="none" xmlns="http://www.w3.org/2000/svg">
<path d="M0.536133 2.86151C0.536133 1.34667 1.76415 0.118652 3.27899 0.118652H19.3933C20.9081 0.118652 22.1361 1.34667 22.1361 2.86151V33.3758C22.1361 34.8906 20.9081 36.1187 19.3933 36.1187H3.27899C1.76415 36.1187 0.536133 34.8906 0.536133 33.3758V2.86151Z" fill="#182433"/>
<path d="M1.90771 2.86166C1.90771 2.10424 2.52172 1.49023 3.27914 1.49023H19.3934C20.1508 1.49023 20.7649 2.10424 20.7649 2.86166V33.3759C20.7649 34.1334 20.1508 34.7474 19.3934 34.7474H3.27914C2.52172 34.7474 1.90771 34.1334 1.90771 33.3759V2.86166Z" fill="white"/>
<path d="M11.6068 9.71875C7.12224 9.71875 3.27881 13.401 3.27881 17.9268C3.27881 22.4525 6.82052 26.1759 11.6068 26.1759C16.0914 26.1759 19.736 22.4525 19.736 17.9268C19.736 13.401 16.088 9.71875 11.6068 9.71875Z" fill="white"/>
<path d="M10.5645 16.1814C10.5645 17.365 9.60384 18.3243 8.42167 18.3243C7.23949 18.3243 6.27881 17.365 6.27881 16.1814C6.27881 14.9993 7.23949 14.0386 8.42167 14.0386C9.60384 14.0386 10.5645 14.9993 10.5645 16.1814Z" fill="white"/>
<path d="M16.7359 16.1814C16.7359 17.365 15.7752 18.3243 14.5931 18.3243C13.4109 18.3243 12.4502 17.365 12.4502 16.1814C12.4502 14.9993 13.4109 14.0386 14.5931 14.0386C15.7752 14.0386 16.7359 14.9993 16.7359 16.1814Z" fill="white"/>
<path d="M8.76465 22.5348C8.85736 22.4126 9.89951 19.7172 11.6518 19.7905C13.2307 19.8566 14.1304 22.376 14.2504 22.5348H8.76465Z" fill="white"/>
<path d="M16.3315 28.0102C16.67 26.633 16.9077 26.9162 17.0083 25.9678C16.8496 25.5084 16.744 24.7942 16.7532 23.9292C16.7605 23.251 16.7997 23.0145 17.1232 21.5638C17.5487 19.6548 17.2699 19.1933 17.5123 19.1786C17.9474 19.1523 18.5786 20.6004 18.8669 21.8553C19.1732 23.1876 18.3672 25.1371 18.3672 25.1371L18.8953 27.0533" fill="white"/>
<path d="M6.66291 27.8798C6.32448 26.5026 6.25814 26.9572 6.15754 26.0088C6.31625 25.5494 6.42189 24.8352 6.41266 23.9702C6.40536 23.292 6.62335 23.0555 6.29986 21.6048C5.87438 19.6958 5.89598 19.2343 5.65358 19.2196C5.21849 19.1933 4.50158 20.6414 4.21323 21.8963C3.90693 23.2286 4.88445 25.1781 4.88445 25.1781L4.35627 27.0086" fill="white"/>
<path d="M10.5645 16.3909C10.5645 17.5744 9.60384 18.5338 8.42167 18.5338C7.23949 18.5338 6.27881 17.5744 6.27881 16.3909C6.27881 15.2087 7.23949 14.248 8.42167 14.248C9.60384 14.248 10.5645 15.2087 10.5645 16.3909Z" stroke="#182433" stroke-miterlimit="10"/>
<path d="M9.10776 16.3908C9.10776 16.7693 8.80039 17.0765 8.42204 17.0765C8.0437 17.0765 7.73633 16.7695 7.73633 16.3908C7.73633 16.0121 8.0437 15.7051 8.42204 15.7051C8.80039 15.7051 9.10776 16.0124 9.10776 16.3908Z" fill="black"/>
<path d="M16.7359 16.3909C16.7359 17.5744 15.7752 18.5338 14.5931 18.5338C13.4109 18.5338 12.4502 17.5744 12.4502 16.3909C12.4502 15.2087 13.4109 14.248 14.5931 14.248C15.7752 14.248 16.7359 15.2087 16.7359 16.3909Z" stroke="#182433" stroke-miterlimit="10"/>
<path d="M15.2787 16.3908C15.2787 16.7693 14.9713 17.0765 14.5929 17.0765C14.2146 17.0765 13.9072 16.7695 13.9072 16.3908C13.9072 16.0121 14.2146 15.7051 14.5929 15.7051C14.9713 15.7051 15.2787 16.0124 15.2787 16.3908Z" fill="black"/>
<path d="M8.76465 22.7472C8.85736 22.625 9.10751 20.0043 11.6518 20.0029C13.9075 20.0018 14.1304 22.5884 14.2504 22.7472H8.76465Z" stroke="#182433" stroke-linecap="round" stroke-linejoin="round"/>
<path d="M15.3919 24.8115C14.2453 25.4616 12.9199 25.8329 11.5073 25.8329C10.1379 25.8329 8.85049 25.4839 7.729 24.8702" stroke="#182433" stroke-linecap="round" stroke-linejoin="round"/>
<path d="M3.69346 18.9999C3.65657 18.5274 3.60946 18.4383 3.62088 17.9463C3.72192 13.592 7.15231 10.0605 11.5066 10.0605C15.8609 10.0605 19.3923 13.592 19.3923 17.9463C19.3923 18.3141 19.3671 18.6762 19.3184 19.0307" stroke="#182433" stroke-linecap="round" stroke-linejoin="round"/>
<path d="M16.2422 27.6568C16.6564 26.3005 16.5552 26.9183 16.7081 25.9772C16.5752 25.5095 16.4236 24.7861 16.4809 23.9228C16.5258 23.2463 17.3099 22.8229 17.4549 21.2632C17.5981 19.8654 17.6019 19.2418 17.8448 19.2407C18.2805 19.2386 18.9162 20.7243 19.1346 21.9932C19.3665 23.3406 18.5631 25.213 18.5631 25.213L19.0311 26.7678" stroke="#182433" stroke-linecap="round" stroke-linejoin="round"/>
<path d="M6.9027 27.6568C6.48853 26.3005 6.58964 26.9183 6.43676 25.9772C6.56972 25.5095 6.7213 24.7861 6.664 23.9228C6.61909 23.2463 5.83498 22.8229 5.68995 21.2632C5.5468 19.8654 5.543 19.2418 5.30012 19.2407C4.86435 19.2386 4.22869 20.7243 4.01029 21.9932C3.77838 23.3406 4.58183 25.213 4.58183 25.213L4.11383 26.7678" stroke="#182433" stroke-linecap="round" stroke-linejoin="round"/>
<path d="M9.10791 3.03284C9.10791 2.74881 9.33816 2.51855 9.6222 2.51855H13.3936C13.6777 2.51855 13.9079 2.74881 13.9079 3.03284C13.9079 3.31687 13.6777 3.54713 13.3936 3.54713H9.6222C9.33816 3.54713 9.10791 3.31687 9.10791 3.03284Z" fill="#182433"/>
</svg>
