<svg width="35" height="34" viewBox="0 0 35 34" fill="none" xmlns="http://www.w3.org/2000/svg">
<path d="M23.1994 25.7071H11.509C10.2674 25.703 9.26178 24.6976 9.25733 23.4561C9.26178 22.2145 10.2675 21.2091 11.5091 21.2051H23.1994C24.441 21.2091 25.4467 22.2145 25.4511 23.4561C25.4467 24.6976 24.441 25.703 23.1994 25.7071Z" fill="white" stroke="#182433"/>
<path d="M11.8521 21.0493V25.8636" stroke="#182433" stroke-width="2" stroke-linecap="round" stroke-linejoin="round"/>
<path d="M15.2915 21.0493V25.8636" stroke="#182433" stroke-width="2" stroke-linecap="round" stroke-linejoin="round"/>
<path d="M18.73 21.0493V25.8636" stroke="#182433" stroke-width="2" stroke-linecap="round" stroke-linejoin="round"/>
<path d="M22.1689 21.0493V25.8636" stroke="#182433" stroke-width="2" stroke-linecap="round" stroke-linejoin="round"/>
<path d="M17.3544 32.8984C26.0907 32.8984 33.1728 25.8162 33.1728 17.08C33.1728 8.34382 26.0907 1.26172 17.3544 1.26172C8.61823 1.26172 1.53613 8.34382 1.53613 17.08C1.53613 25.8162 8.61823 32.8984 17.3544 32.8984Z" stroke="#182433" stroke-width="2" stroke-miterlimit="10"/>
<path d="M23.2001 26.2076H11.5083C9.99088 26.2031 8.76179 24.974 8.75732 23.4566C8.76179 21.9391 9.99088 20.71 11.5083 20.7056H23.2001C24.7176 20.71 25.9467 21.9391 25.9511 23.4566C25.9467 24.974 24.7176 26.2031 23.2001 26.2076Z" stroke="#182433" stroke-width="2" stroke-miterlimit="2"/>
<path d="M12.7281 13.6414C12.7281 14.5045 12.0272 15.2046 11.1648 15.2046C10.3024 15.2046 9.60156 14.5045 9.60156 13.6414C9.60156 12.7791 10.3025 12.0781 11.1648 12.0781C12.027 12.0781 12.7281 12.7792 12.7281 13.6414Z" fill="#182433" stroke="#182433"/>
<path d="M25.1075 13.6414C25.1075 14.5045 24.4067 15.2046 23.5442 15.2046C22.6818 15.2046 21.981 14.5045 21.981 13.6414C21.981 12.7791 22.6819 12.0781 23.5442 12.0781C24.4065 12.0781 25.1075 12.7791 25.1075 13.6414Z" fill="#182433" stroke="#182433"/>
</svg>
