<svg width="35" height="35" viewBox="0 0 35 35" fill="none" xmlns="http://www.w3.org/2000/svg">
<path d="M17.3544 33.4696C26.0907 33.4696 33.1728 26.3875 33.1728 17.6513C33.1728 8.91511 26.0907 1.83301 17.3544 1.83301C8.61823 1.83301 1.53613 8.91511 1.53613 17.6513C1.53613 26.3875 8.61823 33.4696 17.3544 33.4696Z" stroke="#182433" stroke-width="2" stroke-miterlimit="10"/>
<path d="M17.2013 22.9624C16.4409 22.9624 15.7117 23.2645 15.1741 23.8022C14.6365 24.3399 14.3344 25.0691 14.3345 25.8295C14.3345 26.5898 14.6366 27.319 15.1742 27.8567C15.7119 28.3943 16.4411 28.6963 17.2014 28.6963C17.9618 28.6963 18.691 28.3943 19.2287 27.8567C19.7663 27.319 20.0684 26.5898 20.0684 25.8295C20.0684 25.0691 19.7664 24.3399 19.2288 23.8022C18.6912 23.2645 17.9616 22.9624 17.2013 22.9624Z" fill="#182433" stroke="#182433" stroke-width="2.5104" stroke-miterlimit="10"/>
<path d="M20.9785 14.1976C20.9785 13.1964 21.3763 12.2361 22.0843 11.5281C22.7923 10.8201 23.7525 10.4224 24.7538 10.4224C25.7551 10.4224 26.7153 10.8201 27.4233 11.5281C28.1313 12.2361 28.5291 13.1964 28.5291 14.1976" stroke="#182433" stroke-width="2" stroke-miterlimit="10" stroke-linecap="round"/>
<path d="M23.4956 14.1976C23.4956 13.8638 23.6282 13.5436 23.8642 13.3076C24.1003 13.0716 24.4204 12.939 24.7542 12.939C25.088 12.939 25.4081 13.0716 25.6441 13.3076C25.8802 13.5436 26.0128 13.8638 26.0128 14.1976" stroke="#182433" stroke-width="2" stroke-miterlimit="10" stroke-linecap="round"/>
<path d="M20.9785 14.1973C20.9781 14.8579 21.1079 15.5122 21.3604 16.1227C21.6128 16.7332 21.9831 17.288 22.45 17.7555C22.9169 18.2229 23.4712 18.5938 24.0815 18.8469C24.6917 19.1001 25.3458 19.2306 26.0065 19.231H26.0122" stroke="#182433" stroke-width="2" stroke-miterlimit="10" stroke-linecap="round"/>
<path d="M23.4955 14.1973C23.49 14.5278 23.5497 14.8561 23.6711 15.1636C23.7926 15.471 23.9734 15.7515 24.2032 15.9891C24.6674 16.4689 25.3032 16.7447 25.9707 16.7557C26.6382 16.7667 27.2827 16.5122 27.7625 16.048C28.0001 15.8181 28.1901 15.5437 28.3216 15.2405C28.4531 14.9372 28.5237 14.611 28.5291 14.2805C28.5296 14.253 28.5296 14.2252 28.5291 14.1973" stroke="#182433" stroke-width="2" stroke-miterlimit="10" stroke-linecap="round"/>
<path d="M5.87939 14.1976C5.87939 13.1964 6.27715 12.2361 6.98515 11.5281C7.69315 10.8201 8.65341 10.4224 9.65468 10.4224C10.6559 10.4224 11.6162 10.8201 12.3242 11.5281C13.0322 12.2361 13.43 13.1964 13.43 14.1976" stroke="#182433" stroke-width="2" stroke-miterlimit="10" stroke-linecap="round"/>
<path d="M8.396 14.1976C8.396 13.8638 8.5286 13.5436 8.76463 13.3076C9.00066 13.0716 9.32079 12.939 9.65458 12.939C9.98838 12.939 10.3085 13.0716 10.5445 13.3076C10.7806 13.5436 10.9132 13.8638 10.9132 14.1976" stroke="#182433" stroke-width="2" stroke-miterlimit="10" stroke-linecap="round"/>
<path d="M5.8794 14.1973C5.87902 14.8579 6.00877 15.5122 6.26124 16.1227C6.51371 16.7332 6.88396 17.288 7.35085 17.7555C7.81774 18.2229 8.37212 18.5938 8.98235 18.8469C9.59258 19.1001 10.2467 19.2306 10.9074 19.231H10.9131" stroke="#182433" stroke-width="2" stroke-miterlimit="10" stroke-linecap="round"/>
<path d="M8.39631 14.1973C8.39112 14.5278 8.45109 14.8561 8.57278 15.1634C8.69448 15.4708 8.87552 15.7511 9.10556 15.9885C9.57016 16.4679 10.2062 16.7431 10.8737 16.7536C11.5412 16.7641 12.1855 16.5089 12.6649 16.0443C13.1444 15.5797 13.4196 14.9437 13.43 14.2762C13.4305 14.2499 13.4305 14.2236 13.43 14.1973" stroke="#182433" stroke-width="2" stroke-miterlimit="10" stroke-linecap="round"/>
</svg>
