<svg width="42" height="32" viewBox="0 0 42 32" fill="none" xmlns="http://www.w3.org/2000/svg">
<path d="M26.688 29.8662C34.4685 29.8662 40.7759 23.5588 40.7759 15.7783C40.7759 7.99779 34.4685 1.69043 26.688 1.69043C18.9075 1.69043 12.6001 7.99779 12.6001 15.7783C12.6001 23.5588 18.9075 29.8662 26.688 29.8662Z" stroke="#182433" stroke-width="2" stroke-miterlimit="10"/>
<path d="M22.513 13.8952C22.513 14.6336 21.9133 15.2327 21.1754 15.2327C20.4375 15.2327 19.8379 14.6336 19.8379 13.8952C19.8379 13.1574 20.4377 12.5576 21.1754 12.5576C21.9131 12.5576 22.513 13.1575 22.513 13.8952Z" fill="#182433" stroke="#182433"/>
<path d="M33.5384 13.8952C33.5384 14.6336 32.9387 15.2327 32.2008 15.2327C31.4629 15.2327 30.8633 14.6336 30.8633 13.8952C30.8633 13.1574 31.4631 12.5576 32.2008 12.5576C32.9386 12.5576 33.5384 13.1575 33.5384 13.8952Z" fill="#182433" stroke="#182433"/>
<path d="M19.5288 8.63916L23.8164 11.0892" stroke="#182433" stroke-width="2" stroke-miterlimit="10" stroke-linecap="round" stroke-linejoin="round"/>
<path d="M33.477 8.5625L29.5586 11.5679" stroke="#182433" stroke-width="2" stroke-miterlimit="10" stroke-linecap="round" stroke-linejoin="round"/>
<path d="M33.1701 18.5092C32.6595 19.3917 31.2317 20.5781 29.5533 21.0748C28.0123 21.5308 26.4801 21.2976 25.561 20.856" stroke="#182433" stroke-width="2" stroke-miterlimit="10" stroke-linecap="round" stroke-linejoin="round"/>
<path d="M9.08709 25.1491V27.3586C8.98257 28.1432 9.53311 28.8641 10.3165 28.9691C11.1001 29.0738 11.8198 28.5224 11.9244 27.7378C11.9412 27.612 11.9412 27.4846 11.9244 27.3589L11.9243 20.9621C12.0288 20.1775 11.4782 19.4566 10.6949 19.3517C9.91151 19.2467 9.19156 19.7983 9.08692 20.5829V20.9893C9.19143 20.2047 8.6409 19.4838 7.85754 19.3788C7.07417 19.2739 6.35422 19.8255 6.24958 20.6101V21.3682C6.35409 20.5836 5.80356 19.8627 5.0202 19.7577C4.23683 19.6528 3.51688 20.2044 3.41224 20.989C3.40406 21.2622 3.40447 21.4928 3.38695 21.7739C3.49146 20.9893 2.94092 20.2684 2.15756 20.1635C1.3742 20.0585 0.654247 20.6101 0.549611 21.3947C0.53287 21.5205 0.53287 21.6479 0.54333 21.7739L0.549777 25.269C0.445266 26.0537 0.995805 26.7745 1.77917 26.8795C2.56284 26.9842 3.28248 26.4328 3.38712 25.6482C3.40386 25.5224 3.40386 25.395 3.38712 25.2694V24.8505L3.39968 23.752L3.38711 27.2721C3.2826 28.0567 3.83314 28.7776 4.6165 28.8826C5.39986 28.9875 6.11982 28.4359 6.22445 27.6513C6.24119 27.5255 6.24119 26.5431 6.22445 26.4172V24.8518L6.21172 23.5249L6.22445 28.0851C6.11994 28.8698 6.67048 29.5906 7.45384 29.6956C8.2372 29.8005 8.95716 29.2489 9.06179 28.4643C9.07853 28.3385 9.07853 28.2111 9.06179 28.0855L9.08692 23.1442L9.08709 25.1491Z" stroke="#182433" stroke-linecap="round" stroke-linejoin="round"/>
<path d="M13.0619 29.5161C13.0081 30.1714 12.4015 30.6811 11.6645 30.6904H8.36475" stroke="#182433" stroke-linecap="round" stroke-linejoin="round"/>
<path d="M13.062 29.516V24.8188" stroke="#182433" stroke-linecap="round" stroke-linejoin="round"/>
<path d="M8.36456 30.6811C7.81251 30.6811 6.79883 30.8343 6.79883 29.9077" stroke="#182433" stroke-miterlimit="10" stroke-linecap="round" stroke-linejoin="round"/>
</svg>
