<svg width="35" height="35" viewBox="0 0 35 35" fill="none" xmlns="http://www.w3.org/2000/svg">
<path d="M23.5166 23.1245V26.1996" stroke="black" stroke-width="2" stroke-linecap="round" stroke-linejoin="round"/>
<path d="M23.4934 28.8145C23.8733 28.8145 24.1812 28.5066 24.1812 28.1267C24.1812 27.7469 23.8733 27.439 23.4934 27.439C23.1136 27.439 22.8057 27.7469 22.8057 28.1267C22.8057 28.5066 23.1136 28.8145 23.4934 28.8145Z" fill="black"/>
<path d="M11.9534 22.9233L11.1963 27.9017" stroke="black" stroke-width="2" stroke-linecap="round" stroke-linejoin="round"/>
<path d="M14.1693 22.9233L13.4121 27.9017" stroke="black" stroke-width="2" stroke-linecap="round" stroke-linejoin="round"/>
<path d="M10.3306 24.3101L15.3662 24.3052" stroke="black" stroke-width="2" stroke-linecap="round" stroke-linejoin="round"/>
<path d="M9.99951 26.5011L15.0351 26.4961" stroke="black" stroke-width="2" stroke-linecap="round" stroke-linejoin="round"/>
<path d="M20.2549 24.0496C20.1631 23.8721 20.0227 23.7244 19.8501 23.6237C19.6775 23.5229 19.4799 23.4734 19.2802 23.4807C19.0056 23.4596 18.7333 23.5441 18.5189 23.717C18.3046 23.8899 18.1643 24.1381 18.1267 24.4109C18.1267 24.4109 17.9593 25.3525 19.3732 25.3969C19.3732 25.3969 20.3778 25.5643 20.3778 26.4015C20.3778 27.3187 19.3918 27.3506 19.3918 27.3506C19.3918 27.3506 18.4491 27.422 18.1869 26.8471" stroke="black" stroke-width="2" stroke-linecap="round" stroke-linejoin="round"/>
<path d="M19.2842 23.3074V22.6157" stroke="black" stroke-width="2" stroke-linecap="round" stroke-linejoin="round"/>
<path d="M19.2842 28.2171V27.5254" stroke="black" stroke-width="2" stroke-linecap="round" stroke-linejoin="round"/>
<path d="M25.4049 20.8569H8.82287C7.27436 20.8569 6.01904 22.1123 6.01904 23.6608V27.389C6.01904 28.9375 7.27436 30.1928 8.82287 30.1928H25.4049C26.9535 30.1928 28.2088 28.9375 28.2088 27.389V23.6608C28.2088 22.1123 26.9535 20.8569 25.4049 20.8569Z" fill="#182433"/>
<path d="M23.5166 23.125V26.2001" stroke="white" stroke-linecap="round" stroke-linejoin="round"/>
<path d="M23.4934 28.815C23.8733 28.815 24.1812 28.507 24.1812 28.1272C24.1812 27.7474 23.8733 27.4395 23.4934 27.4395C23.1136 27.4395 22.8057 27.7474 22.8057 28.1272C22.8057 28.507 23.1136 28.815 23.4934 28.815Z" fill="white"/>
<path d="M11.9539 22.9238L11.1968 27.9022" stroke="white" stroke-linecap="round" stroke-linejoin="round"/>
<path d="M14.1697 22.9238L13.4126 27.9022" stroke="white" stroke-linecap="round" stroke-linejoin="round"/>
<path d="M10.3311 24.3106L15.3667 24.3057" stroke="white" stroke-linecap="round" stroke-linejoin="round"/>
<path d="M9.99951 26.5016L15.0351 26.4966" stroke="white" stroke-linecap="round" stroke-linejoin="round"/>
<path d="M20.2554 24.0501C20.1636 23.8726 20.0232 23.7249 19.8506 23.6242C19.678 23.5234 19.4804 23.4739 19.2807 23.4812C19.0061 23.4601 18.7338 23.5446 18.5194 23.7175C18.3051 23.8904 18.1648 24.1386 18.1272 24.4114C18.1272 24.4114 17.9598 25.353 19.3737 25.3974C19.3737 25.3974 20.3783 25.5648 20.3783 26.402C20.3783 27.3192 19.3923 27.3511 19.3923 27.3511C19.3923 27.3511 18.4496 27.4225 18.1873 26.8476" stroke="white" stroke-linecap="round" stroke-linejoin="round"/>
<path d="M19.2842 23.3079V22.6162" stroke="white" stroke-linecap="round" stroke-linejoin="round"/>
<path d="M19.2842 28.2176V27.5259" stroke="white" stroke-linecap="round" stroke-linejoin="round"/>
<path d="M17.3544 33.184C26.0907 33.184 33.1728 26.1019 33.1728 17.3657C33.1728 8.62947 26.0907 1.54736 17.3544 1.54736C8.61823 1.54736 1.53613 8.62947 1.53613 17.3657C1.53613 26.1019 8.61823 33.184 17.3544 33.184Z" stroke="#182433" stroke-width="2" stroke-miterlimit="10"/>
<path d="M13.2281 15.9387C13.2281 16.3468 13.1071 16.7457 12.8804 17.085C12.6536 17.4243 12.3314 17.6888 11.9544 17.8449C11.5774 18.0011 11.1625 18.042 10.7623 17.9624C10.3621 17.8828 9.99443 17.6862 9.70588 17.3977C9.41733 17.1091 9.22082 16.7415 9.14121 16.3413C9.0616 15.941 9.10246 15.5262 9.25862 15.1492C9.41478 14.7722 9.67924 14.4499 10.0185 14.2232C10.3578 13.9965 10.7567 13.8755 11.1648 13.8755C11.712 13.8757 12.2366 14.0932 12.6235 14.48C13.0104 14.8669 13.2279 15.3916 13.2281 15.9387Z" fill="#182433"/>
<path d="M25.6075 15.9387C25.6075 16.3468 25.4865 16.7457 25.2598 17.085C25.033 17.4243 24.7108 17.6888 24.3338 17.8449C23.9568 18.0011 23.5419 18.042 23.1417 17.9624C22.7415 17.8828 22.3738 17.6862 22.0853 17.3977C21.7967 17.1091 21.6002 16.7415 21.5206 16.3413C21.441 15.941 21.4819 15.5262 21.638 15.1492C21.7942 14.7722 22.0586 14.4499 22.3979 14.2232C22.7372 13.9965 23.1361 13.8755 23.5442 13.8755C24.0914 13.8757 24.616 14.0931 25.0029 14.48C25.3898 14.8669 25.6073 15.3916 25.6075 15.9387Z" fill="#182433"/>
<path d="M8.41357 9.87793L13.2278 12.6289" stroke="#182433" stroke-width="2" stroke-linecap="round" stroke-linejoin="round"/>
<path d="M26.2952 9.87793L21.481 12.6289" stroke="#182433" stroke-width="2" stroke-linecap="round" stroke-linejoin="round"/>
<path d="M25.6452 20.8564H9.06311C7.51459 20.8564 6.25928 22.1118 6.25928 23.6603V27.3885C6.25928 28.937 7.51459 30.1923 9.06311 30.1923H25.6452C27.1937 30.1923 28.449 28.937 28.449 27.3885V23.6603C28.449 22.1118 27.1937 20.8564 25.6452 20.8564Z" stroke="#182433" stroke-width="2" stroke-miterlimit="2"/>
</svg>
