<svg width="35" height="35" viewBox="0 0 35 35" fill="none" xmlns="http://www.w3.org/2000/svg">
<path d="M17.3544 33.0414C26.0907 33.0414 33.1728 25.9593 33.1728 17.2231C33.1728 8.48689 26.0907 1.40479 17.3544 1.40479C8.61823 1.40479 1.53613 8.48689 1.53613 17.2231C1.53613 25.9593 8.61823 33.0414 17.3544 33.0414Z" stroke="#182433" stroke-width="2" stroke-miterlimit="10"/>
<path d="M10.8213 25.4766C12.1121 22.8407 14.8267 21.215 17.6988 21.3501C20.3359 21.4742 22.7143 23.0644 23.8886 25.4766" stroke="#182433" stroke-width="2" stroke-miterlimit="10" stroke-linecap="round" stroke-linejoin="round"/>
<path d="M6.61664 21.0956C6.25034 20.7293 6.04869 20.2425 6.04883 19.7245C6.04883 18.0197 7.66044 16.3884 7.72901 16.3198C7.87165 16.1772 8.10253 16.1773 8.24503 16.3198C8.31367 16.3885 9.92535 18.0198 9.92569 19.725C9.92521 20.7934 9.05562 21.663 7.98712 21.6629C7.46973 21.6635 6.98293 21.4619 6.61664 21.0956Z" stroke="#182433" stroke-width="2" stroke-miterlimit="10"/>
<path d="M12.7281 13.7845C12.7281 14.6476 12.0272 15.3477 11.1648 15.3477C10.3024 15.3477 9.60156 14.6476 9.60156 13.7845C9.60156 12.9222 10.3025 12.2212 11.1648 12.2212C12.027 12.2212 12.7281 12.9222 12.7281 13.7845Z" fill="#182433" stroke="#182433"/>
<path d="M25.1075 13.7845C25.1075 14.6476 24.4067 15.3477 23.5442 15.3477C22.6818 15.3477 21.981 14.6476 21.981 13.7845C21.981 12.9222 22.6819 12.2212 23.5442 12.2212C24.4065 12.2212 25.1075 12.9222 25.1075 13.7845Z" fill="#182433" stroke="#182433"/>
</svg>
