<svg width="35" height="35" viewBox="0 0 35 35" fill="none" xmlns="http://www.w3.org/2000/svg">
<path d="M20.5624 4.8125C20.5624 3.12266 19.1898 1.75 17.4999 1.75C15.8101 1.75 14.4374 3.12266 14.4374 4.8125C14.4374 6.50234 15.8101 7.875 17.4999 7.875C19.1898 7.875 20.5624 6.50234 20.5624 4.8125ZM21.8749 16.4445L24.407 19.857C24.9812 20.6336 26.0804 20.7977 26.857 20.218C27.6335 19.6383 27.7976 18.5445 27.2179 17.768L23.3624 12.5727C21.9843 10.7187 19.8132 9.625 17.4999 9.625C15.1866 9.625 13.0156 10.7187 11.6374 12.5727L7.78196 17.768C7.20774 18.5445 7.36634 19.6383 8.1429 20.218C8.91946 20.7977 10.0132 20.6336 10.5929 19.857L13.1249 16.4445V31.5C13.1249 32.468 13.907 33.25 14.8749 33.25C15.8429 33.25 16.6249 32.468 16.6249 31.5V22.75C16.6249 22.2687 17.0187 21.875 17.4999 21.875C17.9812 21.875 18.3749 22.2687 18.3749 22.75V31.5C18.3749 32.468 19.157 33.25 20.1249 33.25C21.0929 33.25 21.8749 32.468 21.8749 31.5V16.4445Z" fill="#6C7A91"/>
</svg>
