<svg width="50" height="50" viewBox="0 0 50 50" fill="none" xmlns="http://www.w3.org/2000/svg">
<path d="M23.7499 5.47656C24.4609 4.83594 25.539 4.83594 26.2499 5.47656L44.3749 21.7266C45.1484 22.4141 45.2109 23.6016 44.5155 24.375C43.8202 25.1484 42.6406 25.2109 41.8671 24.5156L41.2421 23.9531V39.9922C41.2421 42.75 38.9999 44.9922 36.2421 44.9922H13.7421C10.9843 44.9922 8.74211 42.75 8.74211 39.9922V23.9531L8.11711 24.5156C7.34367 25.2031 6.16398 25.1406 5.46867 24.375C4.77336 23.6094 4.84367 22.4219 5.6093 21.7266L23.7499 5.47656ZM24.9999 9.39062L12.4999 20.6016V40C12.4999 40.6875 13.0624 41.25 13.7499 41.25H17.4999V33.125C17.4999 30.0156 20.0155 27.5 23.1249 27.5H26.8749C29.9843 27.5 32.4999 30.0156 32.4999 33.125V41.25H36.2499C36.9374 41.25 37.4999 40.6875 37.4999 40V20.6016L24.9999 9.39844V9.39062ZM21.2499 41.25H28.7499V33.125C28.7499 32.0859 27.914 31.25 26.8749 31.25H23.1249C22.0859 31.25 21.2499 32.0859 21.2499 33.125V41.25Z" fill="white"/>
</svg>
