<svg width="640" height="640" viewBox="0 0 640 640" fill="none" xmlns="http://www.w3.org/2000/svg">
<path d="M320 112C434.9 112 528 205.1 528 320C528 434.9 434.9 528 320 528C205.1 528 112 434.9 112 320C112 205.1 205.1 112 320 112ZM320 576C461.4 576 576 461.4 576 320C576 178.6 461.4 64 320 64C178.6 64 64 178.6 64 320C64 461.4 178.6 576 320 576ZM276.5 211.5C269.1 207 259.8 206.8 252.2 211C244.6 215.2 240 223.3 240 232V408C240 416.7 244.7 424.7 252.3 428.9C259.9 433.1 269.1 433 276.6 428.4L420.6 340.4C427.7 336 432.1 328.3 432.1 319.9C432.1 311.5 427.7 303.8 420.6 299.4L276.6 211.4L276.5 211.5ZM362 320L288 365.2V274.8L362 320Z" fill="white"/>
</svg>
