<svg width="35" height="35" viewBox="0 0 35 35" fill="none" xmlns="http://www.w3.org/2000/svg">
<path d="M14.4376 4.8125C14.4376 3.12266 15.8102 1.75 17.5001 1.75C19.1899 1.75 20.5626 3.12266 20.5626 4.8125C20.5626 6.50234 19.1899 7.875 17.5001 7.875C15.8102 7.875 14.4376 6.50234 14.4376 4.8125ZM13.1251 24.5H11.7141C11.1181 24.5 10.697 23.9148 10.8829 23.3461L13.2345 16.2914L10.5931 19.8516C10.0188 20.6281 8.91962 20.7922 8.14306 20.2125C7.36649 19.6328 7.20243 18.5391 7.78212 17.7625L11.6376 12.5672C13.0157 10.7188 15.1868 9.625 17.5001 9.625C19.8134 9.625 21.9845 10.7187 23.3626 12.5727L27.2181 17.768C27.7923 18.5445 27.6337 19.6383 26.8571 20.218C26.0806 20.7977 24.9868 20.6336 24.4071 19.857L21.7657 16.2969L24.1173 23.3461C24.3087 23.9148 23.8821 24.5 23.286 24.5H21.8751V31.5C21.8751 32.468 21.0931 33.25 20.1251 33.25C19.1571 33.25 18.3751 32.468 18.3751 31.5V24.5H16.6251V31.5C16.6251 32.468 15.8431 33.25 14.8751 33.25C13.9071 33.25 13.1251 32.468 13.1251 31.5V24.5Z" fill="#6C7A91"/>
</svg>
