<svg width="28" height="28" viewBox="0 0 28 28" fill="none" xmlns="http://www.w3.org/2000/svg">
<path fill-rule="evenodd" clip-rule="evenodd" d="M6.29029 5.76611C7.08659 5.76611 7.73286 6.41238 7.73286 7.20868C7.73286 8.00498 7.08659 8.65125 6.29029 8.65125H4.84772C4.05575 8.65125 3.40515 9.30185 3.40515 10.0938V23.0769C3.40515 23.8689 4.05575 24.5195 4.84772 24.5195H17.8308C18.6228 24.5195 19.2734 23.8689 19.2734 23.0769V21.6344C19.2734 20.8381 19.9197 20.1918 20.716 20.1918C21.5123 20.1918 22.1585 20.8381 22.1585 21.6344V23.0769C22.1585 25.4514 20.2053 27.4046 17.8308 27.4046H4.84772C2.47326 27.4046 0.52002 25.4514 0.52002 23.0769V10.0938C0.52002 7.71935 2.47326 5.76611 4.84772 5.76611H6.29029Z" fill="#182433"/>
<path fill-rule="evenodd" clip-rule="evenodd" d="M26.6204 7.62872L26.619 7.63016L14.5245 19.7679C14.2548 20.0391 13.8869 20.192 13.5032 20.192H9.17548C8.37918 20.192 7.73291 19.5458 7.73291 18.7495V14.4218C7.73291 14.038 7.88582 13.6702 8.15702 13.4004L20.2948 1.30595C21.1329 0.467813 22.2711 -0.00390625 23.4569 -0.00390625C25.9107 -0.00390625 27.9289 2.01425 27.9289 4.46805C27.9289 5.6524 27.4586 6.79059 26.6204 7.62872ZM24.5792 5.59037C24.8764 5.2932 25.0437 4.88928 25.0437 4.46805C25.0437 3.59674 24.3282 2.88123 23.4569 2.88123C23.0357 2.88123 22.6317 3.04857 22.3346 3.34574L22.3331 3.34718L10.618 15.0204V17.3069H12.9045L24.5778 5.59181L24.5792 5.59037Z" fill="#182433"/>
<path fill-rule="evenodd" clip-rule="evenodd" d="M18.2535 5.34358C17.6909 4.78098 17.6909 3.86639 18.2535 3.30379C18.8161 2.74119 19.7307 2.74119 20.2933 3.30379L24.621 7.63149C25.1836 8.19409 25.1836 9.10868 24.621 9.67128C24.0584 10.2339 23.1438 10.2339 22.5812 9.67128L18.2535 5.34358Z" fill="#182433"/>
</svg>
