<svg width="33" height="33" viewBox="0 0 33 33" fill="none" xmlns="http://www.w3.org/2000/svg">
<path fill-rule="evenodd" clip-rule="evenodd" d="M0.503906 16.2937C0.503906 7.52992 7.71497 0.318848 16.4788 0.318848C25.2426 0.318848 32.4537 7.52992 32.4537 16.2937C32.4537 25.0576 25.2426 32.2686 16.4788 32.2686C7.71497 32.2686 0.503906 25.0576 0.503906 16.2937ZM3.69889 16.2937C3.69889 23.3051 9.46742 29.0737 16.4788 29.0737C23.4902 29.0737 29.2587 23.3051 29.2587 16.2937C29.2587 9.28236 23.4902 3.51383 16.4788 3.51383C9.46742 3.51383 3.69889 9.28236 3.69889 16.2937Z" fill="#182433"/>
<path d="M8.54346 12.1031C8.54346 13.1253 9.38467 13.9665 10.4068 13.9665C11.429 13.9665 12.2702 13.1253 12.2702 12.1031C12.2702 11.081 11.429 10.2397 10.4068 10.2397C9.38467 10.2397 8.54346 11.081 8.54346 12.1031Z" fill="#182433"/>
<path d="M20.459 12.1031C20.459 13.1253 21.3002 13.9665 22.3224 13.9665C23.3445 13.9665 24.1857 13.1253 24.1857 12.1031C24.1857 11.081 23.3445 10.2397 22.3224 10.2397C21.3002 10.2397 20.459 11.081 20.459 12.1031Z" fill="#182433"/>
<path fill-rule="evenodd" clip-rule="evenodd" d="M22.8318 16.8419C23.6132 16.8419 24.2485 17.4772 24.2485 18.2586C24.2485 22.5215 20.7417 26.0283 16.4789 26.0283C12.216 26.0283 8.70917 22.5215 8.70917 18.2586C8.70917 17.4772 9.34447 16.8419 10.1259 16.8419C10.7358 16.8419 11.5267 16.4671 12.4257 16.1431C13.6581 15.6952 15.0208 15.2727 16.3804 15.2727C17.813 15.2727 19.2487 15.6952 20.513 16.1367C21.4532 16.4639 22.2569 16.8419 22.8318 16.8419ZM21.2817 19.3895C20.9513 19.291 20.5988 19.1735 20.2271 19.0432C19.0963 18.6398 17.7431 18.1093 16.3804 18.1093C15.1161 18.1093 13.8551 18.6398 12.7624 19.0369C12.3844 19.1766 12.0222 19.2974 11.6792 19.399C12.2001 21.5654 14.1632 23.1949 16.4789 23.1949C18.7977 23.1949 20.7639 21.559 21.2817 19.3895Z" fill="#182433"/>
</svg>
