<svg width="37" height="40" viewBox="0 0 37 40" fill="none" xmlns="http://www.w3.org/2000/svg">
<path fill-rule="evenodd" clip-rule="evenodd" d="M19.5163 20.3573C19.0413 20.8324 18.2701 20.8324 17.7951 20.3573C17.32 19.8823 17.32 19.1112 17.7951 18.6361L24.2498 12.1814C25.4297 11.0014 27.373 11.0014 28.5529 12.1814C29.7329 13.3613 29.7329 15.3046 28.5529 16.4845L22.9588 22.0786C22.4838 22.5537 21.7127 22.5537 21.2376 22.0786C20.7625 21.6035 20.7625 20.8324 21.2376 20.3573L26.8317 14.7633C27.0675 14.5274 27.0675 14.1384 26.8317 13.9026C26.5959 13.6668 26.2069 13.6668 25.9711 13.9026L19.5163 20.3573Z" fill="#373D3F"/>
<path fill-rule="evenodd" clip-rule="evenodd" d="M28.553 16.4842C28.0779 16.9593 27.3068 16.9593 26.8318 16.4842C26.3567 16.0092 26.3567 15.238 26.8318 14.763L28.553 13.0417C29.7329 11.8618 31.6762 11.8618 32.8562 13.0417C34.0361 14.2216 34.0361 16.1649 32.8562 17.3449L25.5408 24.6602C25.0657 25.1353 24.2946 25.1353 23.8195 24.6602C23.3445 24.1852 23.3445 23.414 23.8195 22.939L31.1349 15.6236C31.3707 15.3878 31.3707 14.9988 31.1349 14.763C30.8991 14.5272 30.5101 14.5272 30.2743 14.763L28.553 16.4842Z" fill="#373D3F"/>
<path fill-rule="evenodd" clip-rule="evenodd" d="M31.1346 19.0662C30.6596 19.5413 29.8884 19.5413 29.4134 19.0662C28.9383 18.5911 28.9383 17.82 29.4134 17.3449C30.5933 16.165 32.5366 16.165 33.7165 17.3449C34.8964 18.5249 34.8964 20.4682 33.7165 21.6481L28.1224 27.2422C27.6474 27.7173 26.8762 27.7173 26.4012 27.2422C25.9261 26.7671 25.9261 25.996 26.4012 25.5209L31.9953 19.9268C32.2311 19.691 32.2311 19.302 31.9953 19.0662C31.7594 18.8304 31.3704 18.8304 31.1346 19.0662Z" fill="#373D3F"/>
<path fill-rule="evenodd" clip-rule="evenodd" d="M15.3904 30.0014L16.9344 31.5453C19.2951 33.906 23.18 33.906 25.5407 31.5453L32.856 24.23C33.0918 23.9942 33.0918 23.6052 32.856 23.3693C32.6202 23.1335 32.2312 23.1335 31.9954 23.3693C31.5203 23.8444 30.7492 23.8444 30.2741 23.3693C29.7991 22.8943 29.7991 22.1231 30.2741 21.6481C31.4541 20.4682 33.3974 20.4682 34.5773 21.6481C35.7572 22.828 35.7572 24.7713 34.5773 25.9512L27.2619 33.2666C23.9571 36.5714 18.5179 36.5714 15.2131 33.2666L13.4918 31.5453C13.4548 31.5083 13.4213 31.4696 13.3894 31.4291C11.5657 29.423 10.7998 26.6518 11.3497 23.9812L11.3497 23.9795C11.3799 23.8358 11.41 23.6904 11.4401 23.5484C11.5855 22.8607 12.2913 20.2496 13.5607 15.7132C14.0022 14.1374 15.6417 13.1846 17.2304 13.5823C18.7778 13.9695 19.8717 15.3698 19.8734 16.9654L19.8726 19.4965C19.8726 20.1678 19.3269 20.7134 18.6556 20.7134C17.9843 20.7134 17.4387 20.1678 17.4387 19.4965L17.4387 16.9663C17.4387 16.4843 17.1065 16.0609 16.64 15.9438L16.6383 15.9438C16.3207 15.8638 15.9937 16.0548 15.905 16.3707C14.6597 20.8176 13.9643 23.3771 13.8223 24.051L13.8223 24.0527C13.7922 24.193 13.7629 24.3324 13.7337 24.4718C13.3214 26.4745 13.9454 28.5564 15.3904 30.0014Z" fill="#373D3F"/>
<path fill-rule="evenodd" clip-rule="evenodd" d="M10.4501 18.9752C10.4501 19.6095 9.93446 20.1251 9.30012 20.1251C8.66578 20.1251 8.15018 19.6095 8.15017 18.9752C8.15017 16.2313 9.24156 13.5963 11.182 11.6559C13.1224 9.71547 15.7574 8.62408 18.5013 8.62408C19.1356 8.62408 19.6512 9.13968 19.6512 9.77402C19.6512 10.4084 19.1356 10.924 18.5013 10.924C16.3673 10.924 14.3179 11.773 12.8085 13.2824C11.2991 14.7918 10.4501 16.8412 10.4501 18.9752Z" fill="#373D3F"/>
<path fill-rule="evenodd" clip-rule="evenodd" d="M5.85028 18.9755C5.85028 19.6099 5.33468 20.1255 4.70034 20.1255C4.066 20.1255 3.55039 19.6099 3.55039 18.9755C3.54958 10.7202 10.2394 4.02543 18.5224 4.00022C19.1568 3.99859 19.6732 4.51176 19.6756 5.14691C19.6773 5.78125 19.1641 6.29767 18.5289 6.30011C11.5179 6.32207 5.84947 11.9856 5.85028 18.9755Z" fill="#373D3F"/>
</svg>
