<svg width="42" height="25" viewBox="0 0 42 25" fill="none" xmlns="http://www.w3.org/2000/svg">
<path fill-rule="evenodd" clip-rule="evenodd" d="M11.8296 12.2288C11.8296 9.50646 14.069 7.26709 16.7913 7.26709C19.5136 7.26709 21.753 9.50646 21.753 12.2288C21.753 14.9511 19.5136 17.1905 16.7913 17.1905C14.069 17.1905 11.8296 14.9511 11.8296 12.2288ZM15.1374 12.2288C15.1374 13.1368 15.8833 13.8827 16.7913 13.8827C17.6993 13.8827 18.4452 13.1368 18.4452 12.2288C18.4452 11.3208 17.6993 10.5749 16.7913 10.5749C15.8833 10.5749 15.1374 11.3208 15.1374 12.2288Z" fill="#373D3F"/>
<path fill-rule="evenodd" clip-rule="evenodd" d="M18.4171 20.4038C19.3234 20.2963 20.1454 20.9463 20.2529 21.8527C20.3604 22.759 19.7105 23.581 18.8041 23.6885C18.1359 23.7679 17.4628 23.8059 16.7897 23.8059C10.2965 23.8059 4.81712 20.2963 0.488874 13.0787C0.17298 12.5561 0.17298 11.9012 0.488874 11.3785C4.81877 4.16093 10.2965 0.651367 16.7913 0.651367C23.2862 0.651367 28.7639 4.16093 33.0938 11.3785C33.5635 12.1608 33.3104 13.178 32.5265 13.646C31.7442 14.1157 30.7271 13.8627 30.259 13.0787C26.6502 7.06518 22.2045 3.95916 16.7913 3.95916C11.6394 3.95916 7.36412 6.77244 3.8529 12.2286C7.36412 17.6848 11.6394 20.4981 16.7913 20.4981H16.793C17.3355 20.4981 17.8779 20.4667 18.4171 20.4038Z" fill="#373D3F"/>
<path fill-rule="evenodd" clip-rule="evenodd" d="M26.8272 19.0668L26.8586 18.725C26.8833 18.4372 27.071 18.2935 27.4218 18.2935C27.7025 18.2935 27.8956 18.4004 28.0007 18.6146C28.0357 18.6882 28.0532 18.7704 28.0532 18.8616V23.5615C28.0532 23.681 28.0272 23.7861 27.9746 23.8772C27.8691 24.0492 27.6939 24.135 27.4483 24.135C27.1079 24.135 26.9111 23.9581 26.8586 23.6037L26.8007 23.2404C26.4535 23.8651 25.8589 24.1772 25.0168 24.1772C24.1186 24.1772 23.4274 23.8162 22.9428 23.0931C22.5993 22.5811 22.4272 21.96 22.4272 21.2302C22.4272 20.539 22.6028 19.9372 22.9536 19.4248C23.241 19.0004 23.6133 18.6914 24.0692 18.4987C24.3849 18.3617 24.7168 18.2935 25.064 18.2935C25.8427 18.2935 26.4306 18.5513 26.8272 19.0668ZM26.7167 21.3196V20.8983C26.7167 20.5089 26.5725 20.1685 26.2851 19.8775C25.9936 19.5829 25.6568 19.4355 25.2746 19.4355C24.8322 19.4355 24.4761 19.6197 24.2062 19.9879C23.9677 20.3145 23.8482 20.7267 23.8482 21.2248C23.8482 21.6528 23.9327 22.0197 24.1011 22.3247C24.3607 22.7913 24.7482 23.0248 25.2638 23.0248C25.5831 23.0248 25.8746 22.9036 26.1378 22.6615C26.5236 22.3071 26.7167 21.8598 26.7167 21.3196Z" fill="#373D3F"/>
<path fill-rule="evenodd" clip-rule="evenodd" d="M31.0477 23.1985L30.9849 23.6296C30.9355 23.9665 30.7428 24.1349 30.406 24.1349C30.0305 24.1349 29.8428 23.944 29.8428 23.5614V16.6092C29.8428 16.4686 29.8863 16.3478 29.9744 16.2459C30.1042 16.1021 30.2847 16.0303 30.5164 16.0303C30.7828 16.0303 30.9777 16.1214 31.1003 16.3038C31.16 16.3914 31.1901 16.4933 31.1901 16.6092V19.0249C31.5831 18.5372 32.1355 18.2933 32.8478 18.2933C33.6795 18.2933 34.3478 18.6266 34.853 19.2931C35.2563 19.8302 35.4584 20.4738 35.4584 21.2247C35.4584 22.0353 35.2514 22.7072 34.8373 23.2403C34.3496 23.865 33.6934 24.1771 32.8689 24.1771C32.3425 24.1771 31.8777 24.0141 31.4739 23.6876C31.3024 23.5511 31.16 23.3876 31.0477 23.1985ZM31.1793 20.8982V21.3194C31.1793 21.9055 31.3953 22.3739 31.8269 22.7247C32.0757 22.9245 32.3461 23.0247 32.6371 23.0247C33.0548 23.0247 33.3934 22.8599 33.653 22.5298C33.9162 22.2001 34.0478 21.7632 34.0478 21.2193C34.0478 20.6193 33.8776 20.1509 33.5371 19.814C33.2812 19.5616 32.9722 19.4354 32.6111 19.4354C32.2985 19.4354 32.0111 19.5387 31.7479 19.7458C31.3688 20.0476 31.1793 20.4315 31.1793 20.8982Z" fill="#373D3F"/>
<path fill-rule="evenodd" clip-rule="evenodd" d="M39.2005 18.2612C39.9582 18.2612 40.5582 18.479 41.0001 18.9138C41.2282 19.1383 41.3423 19.3647 41.3423 19.5928C41.3423 19.7648 41.2723 19.9121 41.1317 20.0352C41.0055 20.1439 40.8618 20.1982 40.7001 20.1982C40.5178 20.1982 40.3651 20.1228 40.2425 19.9719C39.9442 19.6068 39.5935 19.4244 39.1897 19.4244C38.7303 19.4244 38.3616 19.6175 38.0845 20.0033C37.8496 20.3298 37.7319 20.7367 37.7319 21.2244C37.7319 21.7194 37.8653 22.133 38.1321 22.4667C38.4267 22.8314 38.7882 23.0137 39.2162 23.0137C39.6267 23.0137 39.9986 22.8053 40.3318 22.3876C40.4374 22.2507 40.5721 22.1824 40.7369 22.1824C40.8914 22.1824 41.0369 22.2421 41.1739 22.3611C41.332 22.4945 41.4106 22.6665 41.4106 22.8772C41.4106 23.0631 41.3302 23.249 41.1685 23.435C40.7266 23.9438 40.0758 24.198 39.2162 24.198C38.3391 24.198 37.6304 23.907 37.0897 23.3245C36.5777 22.7734 36.3213 22.0683 36.3213 21.2087C36.3213 20.6613 36.4425 20.1632 36.6846 19.7141C37.0637 19.0085 37.6426 18.5563 38.4213 18.356C38.6706 18.2931 38.9302 18.2612 39.2005 18.2612Z" fill="#373D3F"/>
</svg>
