<svg width="33" height="30" viewBox="0 0 33 30" fill="none" xmlns="http://www.w3.org/2000/svg">
<path fill-rule="evenodd" clip-rule="evenodd" d="M12.0761 11.9304C12.0761 12.743 11.4321 13.4039 10.6369 13.4039C9.84167 13.4039 9.19482 12.7459 9.19482 11.9334V11.9231C9.19482 5.46416 14.397 0.147461 20.7199 0.147461C27.0429 0.147461 32.245 5.46416 32.245 11.9231C32.245 14.0604 31.6759 16.1579 30.5983 17.989C30.5739 18.0317 30.545 18.0744 30.5162 18.1141C29.6317 19.3182 28.5887 20.3912 27.4145 21.3009C26.324 22.3651 25.4812 23.6678 24.9496 25.1103C24.928 25.1677 24.9035 25.2251 24.8747 25.2796C23.5032 27.9262 20.802 29.588 17.8718 29.588C16.0638 29.588 14.3091 28.9565 12.9016 27.7981C12.2821 27.2888 12.1841 26.3615 12.6826 25.7285C13.1811 25.0956 14.0887 24.9955 14.7081 25.5048C15.6042 26.2423 16.7207 26.6441 17.8718 26.6441C19.7086 26.6441 21.4042 25.6182 22.2888 23.9769C22.986 22.1281 24.0824 20.4634 25.4942 19.1033C25.5345 19.065 25.5749 19.0297 25.6181 18.9973C26.5804 18.2599 27.439 17.3885 28.1666 16.4081C28.9503 15.0495 29.3637 13.501 29.3637 11.9231C29.3637 7.07889 25.4625 3.09137 20.7199 3.09137C15.9773 3.09137 12.0761 7.07889 12.0761 11.9231V11.9304Z" fill="#373D3F"/>
<path fill-rule="evenodd" clip-rule="evenodd" d="M17.8388 11.9144C17.8489 12.7269 17.2107 13.3937 16.4154 13.404C15.6202 13.4143 14.9676 12.7622 14.9575 11.9497C14.9575 11.9261 14.9575 11.9026 14.9575 11.879C14.9575 8.64956 17.5579 5.99121 20.7201 5.99121C23.8808 5.99121 26.4826 8.64956 26.4826 11.879C26.4826 13.5541 25.7839 15.1512 24.5622 16.2669C23.9687 16.8086 23.0582 16.7571 22.5281 16.1521C21.9979 15.5457 22.0483 14.6154 22.6404 14.0737C23.2513 13.5144 23.6013 12.7166 23.6013 11.879C23.6013 10.2643 22.3004 8.93512 20.7201 8.93512C19.1397 8.93512 17.8388 10.2643 17.8388 11.879C17.8388 11.8908 17.8388 11.9026 17.8388 11.9144Z" fill="#373D3F"/>
<path fill-rule="evenodd" clip-rule="evenodd" d="M5.02652 17.9345L5.05729 17.5927C5.08146 17.3048 5.26519 17.1611 5.60849 17.1611C5.88321 17.1611 6.07222 17.268 6.17507 17.4823C6.20936 17.5559 6.2265 17.6381 6.2265 17.7293V22.4292C6.2265 22.5486 6.201 22.6537 6.14957 22.7449C6.04628 22.9169 5.87485 23.0027 5.63442 23.0027C5.30123 23.0027 5.10872 22.8257 5.05729 22.4714L5.00059 22.1081C4.66081 22.7328 4.07884 23.0449 3.25467 23.0449C2.37557 23.0449 1.6991 22.6838 1.22483 21.9608C0.888568 21.4488 0.720215 20.8277 0.720215 20.0979C0.720215 19.4067 0.892079 18.8049 1.23537 18.2924C1.51668 17.868 1.88108 17.559 2.32722 17.3664C2.63623 17.2294 2.96106 17.1611 3.30083 17.1611C4.06302 17.1611 4.63839 17.4189 5.02652 17.9345ZM4.91838 20.1872V19.766C4.91838 19.3766 4.77729 19.0362 4.49597 18.7451C4.2107 18.4505 3.88104 18.3032 3.50698 18.3032C3.07402 18.3032 2.72546 18.4874 2.46128 18.8556C2.22788 19.1821 2.11096 19.5944 2.11096 20.0925C2.11096 20.5205 2.19359 20.8874 2.35842 21.1923C2.61249 21.659 2.99183 21.8925 3.49644 21.8925C3.80896 21.8925 4.09422 21.7712 4.3518 21.5292C4.72938 21.1748 4.91838 20.7275 4.91838 20.1872Z" fill="#373D3F"/>
<path fill-rule="evenodd" clip-rule="evenodd" d="M9.15735 22.0662L9.09581 22.4973C9.04746 22.8342 8.85889 23.0026 8.52923 23.0026C8.16176 23.0026 7.97803 22.8117 7.97803 22.4291V15.4769C7.97803 15.3363 8.02066 15.2155 8.10682 15.1135C8.23385 14.9698 8.41055 14.8979 8.63736 14.8979C8.89801 14.8979 9.08879 14.9891 9.20878 15.1715C9.26724 15.259 9.29669 15.361 9.29669 15.4769V17.8926C9.6813 17.4049 10.222 17.161 10.9191 17.161C11.7331 17.161 12.3872 17.4943 12.8817 18.1607C13.2764 18.6979 13.4742 19.3414 13.4742 20.0923C13.4742 20.903 13.2716 21.5749 12.8663 22.1079C12.3889 22.7327 11.7468 23.0448 10.9397 23.0448C10.4246 23.0448 9.96965 22.8818 9.57449 22.5553C9.40658 22.4187 9.26724 22.2553 9.15735 22.0662ZM9.28614 19.7658V20.1871C9.28614 20.7732 9.49756 21.2416 9.91997 21.5924C10.1635 21.7922 10.4281 21.8924 10.7129 21.8924C11.1217 21.8924 11.4531 21.7276 11.7072 21.3975C11.9648 21.0678 12.0936 20.6308 12.0936 20.087C12.0936 19.4869 11.927 19.0185 11.5938 18.6817C11.3433 18.4293 11.0408 18.3031 10.6874 18.3031C10.3815 18.3031 10.1002 18.4064 9.84261 18.6134C9.47163 18.9152 9.28614 19.2992 9.28614 19.7658Z" fill="#373D3F"/>
<path fill-rule="evenodd" clip-rule="evenodd" d="M17.1368 17.1289C17.8783 17.1289 18.4656 17.3467 18.8981 17.7815C19.1214 18.006 19.233 18.2324 19.233 18.4605C19.233 18.6325 19.1645 18.7798 19.0269 18.9029C18.9034 19.0116 18.7627 19.0659 18.6045 19.0659C18.426 19.0659 18.2766 18.9905 18.1566 18.8396C17.8647 18.4744 17.5214 18.2921 17.1263 18.2921C16.6766 18.2921 16.3157 18.4852 16.0445 18.871C15.8146 19.1975 15.6995 19.6044 15.6995 20.0921C15.6995 20.587 15.83 21.0007 16.0911 21.3344C16.3795 21.699 16.7333 21.8814 17.1522 21.8814C17.554 21.8814 17.9179 21.673 18.2441 21.2553C18.3473 21.1183 18.4792 21.0501 18.6405 21.0501C18.7917 21.0501 18.9342 21.1098 19.0682 21.2288C19.2229 21.3622 19.2999 21.5342 19.2999 21.7448C19.2999 21.9308 19.2212 22.1167 19.0629 22.3026C18.6304 22.8115 17.9935 23.0657 17.1522 23.0657C16.2938 23.0657 15.6001 22.7746 15.0709 22.1922C14.5698 21.6411 14.3188 20.936 14.3188 20.0764C14.3188 19.5289 14.4375 19.0309 14.6744 18.5818C15.0454 17.8762 15.612 17.424 16.3742 17.2237C16.6181 17.1608 16.8722 17.1289 17.1368 17.1289Z" fill="#373D3F"/>
</svg>
