<svg width="42" height="24" viewBox="0 0 42 24" fill="none" xmlns="http://www.w3.org/2000/svg">
<path fill-rule="evenodd" clip-rule="evenodd" d="M11.6665 11.7996C11.6665 9.07727 13.9059 6.83789 16.6282 6.83789C19.3505 6.83789 21.5899 9.07727 21.5899 11.7996C21.5899 14.5219 19.3505 16.7613 16.6282 16.7613C13.9059 16.7613 11.6665 14.5219 11.6665 11.7996ZM14.9743 11.7996C14.9743 12.7076 15.7202 13.4535 16.6282 13.4535C17.5362 13.4535 18.2821 12.7076 18.2821 11.7996C18.2821 10.8916 17.5362 10.1457 16.6282 10.1457C15.7202 10.1457 14.9743 10.8916 14.9743 11.7996Z" fill="#373D3F"/>
<path fill-rule="evenodd" clip-rule="evenodd" d="M18.254 19.9746C19.1604 19.8671 19.9823 20.5171 20.0898 21.4235C20.1973 22.3298 19.5474 23.1518 18.641 23.2593C17.9729 23.3387 17.2997 23.3767 16.6266 23.3767C10.1334 23.3767 4.65403 19.8671 0.325788 12.6495C0.00989367 12.1269 0.00989367 11.472 0.325788 10.9493C4.65569 3.73174 10.1334 0.222168 16.6282 0.222168C23.1231 0.222168 28.6008 3.73174 32.9307 10.9493C33.4004 11.7316 33.1474 12.7488 32.3634 13.2168C31.5811 13.6865 30.564 13.4335 30.0959 12.6495C26.4871 6.63598 22.0414 3.52996 16.6282 3.52996C11.4764 3.52996 7.20103 6.34324 3.68981 11.7994C7.20103 17.2556 11.4764 20.0689 16.6282 20.0689H16.6299C17.1724 20.0689 17.7148 20.0375 18.254 19.9746Z" fill="#373D3F"/>
<path fill-rule="evenodd" clip-rule="evenodd" d="M25.7375 16.2114V23.09C25.7375 23.2445 25.6881 23.3742 25.5897 23.4798C25.4496 23.6307 25.2565 23.7057 25.0108 23.7057C24.727 23.7057 24.52 23.6096 24.3902 23.4165C24.3268 23.3217 24.2954 23.213 24.2954 23.09V16.2114C24.2954 15.9905 24.3902 15.8256 24.5793 15.7165C24.7126 15.6397 24.8568 15.6011 25.0108 15.6011C25.1936 15.6011 25.3549 15.6482 25.4954 15.743C25.6567 15.8553 25.7375 16.0116 25.7375 16.2114Z" fill="#373D3F"/>
<path fill-rule="evenodd" clip-rule="evenodd" d="M29.7795 22.2796H33.411C33.5583 22.2796 33.6791 22.3286 33.7739 22.4269C33.9001 22.5567 33.9634 22.7251 33.9634 22.9322C33.9634 23.2021 33.8704 23.3952 33.6845 23.5111C33.6072 23.56 33.5161 23.5847 33.411 23.5847H28.9266C28.3585 23.5847 28.0742 23.3337 28.0742 22.832C28.0742 22.4988 28.2301 22.1498 28.5426 21.7847C28.9392 21.3145 29.6986 20.6215 30.8214 19.7058C31.3339 19.285 31.6931 18.9517 31.9002 18.7061C32.153 18.4007 32.2792 18.1043 32.2792 17.8164C32.2792 17.4585 32.1265 17.1796 31.8216 16.9797C31.5862 16.8252 31.3109 16.748 30.9952 16.748C30.3705 16.748 29.9003 17.034 29.5846 17.6058C29.4409 17.8658 29.2356 17.9956 28.9688 17.9956C28.8426 17.9956 28.7214 17.9619 28.6055 17.8954C28.3985 17.776 28.2952 17.6008 28.2952 17.3691C28.2952 17.127 28.3935 16.876 28.5898 16.6164C28.7932 16.3429 29.0654 16.1147 29.4058 15.9324C29.8936 15.6656 30.4284 15.5322 31.0109 15.5322C31.6532 15.5322 32.2159 15.6849 32.7005 15.9903C33.4056 16.4322 33.7581 17.0462 33.7581 17.8321C33.7581 18.3832 33.565 18.8776 33.1792 19.3164C32.9475 19.576 32.4773 19.9797 31.7686 20.5268C30.9301 21.1726 30.2672 21.7569 29.7795 22.2796Z" fill="#373D3F"/>
<path fill-rule="evenodd" clip-rule="evenodd" d="M39.579 19.4165C39.9998 19.4619 40.3492 19.5656 40.6263 19.7269C41.009 19.9514 41.2807 20.2604 41.4419 20.6534C41.5299 20.8707 41.5735 21.1025 41.5735 21.3477C41.5735 22.1548 41.2403 22.7813 40.5738 23.2268C40.0335 23.5883 39.3634 23.7688 38.5631 23.7688C37.5109 23.7688 36.6966 23.476 36.1213 22.8899C35.8582 22.6268 35.7266 22.3762 35.7266 22.1372C35.7266 21.9688 35.7845 21.8305 35.9004 21.7218C36.0333 21.5952 36.1896 21.5323 36.3688 21.5323C36.5264 21.5323 36.6598 21.583 36.7685 21.6845C36.7932 21.7056 36.8457 21.7672 36.9266 21.8691C37.3088 22.3321 37.8526 22.5639 38.5582 22.5639C38.9615 22.5639 39.2965 22.4795 39.5633 22.311C39.9248 22.0865 40.1054 21.76 40.1054 21.332C40.1054 20.9673 39.9967 20.6709 39.7789 20.4427C39.6001 20.2568 39.3616 20.1356 39.0634 20.0794C38.8528 20.0408 38.5124 20.0197 38.0422 20.0165C37.5791 20.0165 37.3474 19.8198 37.3474 19.4269C37.3474 19.0514 37.5877 18.8637 38.0687 18.8637C38.4967 18.8637 38.8613 18.7972 39.1631 18.6638C39.5983 18.4743 39.8157 18.1604 39.8157 17.7216C39.8157 17.4095 39.6913 17.162 39.442 16.9797C39.2036 16.8041 38.895 16.7165 38.516 16.7165C37.9052 16.7165 37.4368 16.9428 37.1107 17.3955C36.9877 17.5676 36.8264 17.6533 36.6266 17.6533C36.4649 17.6533 36.323 17.6008 36.2004 17.4953C36.067 17.383 36.0001 17.2446 36.0001 17.0798C36.0001 16.9006 36.0881 16.7075 36.2633 16.5009C36.4631 16.2692 36.7159 16.0725 37.0213 15.9112C37.488 15.6656 37.9999 15.543 38.5582 15.543C39.1896 15.543 39.7371 15.6777 40.2001 15.9481C40.8913 16.3514 41.2367 16.95 41.2367 17.7427C41.2367 18.2515 41.0368 18.6656 40.6367 18.9849C40.3668 19.1987 40.0456 19.3375 39.6738 19.4008C39.6527 19.404 39.6212 19.4093 39.579 19.4165Z" fill="#373D3F"/>
</svg>
