<svg width="33" height="31" viewBox="0 0 33 31" fill="none" xmlns="http://www.w3.org/2000/svg">
<path fill-rule="evenodd" clip-rule="evenodd" d="M12.0357 12.5203C12.0357 13.3328 11.3777 13.9937 10.5652 13.9937C9.7527 13.9937 9.0918 13.3358 9.0918 12.5232V12.5129C9.0918 6.054 14.407 0.737305 20.8674 0.737305C27.3278 0.737305 32.6431 6.054 32.6431 12.5129C32.6431 14.6502 32.0616 16.7477 30.9606 18.5789C30.9356 18.6215 30.9062 18.6642 30.8767 18.704C29.9729 19.908 28.9072 20.9811 27.7076 21.8908C26.5933 22.955 25.7322 24.2577 25.1891 25.7002C25.167 25.7576 25.142 25.815 25.1125 25.8694C23.7112 28.516 20.9513 30.1779 17.9574 30.1779C16.1101 30.1779 14.3172 29.5464 12.8791 28.388C12.2462 27.8787 12.1461 26.9513 12.6554 26.3184C13.1647 25.6854 14.092 25.5854 14.725 26.0947C15.6405 26.8321 16.7813 27.2339 17.9574 27.2339C19.8341 27.2339 21.5666 26.208 22.4704 24.5668C23.1828 22.718 24.303 21.0532 25.7455 19.6931C25.7867 19.6549 25.8279 19.6195 25.8721 19.5871C26.8553 18.8497 27.7326 17.9783 28.476 16.998C29.2767 15.6394 29.6992 14.0909 29.6992 12.5129C29.6992 7.66874 25.7131 3.68121 20.8674 3.68121C16.0218 3.68121 12.0357 7.66874 12.0357 12.5129V12.5203Z" fill="#373D3F"/>
<path fill-rule="evenodd" clip-rule="evenodd" d="M17.9234 12.5042C17.9337 13.3167 17.2816 13.9835 16.4691 13.9938C15.6566 14.0041 14.9898 13.352 14.9795 12.5395C14.9795 12.516 14.9795 12.4924 14.9795 12.4689C14.9795 9.2394 17.6364 6.58105 20.8673 6.58105C24.0968 6.58105 26.7551 9.2394 26.7551 12.4689C26.7551 14.144 26.0412 15.741 24.793 16.8568C24.1866 17.3984 23.2563 17.3469 22.7146 16.742C22.1729 16.1355 22.2244 15.2052 22.8294 14.6636C23.4535 14.1042 23.8112 13.3064 23.8112 12.4689C23.8112 10.8541 22.482 9.52496 20.8673 9.52496C19.2526 9.52496 17.9234 10.8541 17.9234 12.4689C17.9234 12.4806 17.9234 12.4924 17.9234 12.5042Z" fill="#373D3F"/>
<path fill-rule="evenodd" clip-rule="evenodd" d="M1.80049 16.2036V23.0822C1.80049 23.2366 1.75109 23.3664 1.65274 23.472C1.51262 23.6229 1.3195 23.6979 1.07384 23.6979C0.79 23.6979 0.582952 23.6018 0.45316 23.4087C0.389835 23.3139 0.358398 23.2052 0.358398 23.0822V16.2036C0.358398 15.9826 0.453169 15.8178 0.642244 15.7087C0.775629 15.6319 0.919792 15.5933 1.07384 15.5933C1.25662 15.5933 1.41784 15.6404 1.55842 15.7352C1.71965 15.8475 1.80049 16.0038 1.80049 16.2036Z" fill="#373D3F"/>
<path fill-rule="evenodd" clip-rule="evenodd" d="M5.84247 22.2718H9.47396C9.62127 22.2718 9.74209 22.3208 9.83685 22.4191C9.96305 22.5489 10.0264 22.7173 10.0264 22.9244C10.0264 23.1943 9.9334 23.3874 9.74747 23.5033C9.67023 23.5522 9.57905 23.5769 9.47396 23.5769H4.98962C4.4215 23.5769 4.13721 23.3259 4.13721 22.8242C4.13721 22.491 4.29305 22.142 4.60563 21.7769C5.00219 21.3067 5.76163 20.6137 6.88441 19.698C7.39684 19.2772 7.75613 18.9439 7.96317 18.6983C8.21602 18.3929 8.34221 18.0965 8.34221 17.8086C8.34221 17.4506 8.18951 17.1717 7.88457 16.9719C7.64923 16.8174 7.37393 16.7402 7.05821 16.7402C6.4335 16.7402 5.96329 17.0262 5.64756 17.598C5.50385 17.858 5.2986 17.9878 5.03183 17.9878C4.90563 17.9878 4.78438 17.9541 4.66851 17.8876C4.46147 17.7682 4.35817 17.593 4.35817 17.3613C4.35817 17.1192 4.45653 16.8681 4.65279 16.6086C4.85623 16.3351 5.12839 16.1069 5.46881 15.9246C5.95654 15.6578 6.49144 15.5244 7.07393 15.5244C7.71615 15.5244 8.27888 15.6771 8.76347 15.9825C9.46857 16.4244 9.82113 17.0384 9.82113 17.8243C9.82113 18.3754 9.62801 18.8698 9.24223 19.3086C9.01049 19.5682 8.54027 19.9719 7.83158 20.519C6.99309 21.1648 6.3302 21.7491 5.84247 22.2718Z" fill="#373D3F"/>
<path fill-rule="evenodd" clip-rule="evenodd" d="M15.642 19.4087C16.0628 19.4541 16.4122 19.5578 16.6893 19.7191C17.072 19.9436 17.3437 20.2526 17.5049 20.6456C17.5929 20.8629 17.6365 21.0947 17.6365 21.3399C17.6365 22.1469 17.3033 22.7734 16.6368 23.219C16.0965 23.5805 15.4264 23.761 14.6261 23.761C13.5739 23.761 12.7596 23.4682 12.1843 22.8821C11.9211 22.6189 11.7896 22.3683 11.7896 22.1294C11.7896 21.961 11.8475 21.8227 11.9634 21.714C12.0963 21.5874 12.2526 21.5245 12.4318 21.5245C12.5894 21.5245 12.7228 21.5752 12.8315 21.6767C12.8562 21.6978 12.9087 21.7594 12.9896 21.8613C13.3718 22.3243 13.9156 22.5561 14.6212 22.5561C15.0245 22.5561 15.3595 22.4716 15.6263 22.3032C15.9878 22.0787 16.1684 21.7522 16.1684 21.3242C16.1684 20.9595 16.0597 20.6631 15.8419 20.4349C15.6631 20.249 15.4246 20.1277 15.1264 20.0716C14.9158 20.033 14.5754 20.0119 14.1052 20.0087C13.6421 20.0087 13.4104 19.812 13.4104 19.4191C13.4104 19.0436 13.6507 18.8559 14.1317 18.8559C14.5597 18.8559 14.9243 18.7894 15.2261 18.656C15.6613 18.4665 15.8787 18.1526 15.8787 17.7138C15.8787 17.4017 15.7543 17.1542 15.505 16.9719C15.2666 16.7963 14.958 16.7087 14.579 16.7087C13.9682 16.7087 13.4998 16.935 13.1737 17.3877C13.0506 17.5597 12.8894 17.6455 12.6896 17.6455C12.5279 17.6455 12.386 17.593 12.2634 17.4874C12.13 17.3752 12.0631 17.2368 12.0631 17.072C12.0631 16.8928 12.1511 16.6997 12.3262 16.4931C12.5261 16.2614 12.7789 16.0647 13.0843 15.9034C13.551 15.6578 14.0629 15.5352 14.6212 15.5352C15.2526 15.5352 15.8001 15.6699 16.2631 15.9403C16.9543 16.3436 17.2997 16.9422 17.2997 17.7349C17.2997 18.2437 17.0998 18.6578 16.6997 18.9771C16.4297 19.1909 16.1086 19.3297 15.7368 19.393C15.7157 19.3962 15.6842 19.4015 15.642 19.4087Z" fill="#373D3F"/>
</svg>
