<svg width="31" height="30" viewBox="0 0 31 30" fill="none" xmlns="http://www.w3.org/2000/svg">
<path fill-rule="evenodd" clip-rule="evenodd" d="M1.896 3.17953C1.896 1.67668 3.12608 0.44043 4.62144 0.44043C6.1168 0.44043 7.34688 1.67668 7.34688 3.17953C7.34688 4.68238 6.1168 5.91862 4.62144 5.91862C3.12608 5.91862 1.896 4.68238 1.896 3.17953ZM3.71296 3.17953C3.71296 3.68078 4.12268 4.09256 4.62144 4.09256C5.12019 4.09256 5.52992 3.68078 5.52992 3.17953C5.52992 2.67827 5.12019 2.26649 4.62144 2.26649C4.12268 2.26649 3.71296 2.67827 3.71296 3.17953Z" fill="#182433"/>
<path fill-rule="evenodd" clip-rule="evenodd" d="M6.43819 9.57069H2.80427V12.8448L3.44656 13.4903C3.61736 13.6611 3.71275 13.8939 3.71275 14.1359V18.701C3.71275 19.205 3.30575 19.614 2.80427 19.614C2.30278 19.614 1.89579 19.205 1.89579 18.701V14.5138L1.25349 13.8683C1.0827 13.6976 0.987305 13.4648 0.987305 13.2228V9.57069C0.987305 8.5691 1.80766 7.74463 2.80427 7.74463H6.43819L6.80431 7.78206L7.1468 7.8898C7.36211 7.98202 7.55744 8.11623 7.72187 8.28058C7.8854 8.44584 8.01895 8.64214 8.1107 8.85853L8.2179 9.20274L8.25515 9.57069V13.2228C8.25515 13.4648 8.15976 13.6976 7.98897 13.8683L7.34667 14.5138V18.701C7.34667 19.205 6.93967 19.614 6.43819 19.614C5.93671 19.614 5.52971 19.205 5.52971 18.701V14.1359C5.52971 13.8939 5.6251 13.6611 5.79589 13.4903L6.43819 12.8448V9.57069Z" fill="#182433"/>
<path fill-rule="evenodd" clip-rule="evenodd" d="M16.6045 3.17953C16.6045 1.67668 17.8346 0.44043 19.3299 0.44043C20.8253 0.44043 22.0554 1.67668 22.0554 3.17953C22.0554 4.68238 20.8253 5.91862 19.3299 5.91862C17.8346 5.91862 16.6045 4.68238 16.6045 3.17953ZM18.4215 3.17953C18.4215 3.68078 18.8312 4.09256 19.3299 4.09256C19.8287 4.09256 20.2384 3.68078 20.2384 3.17953C20.2384 2.67827 19.8287 2.26649 19.3299 2.26649C18.8312 2.26649 18.4215 2.67827 18.4215 3.17953Z" fill="#182433"/>
<path fill-rule="evenodd" clip-rule="evenodd" d="M21.1467 9.57069H17.5128V12.8448L18.1551 13.4903C18.3259 13.6611 18.4212 13.8939 18.4212 14.1359V18.701C18.4212 19.205 18.0142 19.614 17.5128 19.614C17.0113 19.614 16.6043 19.205 16.6043 18.701V14.5138L15.962 13.8683C15.7912 13.6976 15.6958 13.4648 15.6958 13.2228V9.57069C15.6958 8.5691 16.5162 7.74463 17.5128 7.74463H21.1467C22.1433 7.74463 22.9636 8.5691 22.9636 9.57069V13.2228C22.9636 13.4648 22.8683 13.6976 22.6975 13.8683L22.0552 14.5138V18.701C22.0552 19.205 21.6482 19.614 21.1467 19.614C20.6452 19.614 20.2382 19.205 20.2382 18.701V14.1359C20.2382 13.8939 20.3336 13.6611 20.5044 13.4903L21.1467 12.8448V9.57069Z" fill="#182433"/>
<path fill-rule="evenodd" clip-rule="evenodd" d="M9.25 13.0033C9.25 11.5004 10.4801 10.2642 11.9754 10.2642C13.4708 10.2642 14.7009 11.5004 14.7009 13.0033C14.7009 14.5061 13.4708 15.7424 11.9754 15.7424C10.4801 15.7424 9.25 14.5061 9.25 13.0033ZM11.067 13.0033C11.067 13.5045 11.4767 13.9163 11.9754 13.9163C12.4742 13.9163 12.8839 13.5045 12.8839 13.0033C12.8839 12.502 12.4742 12.0902 11.9754 12.0902C11.4767 12.0902 11.067 12.502 11.067 13.0033Z" fill="#182433"/>
<path fill-rule="evenodd" clip-rule="evenodd" d="M13.7922 19.3944H10.1583V22.6686L10.8006 23.3141C10.9714 23.4848 11.0668 23.7176 11.0668 23.9596V28.5247C11.0668 29.0287 10.6598 29.4378 10.1583 29.4378C9.65679 29.4378 9.24979 29.0287 9.24979 28.5247V24.3376L8.60749 23.6921C8.4367 23.5213 8.34131 23.2885 8.34131 23.0466V19.3944C8.34131 18.3928 9.16167 17.5684 10.1583 17.5684H13.7922C14.7888 17.5684 15.6092 18.3928 15.6092 19.3944V23.0466C15.6092 23.2885 15.5138 23.5213 15.343 23.6921L14.7007 24.3376V28.5247C14.7007 29.0287 14.2937 29.4378 13.7922 29.4378C13.2907 29.4378 12.8837 29.0287 12.8837 28.5247V23.9596C12.8837 23.7176 12.9791 23.4848 13.1499 23.3141L13.7922 22.6686V19.3944Z" fill="#182433"/>
<path fill-rule="evenodd" clip-rule="evenodd" d="M23.959 13.0033C23.959 11.5004 25.1891 10.2642 26.6844 10.2642C28.1798 10.2642 29.4099 11.5004 29.4099 13.0033C29.4099 14.5061 28.1798 15.7424 26.6844 15.7424C25.1891 15.7424 23.959 14.5061 23.959 13.0033ZM25.7759 13.0033C25.7759 13.5045 26.1857 13.9163 26.6844 13.9163C27.1832 13.9163 27.5929 13.5045 27.5929 13.0033C27.5929 12.502 27.1832 12.0902 26.6844 12.0902C26.1857 12.0902 25.7759 12.502 25.7759 13.0033Z" fill="#182433"/>
<path fill-rule="evenodd" clip-rule="evenodd" d="M28.5012 19.3944H24.8673V22.6686L25.5096 23.3141C25.6803 23.4848 25.7757 23.7176 25.7757 23.9596V28.5247C25.7757 29.0287 25.3687 29.4378 24.8673 29.4378C24.3658 29.4378 23.9588 29.0287 23.9588 28.5247V24.3376L23.3165 23.6921C23.1457 23.5213 23.0503 23.2885 23.0503 23.0466V19.3944C23.0503 18.3928 23.8707 17.5684 24.8673 17.5684H28.5012C29.4978 17.5684 30.3181 18.3928 30.3181 19.3944V23.0466C30.3181 23.2885 30.2227 23.5213 30.052 23.6921L29.4097 24.3376V28.5247C29.4097 29.0287 29.0027 29.4378 28.5012 29.4378C27.9997 29.4378 27.5927 29.0287 27.5927 28.5247V23.9596C27.5927 23.7176 27.6881 23.4848 27.8589 23.3141L28.5012 22.6686V19.3944Z" fill="#182433"/>
</svg>
