<svg width="15" height="39" viewBox="0 0 15 39" fill="none" xmlns="http://www.w3.org/2000/svg">
<path fill-rule="evenodd" clip-rule="evenodd" d="M2.08154 5.7655C2.08154 2.79237 4.52724 0.34668 7.50036 0.34668C10.4735 0.34668 12.9192 2.79237 12.9192 5.7655C12.9192 8.73863 10.4735 11.1843 7.50036 11.1843C4.52724 11.1843 2.08154 8.73863 2.08154 5.7655ZM5.69409 5.7655C5.69409 6.75714 6.50872 7.57177 7.50036 7.57177C8.49201 7.57177 9.30664 6.75714 9.30664 5.7655C9.30664 4.77386 8.49201 3.95923 7.50036 3.95923C6.50872 3.95923 5.69409 4.77386 5.69409 5.7655Z" fill="#182433"/>
<path fill-rule="evenodd" clip-rule="evenodd" d="M11.113 18.4094H3.88794V24.8867L5.16497 26.1638C5.50455 26.5015 5.69421 26.9621 5.69421 27.4408V36.4722C5.69421 37.4692 4.885 38.2784 3.88794 38.2784C2.89087 38.2784 2.08166 37.4692 2.08166 36.4722V28.1886L0.804629 26.9116C0.465049 26.5738 0.275391 26.1132 0.275391 25.6345V18.4094C0.275391 16.4279 1.90646 14.7969 3.88794 14.7969H11.113C13.0945 14.7969 14.7256 16.4279 14.7256 18.4094V25.6345C14.7256 26.1132 14.5359 26.5738 14.1963 26.9116L12.9193 28.1886V36.4722C12.9193 37.4692 12.1101 38.2784 11.113 38.2784C10.116 38.2784 9.30676 37.4692 9.30676 36.4722V27.4408C9.30676 26.9621 9.49642 26.5015 9.836 26.1638L11.113 24.8867V18.4094Z" fill="#182433"/>
</svg>
