<svg width="22" height="22" viewBox="0 0 22 22" fill="none" xmlns="http://www.w3.org/2000/svg">
<path d="M2.0625 11C2.0625 6.06289 6.06289 2.0625 11 2.0625C15.9371 2.0625 19.9375 6.06289 19.9375 11C19.9375 15.9371 15.9371 19.9375 11 19.9375C6.06289 19.9375 2.0625 15.9371 2.0625 11ZM22 11C22 4.92422 17.0758 0 11 0C4.92422 0 0 4.92422 0 11C0 17.0758 4.92422 22 11 22C17.0758 22 22 17.0758 22 11ZM5.3582 10.5145C5.0918 10.7809 5.0918 11.2191 5.3582 11.4855L9.82695 15.9543C10.0246 16.152 10.3211 16.2078 10.5746 16.1047C10.8281 16.0016 11 15.748 11 15.4688V12.375H15.4688C16.0402 12.375 16.5 11.9152 16.5 11.3438V10.6562C16.5 10.0848 16.0402 9.625 15.4688 9.625H11V6.53125C11 6.25195 10.8324 6.00273 10.5746 5.89531C10.3168 5.78789 10.0203 5.84805 9.82695 6.0457L5.3582 10.5145Z" fill="white"/>
</svg>
