<svg width="54" height="65" viewBox="0 0 54 65" fill="none" xmlns="http://www.w3.org/2000/svg">
<path d="M46.7299 64.1116C44.7267 64.1116 42.7236 64.1116 40.7113 64.1116C40.3198 64.1116 40.0557 63.9827 39.8008 63.688C35.7762 58.9647 31.7517 54.2506 27.718 49.5273C27.627 49.4261 27.5359 49.3156 27.4449 49.2143C26.9532 48.6619 26.6345 48.6619 26.1519 49.2143C24.1123 51.599 22.0727 53.9928 20.0332 56.3775C17.9663 58.799 15.8993 61.2113 13.8415 63.642C13.5593 63.9734 13.2679 64.1116 12.8309 64.1024C8.87916 64.0839 4.92746 64.0931 0.975758 64.1024C0.611546 64.1024 0.256434 64.1208 0.0743279 63.7064C-0.0986728 63.3105 0.110752 63.0343 0.34749 62.7489C6.57552 55.466 12.7944 48.1831 19.0134 40.891C19.6416 40.1544 19.6507 40.0807 19.0225 39.3442C12.8126 32.0705 6.61194 24.7968 0.402119 17.5231C0.138066 17.2192 -0.144197 16.9246 0.0834352 16.4734C0.292857 16.0407 0.684385 16.0959 1.0577 16.1052C3.06087 16.142 5.06403 16.0223 7.0672 16.1788C11.3558 16.5103 14.8249 18.407 17.5656 21.7216C19.5324 24.097 21.7267 26.2607 23.8027 28.5349C24.5858 29.4004 25.378 30.2474 26.1792 31.0945C26.6709 31.6101 26.9259 31.6101 27.4084 31.0945C30.0672 28.2587 32.7897 25.4781 35.3574 22.5502C36.8506 20.8469 38.3348 19.1804 40.3198 18.0479C42.5506 16.7589 44.9726 16.1696 47.5221 16.1144C49.2156 16.0775 50.9001 16.1144 52.5937 16.1052C52.9579 16.1052 53.3221 16.0867 53.5133 16.4734C53.7137 16.8878 53.486 17.1824 53.2311 17.4862C48.1776 23.4065 43.1242 29.3267 38.0708 35.2377C36.9053 36.6004 35.7398 37.9723 34.5743 39.3442C33.9643 40.0623 33.9643 40.1544 34.547 40.8449C37.834 44.6935 41.121 48.533 44.3989 52.3816C47.3491 55.8343 50.2992 59.2962 53.2493 62.7489C53.4951 63.0343 53.6863 63.3289 53.5224 63.7064C53.3494 64.1024 52.9761 64.0931 52.6119 64.0931C50.6452 64.0931 48.6784 64.0931 46.7117 64.0931L46.7299 64.1116Z" fill="white"/>
<path d="M26.5524 18.1492C21.6264 18.1492 17.5837 14.0796 17.6201 9.08006C17.6656 3.46366 22.2274 -0.0903251 26.78 0.00174699C31.533 0.103026 35.512 4.16341 35.5029 9.10768C35.5029 14.098 31.4784 18.1584 26.5524 18.1492Z" fill="white"/>
</svg>
