<svg width="22" height="22" viewBox="0 0 22 22" fill="none" xmlns="http://www.w3.org/2000/svg">
<path fill-rule="evenodd" clip-rule="evenodd" d="M6.36024 2.39171C7.24996 2.02318 8.20356 1.8335 9.16659 1.8335C10.1296 1.8335 11.0832 2.02318 11.9729 2.39171C12.8627 2.76025 13.6711 3.30042 14.352 3.98138C15.033 4.66234 15.5732 5.47076 15.9417 6.36048C16.3102 7.25021 16.4999 8.2038 16.4999 9.16683C16.4999 10.1299 16.3102 11.0835 15.9417 11.9732C15.5732 12.8629 15.033 13.6713 14.352 14.3523C13.6711 15.0332 12.8627 15.5734 11.9729 15.9419C11.0832 16.3105 10.1296 16.5002 9.16659 16.5002C8.20356 16.5002 7.24996 16.3105 6.36024 15.9419C5.47052 15.5734 4.6621 15.0332 3.98114 14.3523C3.30017 13.6713 2.76 12.8629 2.39147 11.9732C2.02293 11.0835 1.83325 10.1299 1.83325 9.16683C1.83325 8.2038 2.02293 7.25021 2.39147 6.36048C2.76 5.47076 3.30017 4.66234 3.98114 3.98138C4.6621 3.30042 5.47052 2.76025 6.36024 2.39171ZM9.16659 3.66683C8.44431 3.66683 7.72912 3.80909 7.06183 4.08549C6.39454 4.36189 5.78822 4.76702 5.2775 5.27774C4.76678 5.78846 4.36165 6.39478 4.08525 7.06207C3.80885 7.72936 3.66659 8.44456 3.66659 9.16683C3.66659 9.8891 3.80885 10.6043 4.08525 11.2716C4.36165 11.9389 4.76678 12.5452 5.2775 13.0559C5.78822 13.5666 6.39454 13.9718 7.06183 14.2482C7.72912 14.5246 8.44431 14.6668 9.16659 14.6668C9.88886 14.6668 10.6041 14.5246 11.2713 14.2482C11.9386 13.9718 12.5449 13.5666 13.0557 13.0559C13.5664 12.5452 13.9715 11.9389 14.2479 11.2716C14.5243 10.6043 14.6666 9.8891 14.6666 9.16683C14.6666 8.44456 14.5243 7.72936 14.2479 7.06207C13.9715 6.39478 13.5664 5.78846 13.0557 5.27774C12.545 4.76702 11.9386 4.36189 11.2713 4.08549C10.6041 3.80909 9.88886 3.66683 9.16659 3.66683Z" fill="white"/>
<path fill-rule="evenodd" clip-rule="evenodd" d="M5.5 9.16667C5.5 8.66041 5.91041 8.25 6.41667 8.25H11.9167C12.4229 8.25 12.8333 8.66041 12.8333 9.16667C12.8333 9.67293 12.4229 10.0833 11.9167 10.0833H6.41667C5.91041 10.0833 5.5 9.67293 5.5 9.16667Z" fill="white"/>
<path fill-rule="evenodd" clip-rule="evenodd" d="M9.16667 5.5C9.67293 5.5 10.0833 5.91041 10.0833 6.41667V11.9167C10.0833 12.4229 9.67293 12.8333 9.16667 12.8333C8.66041 12.8333 8.25 12.4229 8.25 11.9167V6.41667C8.25 5.91041 8.66041 5.5 9.16667 5.5Z" fill="white"/>
<path fill-rule="evenodd" clip-rule="evenodd" d="M13.1017 13.102C13.4597 12.744 14.0401 12.744 14.3981 13.102L19.8981 18.602C20.2561 18.96 20.2561 19.5404 19.8981 19.8983C19.5401 20.2563 18.9597 20.2563 18.6017 19.8983L13.1017 14.3983C12.7438 14.0404 12.7438 13.46 13.1017 13.102Z" fill="white"/>
</svg>
