<?xml version="1.0" encoding="UTF-8"?>
<svg id="Capa_1" data-name="Capa 1" xmlns="http://www.w3.org/2000/svg" viewBox="0 0 235 80">
  <defs>
    <style>
      .cls-1 {
        fill: #bd0a7d;
      }

      .cls-1, .cls-2 {
        fill-rule: evenodd;
      }

      .cls-3, .cls-2 {
        fill: #0528f2;
      }
    </style>
  </defs>
  <g id="Symbol">
    <path class="cls-2" d="M50.27,14.35c-13.2-4.46-28.05,1.25-34.65,14.01-7.29,14.08-1.78,31.4,12.29,38.68,8.47,4.38,18.1,4.14,26.03.18.19-.09.33-.22.42-.4.23-.44.06-.98-.38-1.21-.27-.14-.57-.13-.82,0-7.83,3.82-16.66,3.86-24.43-.16-13.2-6.83-18.36-23.07-11.52-36.27,6.18-11.94,20.07-17.3,32.44-13.15-.04,1.07.53,2.12,1.55,2.65,1.12.58,2.44.35,3.3-.47,2.16,1.24,4.08,2.73,5.75,4.42.07.07.14.13.24.18.44.23.98.05,1.21-.38.18-.35.11-.77-.16-1.04-1.94-1.91-3.88-3.44-6.19-4.75.21-1.2-.37-2.45-1.51-3.05-1.24-.64-2.73-.29-3.57.76Z"/>
    <path class="cls-1" d="M18.12,16.38h0s-.02.02-.02.02h0c-2.88,2.64-5.36,5.82-7.26,9.49-6.21,11.99-4.6,25.95,2.97,36.09-.04.06-.08.13-.11.2-.73,1.41-.18,3.14,1.23,3.87.82.42,1.75.41,2.52.06,2.32,2.23,4.99,4.17,7.99,5.73,5,2.59,10.35,3.82,15.61,3.82h.02s0,0,0,0c.32,0,.64-.18.8-.49.23-.44.06-.98-.38-1.21-.13-.07-.27-.1-.41-.1h-.02c-4.99,0-10.06-1.17-14.8-3.62-2.82-1.46-5.32-3.27-7.5-5.36l.03-.06c.73-1.41.18-3.14-1.23-3.87-.77-.4-1.63-.41-2.37-.12-7.12-9.59-8.62-22.79-2.76-34.11,1.8-3.48,4.15-6.49,6.88-8.99h0s.01-.01.01-.01c.08-.07.14-.15.19-.25.23-.44.06-.98-.38-1.21-.34-.18-.75-.11-1.02.13Z"/>
    <path class="cls-2" d="M4.47,26.88c-1.06-.02-2.09.54-2.61,1.55-.67,1.3-.25,2.88.92,3.69-4.28,17.31,3.65,35.93,20.18,44.49.65.34,1.31.66,1.97.95h.02s0,.01,0,.01c.43.19.94.02,1.16-.41s.06-.98-.38-1.21l-.05-.02h-.02c-.63-.29-1.26-.6-1.89-.92C8.03,66.85.46,49.12,4.5,32.62c1-.04,1.95-.6,2.45-1.55.65-1.25.29-2.76-.79-3.59.44-1.09.94-2.18,1.49-3.24C13.86,12.23,25.64,4.98,38.19,4h.02c.3-.02.59-.19.74-.48.23-.44.06-.98-.38-1.21-.16-.08-.34-.11-.51-.1C24.9,3.24,12.57,10.84,6.06,23.41c-.59,1.14-1.12,2.3-1.59,3.47Z"/>
  </g>
  <g>
    <path class="cls-3" d="M41.63,22.29c6.42,0,11.35,2.43,14.66,6.58l-5.28,3.63c-2.18-2.69-5.28-4.25-9.38-4.25-7.46,0-11.81,4.97-11.81,12.85s4.35,12.85,11.81,12.85c3.11,0,5.7-.83,7.62-2.28v-6.22h-7.62v-5.96h14.09v14.51c-2.8,3.52-7.67,5.91-14.09,5.91-11.29,0-18.29-7.51-18.29-18.81s6.99-18.81,18.29-18.81Z"/>
    <path class="cls-3" d="M71.32,32.97c8.03,0,13.37,5.34,13.37,13.31s-5.34,13.42-13.37,13.42-13.42-5.39-13.42-13.42,5.39-13.31,13.42-13.31ZM71.26,54c4.35,0,7.2-2.85,7.2-7.67s-2.85-7.67-7.2-7.67-7.15,2.85-7.15,7.67,2.85,7.67,7.15,7.67Z"/>
    <path class="cls-3" d="M87.06,22.97h6.22v36.26h-6.22V22.97Z"/>
    <path class="cls-3" d="M122.45,22.97v23.36c0,8.34-5.96,13.31-13.57,13.31s-13.21-5.34-13.21-13.31,5.39-13.42,12.9-13.42c3.73,0,6.42,1.35,7.67,2.95v-12.9h6.22ZM109.03,53.95c4.35,0,7.2-2.85,7.2-7.67s-2.85-7.67-7.2-7.67-7.15,2.85-7.15,7.67,2.85,7.67,7.15,7.67Z"/>
    <path class="cls-3" d="M145.92,37.01c1.61-2.33,4.3-4.14,8.81-4.14,8.55,0,11.92,6.42,11.92,10.93v15.44h-6.22v-15.28c0-3.68-2.69-5.34-5.7-5.34s-5.7,1.66-5.7,5.34v15.28h-6.22v-15.28c0-3.68-2.69-5.34-5.7-5.34s-5.7,1.66-5.7,5.34v15.28h-6.22v-15.44c0-4.51,3.37-10.93,11.92-10.93,4.51,0,7.2,1.81,8.81,4.14Z"/>
    <path class="cls-3" d="M172.85,22.4c1.92,0,3.42,1.55,3.42,3.42,0,1.97-1.5,3.47-3.42,3.47s-3.42-1.5-3.42-3.47c0-1.87,1.5-3.42,3.42-3.42ZM169.75,33.33h6.22v25.9h-6.22v-25.9Z"/>
    <path class="cls-3" d="M202.64,43.79v15.44h-6.22v-15.28c0-3.68-2.69-5.34-5.7-5.34s-5.7,1.66-5.7,5.34v15.28h-6.22v-15.44c0-4.51,3.37-10.93,11.92-10.93s11.92,6.42,11.92,10.93Z"/>
    <path class="cls-3" d="M231.81,22.97v23.36c0,8.34-5.96,13.31-13.57,13.31s-13.21-5.34-13.21-13.31,5.39-13.42,12.9-13.42c3.73,0,6.42,1.35,7.67,2.95v-12.9h6.22ZM218.39,53.95c4.35,0,7.2-2.85,7.2-7.67s-2.85-7.67-7.2-7.67-7.15,2.85-7.15,7.67,2.85,7.67,7.15,7.67Z"/>
  </g>
</svg>