<svg width="250" height="60" viewBox="0 0 250 60" fill="none" xmlns="http://www.w3.org/2000/svg">
<g clip-path="url(#clip0_1047_2188)">
<path d="M250 58.4072C249.748 58.7997 249.396 58.9228 248.921 58.9151C246.71 58.892 244.491 58.9074 242.28 58.9074C241.5 58.9074 241.278 58.6843 241.278 57.9147C241.278 50.0194 241.278 42.1164 241.278 34.221C241.278 32.5665 241.041 30.9505 240.291 29.45C239.09 27.0567 237.116 25.8024 234.491 25.5485C232.8 25.3792 231.163 25.5638 229.618 26.3026C227.223 27.4415 225.884 29.4192 225.234 31.9355C224.889 33.2591 224.759 34.6135 224.759 35.9755C224.752 43.2399 224.759 50.5119 224.759 57.7762C224.759 58.7381 224.583 58.9151 223.65 58.9151C221.454 58.9151 219.258 58.9151 217.054 58.9151C216.274 58.9151 216.052 58.692 216.052 57.9147C216.052 50.081 216.052 42.2549 216.052 34.4211C216.052 32.8897 215.899 31.3815 215.325 29.9425C214.262 27.2722 212.295 25.8101 209.442 25.5561C206.481 25.2945 203.925 26.1179 201.936 28.4034C200.597 29.9425 200.023 31.8124 199.755 33.7978C199.633 34.7212 199.618 35.6446 199.618 36.5758C199.618 43.6246 199.618 50.6812 199.618 57.7301C199.618 58.7381 199.442 58.9151 198.439 58.9151C196.259 58.9151 194.078 58.9151 191.898 58.9151C191.125 58.9151 190.911 58.6997 190.911 57.9071C190.911 45.0636 190.911 32.2203 190.911 19.3845C190.911 18.5458 191.133 18.3149 191.951 18.3149C194.147 18.3149 196.343 18.3149 198.546 18.3149C199.357 18.3149 199.61 18.5688 199.618 19.3845C199.618 19.9001 199.618 20.4157 199.618 20.9313C199.618 21.2776 199.748 21.5546 200.084 21.6777C200.413 21.8009 200.696 21.7085 200.934 21.4469C203.864 18.1918 207.628 17.1529 211.836 17.2991C214.905 17.4069 217.659 18.338 219.962 20.4465C220.658 21.0852 221.263 21.8086 221.813 22.5781C222.273 23.2322 222.739 23.2399 223.229 22.6012C225.601 19.4692 228.784 17.7993 232.655 17.3992C235.639 17.0914 238.569 17.2991 241.331 18.5535C245.838 20.6081 248.432 24.2095 249.518 28.9882C249.732 29.9271 249.87 30.8736 249.924 31.8355C249.924 31.9124 249.916 32.0048 250.023 32.0356V58.4149L250 58.4072Z" fill="white"/>
<path d="M159.985 60.0001C159.472 59.7692 158.914 59.8231 158.378 59.7231C152.227 58.5611 148.409 54.8673 146.718 48.8804C146.221 47.1336 146.052 45.3329 146.052 43.5245C146.045 35.5291 146.052 27.5338 146.052 19.5384C146.052 18.5149 146.251 18.3071 147.253 18.3071C149.403 18.3071 151.546 18.3071 153.696 18.3071C154.522 18.3071 154.752 18.538 154.752 19.3614C154.752 27.0259 154.752 34.6904 154.752 42.3548C154.752 43.7323 154.905 45.1021 155.387 46.4102C156.527 49.5191 158.83 51.1736 162.02 51.6276C164.231 51.9431 166.404 51.7431 168.455 50.7735C171.331 49.4114 172.923 47.0566 173.566 43.9939C173.833 42.7242 173.941 41.4391 173.941 40.1463C173.941 33.259 173.941 26.3795 173.941 19.4922C173.941 18.5072 174.139 18.3071 175.126 18.3071C177.261 18.3071 179.388 18.3071 181.523 18.3071C182.426 18.3071 182.647 18.5226 182.647 19.4076C182.647 32.2125 182.647 45.0174 182.647 57.83C182.647 58.7227 182.456 58.9151 181.584 58.9151C179.358 58.9151 177.123 58.9151 174.897 58.9151C174.193 58.9151 173.956 58.6765 173.948 57.9608C173.948 57.0451 173.948 56.1371 173.948 55.2213C173.948 54.9751 174.002 54.6981 173.696 54.5903C173.405 54.4903 173.29 54.7365 173.152 54.9135C170.857 57.8377 167.797 59.3306 164.185 59.8154C163.81 59.8693 163.42 59.8154 163.068 60.0078H159.993L159.985 60.0001Z" fill="white"/>
<path d="M60.1531 59.8922C49.3727 59.8922 41.5227 53.7745 39.0437 44.5094C38.4699 42.3547 38.1103 40.1693 38.1026 37.9453C38.0797 29.7037 43.1217 20.808 53.4125 18.0069C57.1921 16.9757 60.9947 16.6602 64.7744 17.8684C70.9182 19.8384 75.1952 23.9169 77.7813 29.8114C78.7683 32.0661 79.3421 34.444 79.5716 36.9065C79.6252 37.4913 79.4339 37.776 78.8677 37.9068C72.6321 39.3382 66.4041 40.7618 60.1684 42.1854C56.6336 42.9934 53.0988 43.7937 49.564 44.6017C48.8065 44.7787 48.6076 45.2404 48.9901 45.9176C50.9335 49.3574 53.9098 51.2581 57.7966 51.6429C61.6145 52.02 65.1799 51.2043 68.3551 48.9726C69.8318 47.9338 70.9106 46.5409 71.6986 44.9172C72.0123 44.2708 72.2648 44.1477 72.9611 44.3709C74.958 45.0019 76.9473 45.6329 78.9442 46.2716C79.7629 46.5332 79.9312 46.9026 79.5793 47.6875C77.1845 53.0511 73.0988 56.5217 67.6129 58.3916C64.7667 59.3613 61.844 59.8845 60.1684 59.8922H60.1531ZM59.2656 25.1404C58.5005 25.1404 57.743 25.225 57.0009 25.3636C56.274 25.5021 55.5548 25.6945 54.8509 25.9253C50.023 27.5567 47.0162 31.5506 46.7866 36.6525C46.7484 37.4682 47.1156 37.7914 47.896 37.6144C50.6887 36.9834 53.489 36.3447 56.2817 35.706C60.4439 34.7518 64.5984 33.8053 68.7606 32.8434C69.4339 32.6895 69.6558 32.2662 69.3651 31.6737C67.2993 27.4798 63.9481 25.2712 59.2732 25.1327L59.2656 25.1404Z" fill="white"/>
<path d="M118.845 58.9074C117.162 58.9074 115.478 58.9074 113.787 58.9074C113.458 58.9074 113.237 58.7997 113.022 58.5534C109.641 54.6057 106.259 50.6658 102.869 46.7181C102.793 46.6334 102.716 46.5411 102.64 46.4564C102.227 45.9947 101.959 45.9947 101.553 46.4564C99.8395 48.4495 98.1257 50.4503 96.4118 52.4434C94.675 54.4672 92.9382 56.4834 91.2091 58.5149C90.9719 58.792 90.727 58.9074 90.3598 58.8997C87.0392 58.8843 83.7186 58.892 80.398 58.8997C80.092 58.8997 79.7936 58.9151 79.6406 58.5688C79.4952 58.2379 79.6712 58.007 79.8701 57.7685C85.1035 51.6815 90.3292 45.5946 95.5549 39.4999C96.0828 38.8843 96.0905 38.8227 95.5625 38.2071C90.3445 32.1279 85.1341 26.0486 79.916 19.9693C79.6941 19.7154 79.457 19.4691 79.6482 19.0921C79.8242 18.7304 80.1532 18.7766 80.4669 18.7843C82.1501 18.815 83.8334 18.715 85.5166 18.8458C89.1203 19.1229 92.0354 20.7081 94.3384 23.4784C95.991 25.4638 97.8349 27.2721 99.5794 29.1729C100.237 29.8962 100.903 30.6042 101.576 31.3122C101.989 31.7431 102.204 31.7431 102.609 31.3122C104.843 28.942 107.131 26.6181 109.289 24.171C110.543 22.7473 111.791 21.3545 113.458 20.408C115.333 19.3306 117.368 18.8381 119.511 18.792C120.934 18.7612 122.349 18.792 123.772 18.7843C124.078 18.7843 124.384 18.7689 124.545 19.0921C124.713 19.4384 124.522 19.6846 124.308 19.9386C120.061 24.8866 115.815 29.8347 111.569 34.775C110.589 35.9139 109.61 37.0605 108.631 38.2071C108.118 38.8074 108.118 38.8843 108.608 39.4615C111.37 42.6781 114.132 45.887 116.886 49.1036C119.365 51.9893 121.844 54.8828 124.323 57.7685C124.53 58.007 124.69 58.2533 124.553 58.5688C124.407 58.8997 124.094 58.892 123.787 58.892C122.135 58.892 120.482 58.892 118.83 58.892L118.845 58.9074Z" fill="white"/>
<path d="M0 30.4808C0 21.2926 0 12.0968 0 2.90863C0 2.09293 0.114767 1.94672 0.902831 1.74665C3.12165 1.18489 5.34047 0.623137 7.56695 0.0613826C8.37796 -0.138694 8.71461 0.122945 8.71461 0.969424C8.71461 10.6885 8.71461 20.4154 8.71461 30.1345C8.71461 37.2218 8.71461 44.3015 8.70696 51.3888C8.70696 51.8274 8.80643 51.9275 9.24254 51.9275C17.4369 51.9121 25.6312 51.9198 33.8256 51.9198C34.736 51.9198 34.8738 52.066 34.8738 52.9894C34.8738 54.8286 34.8738 56.6755 34.8738 58.5146C34.8738 59.1533 34.6442 59.3919 34.0168 59.3919C23.0834 59.3919 12.1423 59.3919 1.20888 59.3919C0.405509 59.3919 0.00765111 58.9687 0.00765111 58.1607C0 48.934 0 39.7074 0 30.4808Z" fill="white"/>
<path d="M130.329 38.6149C130.329 32.2125 130.329 25.81 130.329 19.4076C130.329 18.5149 130.543 18.3071 131.446 18.3071C133.627 18.3071 135.807 18.3071 137.988 18.3071C138.776 18.3071 139.036 18.5688 139.036 19.346C139.036 32.1971 139.036 45.0559 139.036 57.907C139.036 58.6842 138.807 58.9074 138.034 58.9074C135.807 58.9074 133.573 58.9074 131.347 58.9074C130.543 58.9074 130.337 58.6996 130.337 57.8685C130.337 51.4506 130.337 45.0328 130.337 38.6149H130.329Z" fill="white"/>
<path d="M101.89 20.4926C97.7505 20.4926 94.3534 17.0913 94.384 12.9127C94.4222 8.21861 98.2555 5.24824 102.081 5.32519C106.075 5.40984 109.418 8.80345 109.411 12.9358C109.411 17.1066 106.029 20.5003 101.89 20.4926Z" fill="white"/>
</g>
<defs>
<clipPath id="clip0_1047_2188">
<rect width="250" height="60" fill="white"/>
</clipPath>
</defs>
</svg>
