<svg width="460" height="180" viewBox="0 0 460 180" fill="none" xmlns="http://www.w3.org/2000/svg">
<path d="M45.4026 29.468H64.284C64.4861 29.468 64.6505 29.6309 64.6505 29.8316V33.3212C64.6505 33.5219 64.4861 33.6848 64.284 33.6848H45.4026C45.2005 33.6848 45.0361 33.5219 45.0361 33.3212V29.8316C45.0361 29.6309 45.2005 29.468 45.4026 29.468Z" fill="#00236E"/>
<path d="M44.8271 33.1699V1.4725C44.8271 1.27671 44.9603 1.10396 45.1509 1.05625L49.3404 0C49.5754 0 49.7661 0.192494 49.7661 0.429411V33.1699C49.7661 33.4068 49.5754 33.5993 49.3404 33.5993H45.2545C45.0194 33.5993 44.8288 33.4068 44.8288 33.1699H44.8271Z" fill="#00236E"/>
<path d="M72.9021 25.3286C72.6276 25.3912 72.4862 25.7021 72.6227 25.9522C73.3573 27.3079 74.3879 28.2638 75.7159 28.8182C77.2 29.4401 78.8649 29.5405 80.709 29.1209C83.1251 28.5714 84.7834 27.3227 85.6825 25.3764C85.7729 25.1789 85.9931 25.0802 86.1985 25.1444L89.8867 26.3174C90.1283 26.3948 90.2516 26.6646 90.1513 26.8982C88.6392 30.4075 85.8123 32.6319 81.6721 33.5763C78.0448 34.4022 74.8645 33.9547 72.1279 32.2321C69.393 30.5112 67.6394 27.9446 66.8669 24.5323C66.1076 21.181 66.5727 18.1257 68.2606 15.365C69.9486 12.6043 72.5175 10.8323 75.9673 10.0459C79.238 9.30225 82.1833 9.84189 84.8015 11.6681C87.4197 13.4943 89.1011 16.0544 89.8473 19.3465C89.9442 19.7792 90.0281 20.3419 90.0938 21.0312C90.1152 21.2451 89.9738 21.4426 89.7634 21.4903L72.907 25.3286H72.9054H72.9021ZM71.9521 21.3916L84.0323 18.6407C84.3019 18.5798 84.4416 18.2804 84.3199 18.032C83.5951 16.5463 82.6057 15.5048 81.3566 14.9093C79.9727 14.2495 78.4918 14.0982 76.9157 14.4568C75.1324 14.8632 73.7567 15.6957 72.7919 16.9543C71.9274 18.0813 71.4738 19.4173 71.4311 20.9621C71.4229 21.2418 71.6809 21.4557 71.9521 21.3932V21.3916Z" fill="#00236E"/>
<path d="M118.986 32.9955V10.8405C118.986 10.6036 119.177 10.4111 119.412 10.4111H123.498C123.733 10.4111 123.924 10.6036 123.924 10.8405V32.9955C123.924 33.2324 123.733 33.4249 123.498 33.4249H119.412C119.177 33.4249 118.986 33.2324 118.986 32.9955Z" fill="#00236E"/>
<path d="M144.242 10.4111H148.328C148.563 10.4111 148.754 10.6036 148.754 10.8405V32.9954C148.754 33.2324 148.563 33.4248 148.328 33.4248H144.242C144.007 33.4248 143.817 33.2324 143.817 32.9954V31.1626C143.817 30.9553 143.557 30.8714 143.432 31.0343C141.93 33.0267 139.695 34.0204 136.728 34.0204C134.105 34.0204 131.986 33.1781 130.371 31.4884C128.755 29.8004 127.946 27.4838 127.946 24.5388V10.8388C127.946 10.6019 128.137 10.4094 128.372 10.4094H132.458C132.693 10.4094 132.884 10.6019 132.884 10.8388V24.0338C132.884 25.753 133.34 27.0709 134.256 27.9922C135.171 28.9119 136.421 29.3726 138.007 29.3726C139.744 29.3726 141.147 28.828 142.214 27.7389C143.281 26.6497 143.815 24.9847 143.815 22.7455V10.8388C143.815 10.6019 144.006 10.4094 144.241 10.4094L144.242 10.4111Z" fill="#00236E"/>
<path d="M178.424 9.81389C181.016 9.81389 183.103 10.6579 184.691 12.3459C186.277 14.034 187.068 16.3044 187.068 19.1573V32.9971C187.068 33.234 186.877 33.4265 186.642 33.4265H182.556C182.321 33.4265 182.129 33.234 182.129 32.9971V19.4797C182.129 17.8838 181.733 16.6499 180.94 15.7746C180.147 14.901 179.065 14.4617 177.693 14.4617C176.168 14.4617 174.956 14.9685 174.056 15.9803C173.155 16.9938 172.706 18.5123 172.706 20.536V32.9938C172.706 33.2308 172.516 33.4232 172.281 33.4232H168.195C167.96 33.4232 167.769 33.2308 167.769 32.9938V19.4765C167.769 17.8806 167.394 16.6466 166.648 15.7713C165.9 14.8977 164.84 14.4584 163.469 14.4584C161.975 14.4584 160.756 14.9718 159.811 16C158.866 17.0283 158.392 18.5387 158.392 20.5343V32.9922C158.392 33.2291 158.202 33.4216 157.967 33.4216H153.881C153.646 33.4216 153.455 33.2291 153.455 32.9922V10.8372C153.455 10.6003 153.646 10.4078 153.881 10.4078H157.967C158.202 10.4078 158.392 10.6003 158.392 10.8372V11.9083C158.392 12.2982 158.872 12.4891 159.132 12.1995C160.555 10.6053 162.49 9.80731 164.934 9.80731C167.636 9.80731 169.689 10.8405 171.092 12.9053C171.258 13.1488 171.612 13.1554 171.786 12.9185C173.308 10.8438 175.522 9.80566 178.427 9.80566L178.424 9.81389Z" fill="#00236E"/>
<path d="M107.072 7.3361C107.072 9.70691 105.162 11.6286 102.807 11.6286C100.452 11.6286 98.542 9.70691 98.542 7.3361C98.542 4.9653 100.452 3.04529 102.807 3.04529C105.162 3.04529 107.072 4.96694 107.072 7.3361Z" fill="#F24405"/>
<path d="M99.3529 21.8457L90.1949 11.2125C90.0174 11.0052 90.1637 10.6843 90.4349 10.6843H92.7539C95.2587 10.6843 97.2705 11.6912 98.7858 13.7034C98.7924 13.7116 98.799 13.7198 98.8055 13.728L102.693 17.8691C102.818 18.0024 103.028 18.0024 103.153 17.8691L107.055 13.728C107.055 13.728 107.069 13.7116 107.076 13.7017C108.581 11.6896 110.587 10.6843 113.091 10.6843H115.411C115.682 10.6843 115.828 11.0068 115.65 11.2125L106.493 21.8457C106.389 21.9658 106.389 22.1435 106.493 22.2636L115.65 32.8969C115.828 33.1042 115.683 33.425 115.411 33.425H109.471C109.379 33.425 109.292 33.3855 109.231 33.3148L103.163 26.2731C103.036 26.1267 102.809 26.1267 102.684 26.2731L96.6163 33.3148C96.5571 33.3839 96.47 33.425 96.3764 33.425H90.4365C90.1653 33.425 90.019 33.1025 90.1965 32.8969L99.3545 22.2636C99.458 22.1435 99.458 21.9658 99.3545 21.8457H99.3529Z" fill="#F24405"/>
<path d="M459.549 147.635C454.527 151.076 449.133 152.89 443.367 153.076C437.787 153.076 433.369 151.355 430.114 147.914C426.859 144.473 425.231 139.311 425.231 132.429V88.9039H414.768L414.629 81.6497H425.231V62.8167H434.578V81.6497L458.294 81.5102V88.9039H434.578V130.895C434.578 139.916 437.926 144.426 444.622 144.426C448.342 144.426 452.388 143.124 456.759 140.52L459.549 147.635Z" fill="#F24405"/>
<path d="M369.687 79.2781C378.429 79.2781 385.265 81.8357 390.194 86.9509C395.216 91.973 397.727 98.9017 397.727 107.737V152.657H388.241V109.969C388.241 103.087 386.334 97.6927 382.521 93.7865C378.708 89.8804 373.407 87.9274 366.618 87.9274C358.527 88.0204 352.156 90.7175 347.506 96.0186C342.949 101.227 340.67 108.155 340.67 116.805V152.657H331.323V49.1453H340.67V96.8556C345.599 85.3233 355.271 79.4641 369.687 79.2781Z" fill="#F24405"/>
<path d="M305.27 79.5571V144.984C305.27 152.053 303.782 158.237 300.806 163.538C297.829 168.84 293.551 172.885 287.971 175.675C282.484 178.558 276.113 180 268.859 180C258.071 180 248.073 176.28 238.866 168.84L243.33 162.143C247.05 165.399 250.956 167.863 255.048 169.537C259.14 171.211 263.604 172.048 268.441 172.048C276.811 172.048 283.46 169.584 288.39 164.655C293.412 159.818 295.923 153.308 295.923 145.124V133.266C293.319 138.381 289.599 142.38 284.763 145.263C279.926 148.147 274.346 149.588 268.022 149.588C261.512 149.588 255.699 148.1 250.584 145.124C245.562 142.055 241.609 137.87 238.726 132.569C235.936 127.174 234.541 121.083 234.541 114.294C234.541 107.504 235.936 101.459 238.726 96.1581C241.609 90.8569 245.608 86.7183 250.723 83.7422C255.839 80.7661 261.651 79.2781 268.162 79.2781C274.486 79.2781 280.019 80.7196 284.763 83.6027C289.506 86.3928 293.226 90.3919 295.923 95.6V79.5571H305.27ZM269.696 142.055C274.718 142.055 279.229 140.892 283.228 138.567C287.227 136.149 290.343 132.848 292.575 128.663C294.807 124.477 295.923 119.781 295.923 114.573C295.923 109.271 294.807 104.528 292.575 100.343C290.343 96.1581 287.227 92.903 283.228 90.5779C279.229 88.1598 274.718 86.9508 269.696 86.9508C264.674 86.9508 260.163 88.1598 256.164 90.5779C252.165 92.903 249.003 96.1581 246.678 100.343C244.446 104.528 243.33 109.271 243.33 114.573C243.33 119.874 244.446 124.617 246.678 128.802C249.003 132.894 252.119 136.149 256.025 138.567C260.024 140.892 264.581 142.055 269.696 142.055Z" fill="#F24405"/>
<path d="M205.564 79.5571H214.91V152.657H205.564V79.5571ZM210.307 51.9353C212.167 51.9353 213.701 52.5863 214.91 53.8884C216.119 55.0974 216.724 56.6319 216.724 58.492C216.724 60.3521 216.073 61.9331 214.771 63.2351C213.562 64.5372 212.074 65.1882 210.307 65.1882C208.447 65.1882 206.866 64.5372 205.564 63.2351C204.355 61.9331 203.75 60.3521 203.75 58.492C203.75 56.6319 204.355 55.0974 205.564 53.8884C206.866 52.5863 208.447 51.9353 210.307 51.9353Z" fill="#F24405"/>
<path d="M180.701 92.5309C177.911 90.7639 174.796 89.4153 171.355 88.4853C167.914 87.4623 164.519 86.9508 161.171 86.9508C156.521 86.9508 152.754 87.8808 149.871 89.7409C147.081 91.5079 145.686 94.205 145.686 97.8321C145.686 100.343 146.43 102.389 147.918 103.97C149.499 105.551 151.406 106.853 153.638 107.876C155.963 108.806 159.171 109.876 163.263 111.085C168.286 112.573 172.378 114.061 175.54 115.549C178.702 116.944 181.399 119.037 183.631 121.827C185.863 124.524 186.979 128.104 186.979 132.569C186.979 139.172 184.468 144.24 179.446 147.775C174.424 151.216 168.146 152.936 160.613 152.936C155.312 152.936 150.197 152.053 145.267 150.286C140.338 148.519 136.2 146.007 132.852 142.752L136.618 136.056C139.78 138.939 143.5 141.218 147.779 142.892C152.15 144.566 156.567 145.403 161.031 145.403C165.961 145.403 169.96 144.38 173.029 142.334C176.191 140.288 177.772 137.312 177.772 133.406C177.772 130.709 176.981 128.523 175.4 126.849C173.819 125.082 171.82 123.733 169.402 122.803C167.077 121.78 163.821 120.618 159.636 119.316C154.707 117.828 150.708 116.386 147.639 114.991C144.57 113.596 141.966 111.596 139.827 108.992C137.688 106.295 136.618 102.808 136.618 98.5296C136.618 92.1124 138.99 87.2763 143.733 84.0212C148.569 80.7661 154.568 79.1385 161.729 79.1385C165.914 79.1385 169.96 79.6966 173.866 80.8126C177.772 81.9286 181.26 83.4632 184.329 85.4162L180.701 92.5309Z" fill="#F24405"/>
<path d="M94.511 76.209C102.788 76.209 109.391 78.8131 114.321 84.0212C119.343 89.2294 121.854 96.2511 121.854 105.086V152.657H97.1616V112.201C97.1616 107.923 95.999 104.575 93.674 102.157C91.3489 99.6457 88.2333 98.3901 84.3272 98.3901C80.2351 98.4831 76.8405 99.8317 74.1434 102.436C71.5393 105.04 70.0048 108.481 69.5397 112.759V152.657H44.708V77.1855H69.5397V89.4619C72.2368 85.0907 75.6779 81.7891 79.8631 79.5571C84.1412 77.325 89.0238 76.209 94.511 76.209Z" fill="#00236E"/>
<path d="M0.976529 77.1856H25.6688V152.657H0.976529V77.1856ZM13.1134 42.4491C16.9265 42.4491 20.0421 43.7046 22.4602 46.2157C24.9712 48.6338 26.2268 51.7959 26.2268 55.702C26.2268 59.5151 24.9712 62.6772 22.4602 65.1883C20.0421 67.6993 16.9265 68.9549 13.1134 68.9549C9.30028 68.9549 6.13818 67.6993 3.62711 65.1883C1.20904 62.6772 0 59.5151 0 55.702C0 51.7959 1.20904 48.6338 3.62711 46.2157C6.13818 43.7046 9.30028 42.4491 13.1134 42.4491Z" fill="#00236E"/>
</svg>
