<svg width="168" height="56" viewBox="0 0 168 56" fill="none" xmlns="http://www.w3.org/2000/svg">
<path fill-rule="evenodd" clip-rule="evenodd" d="M130.277 8.13369C127.822 7.27226 125.061 8.37556 123.835 10.8373C122.48 13.5541 123.503 16.8971 126.12 18.3036C127.694 19.1501 129.487 19.102 130.961 18.3383C130.996 18.3201 131.022 18.2969 131.039 18.2605C131.08 18.176 131.049 18.0716 130.967 18.0269C130.918 18.0004 130.861 18.0021 130.816 18.0269C129.361 18.7641 127.719 18.7724 126.273 17.9971C123.82 16.6784 122.86 13.5441 124.13 10.998C125.28 8.69197 127.862 7.65825 130.161 8.46004C130.154 8.66712 130.26 8.86922 130.45 8.97193C130.657 9.08293 130.903 9.03985 131.064 8.88082C131.465 9.11937 131.822 9.40762 132.134 9.73397C132.148 9.74722 132.161 9.75882 132.178 9.7671C132.259 9.81183 132.36 9.77704 132.402 9.69255C132.435 9.62463 132.422 9.54346 132.372 9.49211C132.01 9.12434 131.65 8.82781 131.22 8.57435C131.26 8.34243 131.152 8.10056 130.939 7.98626C130.708 7.86201 130.431 7.92993 130.275 8.13369H130.277Z" fill="#00236E"/>
<path fill-rule="evenodd" clip-rule="evenodd" d="M124.3 8.52467L124.296 8.52798C123.76 9.03655 123.3 9.65115 122.947 10.3602C121.793 12.6728 122.092 15.3697 123.498 17.3245C123.491 17.3378 123.483 17.3494 123.476 17.3626C123.34 17.6343 123.443 17.9689 123.705 18.1097C123.858 18.1909 124.031 18.1893 124.175 18.1213C124.605 18.5521 125.103 18.9264 125.661 19.2263C126.59 19.7266 127.585 19.9635 128.564 19.9635H128.567C128.627 19.9635 128.685 19.9287 128.715 19.8691C128.757 19.7846 128.725 19.6802 128.644 19.6355C128.619 19.6222 128.592 19.6156 128.567 19.6156H128.564C127.636 19.6156 126.693 19.3903 125.812 18.9165C125.289 18.6349 124.823 18.2853 124.418 17.8828L124.424 17.8712C124.56 17.5995 124.457 17.2649 124.195 17.1241C124.052 17.0479 123.891 17.0446 123.754 17.1009C122.429 15.2488 122.152 12.7026 123.241 10.5176C123.576 9.84663 124.013 9.26351 124.521 8.78144L124.524 8.77813C124.539 8.76487 124.55 8.74831 124.559 8.73008C124.602 8.6456 124.569 8.54123 124.487 8.4965C124.424 8.46172 124.348 8.47497 124.298 8.52301L124.3 8.52467Z" fill="#F24405"/>
<path fill-rule="evenodd" clip-rule="evenodd" d="M121.762 10.5507C121.565 10.5457 121.372 10.655 121.276 10.8505C121.152 11.1023 121.23 11.4055 121.449 11.5612C120.654 14.9026 122.128 18.4957 125.2 20.1474C125.321 20.212 125.444 20.2733 125.567 20.3312H125.57V20.3329C125.65 20.371 125.746 20.3362 125.786 20.255C125.826 20.1739 125.796 20.0662 125.715 20.0215L125.706 20.0165H125.703C125.585 19.9602 125.467 19.9005 125.351 19.8392C122.421 18.2655 121.014 14.8429 121.766 11.6573C121.952 11.6507 122.129 11.543 122.221 11.3574C122.34 11.1156 122.274 10.8257 122.075 10.665C122.156 10.4546 122.249 10.2442 122.352 10.0388C123.507 7.72286 125.697 6.32304 128.03 6.13253H128.034C128.09 6.12756 128.143 6.09443 128.17 6.03976C128.213 5.95527 128.18 5.85091 128.098 5.80618C128.069 5.78961 128.035 5.78464 128.004 5.78796C125.559 5.98675 123.266 7.45284 122.055 9.87975C121.945 10.1001 121.847 10.3237 121.759 10.549L121.762 10.5507Z" fill="#00236E"/>
<path d="M128.671 9.66608C129.866 9.66608 130.781 10.1366 131.397 10.9367L130.414 11.6374C130.009 11.1173 129.431 10.8174 128.671 10.8174C127.283 10.8174 126.475 11.7766 126.475 13.2973C126.475 14.8181 127.283 15.7773 128.671 15.7773C129.249 15.7773 129.73 15.6166 130.087 15.3366V14.1372H128.671V12.9876H131.29V15.7872C130.771 16.4664 129.865 16.9269 128.671 16.9269C126.571 16.9269 125.271 15.4774 125.271 13.2973C125.271 11.1173 126.571 9.66773 128.671 9.66773V9.66608Z" fill="#00236E"/>
<path d="M134.19 11.7269C135.684 11.7269 136.675 12.7573 136.675 14.2963C136.675 15.8352 135.682 16.8855 134.19 16.8855C132.698 16.8855 131.695 15.8452 131.695 14.2963C131.695 12.7473 132.698 11.7269 134.19 11.7269ZM134.182 15.7855C134.99 15.7855 135.521 15.2355 135.521 14.3062C135.521 13.3768 134.992 12.8268 134.182 12.8268C133.372 12.8268 132.852 13.3768 132.852 14.3062C132.852 15.2355 133.382 15.7855 134.182 15.7855Z" fill="#00236E"/>
<path d="M137.117 9.79694H138.273V16.7961H137.117V9.79694Z" fill="#00236E"/>
<path d="M143.699 9.79694V14.3062C143.699 15.9164 142.591 16.8756 141.175 16.8756C139.76 16.8756 138.719 15.8452 138.719 14.3062C138.719 12.7672 139.721 11.7169 141.117 11.7169C141.811 11.7169 142.312 11.977 142.543 12.2868V9.79694H143.699ZM141.204 15.7756C142.012 15.7756 142.543 15.2256 142.543 14.2963C142.543 13.3669 142.014 12.8169 141.204 12.8169C140.394 12.8169 139.874 13.3669 139.874 14.2963C139.874 15.2256 140.404 15.7756 141.204 15.7756Z" fill="#00236E"/>
<path d="M148.063 12.5055C148.361 12.0549 148.863 11.7054 149.701 11.7054C151.289 11.7054 151.917 12.9445 151.917 13.8159V16.7961H150.762V13.8457C150.762 13.135 150.26 12.8153 149.703 12.8153C149.145 12.8153 148.644 13.135 148.644 13.8457V16.7961H147.488V13.8457C147.488 13.135 146.987 12.8153 146.429 12.8153C145.871 12.8153 145.37 13.135 145.37 13.8457V16.7961H144.215V13.8159C144.215 12.9462 144.841 11.7054 146.431 11.7054C147.269 11.7054 147.77 12.0549 148.069 12.5055H148.063Z" fill="#00236E"/>
<path d="M153.069 9.68597C153.426 9.68597 153.705 9.98582 153.705 10.3453C153.705 10.7247 153.426 11.0146 153.069 11.0146C152.712 11.0146 152.434 10.7247 152.434 10.3453C152.434 9.98582 152.712 9.68597 153.069 9.68597ZM152.492 11.7965H153.647V16.7961H152.492V11.7965Z" fill="#00236E"/>
<path d="M158.608 13.8159V16.7961H157.453V13.8457C157.453 13.135 156.952 12.8153 156.394 12.8153C155.836 12.8153 155.335 13.135 155.335 13.8457V16.7961H154.18V13.8159C154.18 12.9462 154.805 11.7054 156.396 11.7054C157.986 11.7054 158.612 12.9445 158.612 13.8159H158.608Z" fill="#00236E"/>
<path d="M164.031 9.79694V14.3062C164.031 15.9164 162.923 16.8756 161.507 16.8756C160.092 16.8756 159.051 15.8452 159.051 14.3062C159.051 12.7672 160.053 11.7169 161.449 11.7169C162.143 11.7169 162.645 11.977 162.875 12.2868V9.79694H164.031ZM161.536 15.7756C162.344 15.7756 162.875 15.2256 162.875 14.2963C162.875 13.3669 162.346 12.8169 161.536 12.8169C160.726 12.8169 160.206 13.3669 160.206 14.2963C160.206 15.2256 160.736 15.7756 161.536 15.7756Z" fill="#00236E"/>
<path d="M11.4929 43.787H30.7454C30.9516 43.787 31.1191 43.9415 31.1191 44.1319V47.4421C31.1191 47.6325 30.9516 47.787 30.7454 47.787H11.4929C11.2867 47.787 11.1191 47.6325 11.1191 47.4421V44.1319C11.1191 43.9415 11.2867 43.787 11.4929 43.787Z" fill="#00236E"/>
<path d="M11.1191 47.3525V15.277C11.1191 15.0789 11.2539 14.9041 11.4469 14.8558L15.6882 13.787C15.9261 13.787 16.1191 13.9818 16.1191 14.2215V47.3525C16.1191 47.5922 15.9261 47.787 15.6882 47.787H11.5518C11.3138 47.787 11.1208 47.5922 11.1208 47.3525H11.1191Z" fill="#00236E"/>
<path d="M39.5959 39.8721C39.3176 39.9365 39.1743 40.257 39.3126 40.5147C40.0574 41.9121 41.1022 42.8973 42.4486 43.4688C43.9532 44.1098 45.6412 44.2132 47.5108 43.7808C49.9602 43.2144 51.6415 41.9273 52.553 39.9212C52.6446 39.7177 52.8679 39.616 53.0762 39.6821L56.8154 40.8912C57.0603 40.9709 57.1853 41.249 57.0836 41.4898C55.5506 45.1069 52.6846 47.3996 48.4872 48.373C44.8097 49.2242 41.5854 48.763 38.811 46.9875C36.0383 45.2137 34.2604 42.5683 33.4772 39.0513C32.7074 35.597 33.179 32.448 34.8903 29.6025C36.6015 26.757 39.206 24.9306 42.7035 24.12C46.0194 23.3535 49.0054 23.9098 51.6598 25.7921C54.3143 27.6744 56.0189 30.313 56.7754 33.7062C56.8737 34.1522 56.9587 34.7322 57.0253 35.4427C57.047 35.6631 56.9037 35.8666 56.6904 35.9158L39.6009 39.8721H39.5992H39.5959ZM38.6328 35.8141L50.88 32.9787C51.1533 32.916 51.2949 32.6074 51.1716 32.3513C50.4368 30.82 49.4337 29.7466 48.1673 29.1327C46.7643 28.4527 45.2629 28.2967 43.665 28.6664C41.857 29.0853 40.4623 29.9433 39.4842 31.2406C38.6078 32.4022 38.1479 33.7791 38.1045 35.3715C38.0962 35.6598 38.3578 35.8802 38.6328 35.8158V35.8141Z" fill="#00236E"/>
<path d="M86.1191 47.3578V25.2161C86.1191 24.9794 86.3122 24.787 86.5502 24.787H90.6881C90.9261 24.787 91.1191 24.9794 91.1191 25.2161V47.3578C91.1191 47.5946 90.9261 47.787 90.6881 47.787H86.5502C86.3122 47.787 86.1191 47.5946 86.1191 47.3578Z" fill="#00236E"/>
<path d="M111.566 24.7887H115.69C115.927 24.7887 116.119 24.9843 116.119 25.2251V47.7451C116.119 47.9859 115.927 48.1816 115.69 48.1816H111.566C111.329 48.1816 111.136 47.9859 111.136 47.7451V45.8821C111.136 45.6714 110.874 45.5861 110.748 45.7517C109.232 47.7769 106.976 48.787 103.982 48.787C101.335 48.787 99.1964 47.9307 97.5658 46.2132C95.9353 44.4974 95.1191 42.1427 95.1191 39.1492V25.2235C95.1191 24.9827 95.3116 24.787 95.5488 24.787H99.6725C99.9097 24.787 100.102 24.9827 100.102 25.2235V38.6358C100.102 40.3834 100.563 41.723 101.487 42.6595C102.411 43.5943 103.672 44.0626 105.272 44.0626C107.026 44.0626 108.442 43.509 109.519 42.4019C110.595 41.2948 111.135 39.6024 111.135 37.3263V25.2235C111.135 24.9827 111.327 24.787 111.564 24.787L111.566 24.7887Z" fill="#00236E"/>
<path d="M146.376 23.7953C148.998 23.7953 151.109 24.6529 152.715 26.368C154.319 28.0831 155.119 30.39 155.119 33.2887V47.3507C155.119 47.5914 154.926 47.787 154.689 47.787H150.556C150.318 47.787 150.123 47.5914 150.123 47.3507V33.6163C150.123 31.9948 149.723 30.7411 148.921 29.8518C148.118 28.9641 147.024 28.5178 145.636 28.5178C144.093 28.5178 142.868 29.0327 141.957 30.0607C141.046 31.0905 140.592 32.6334 140.592 34.6895V47.3473C140.592 47.5881 140.399 47.7836 140.162 47.7836H136.029C135.791 47.7836 135.598 47.5881 135.598 47.3473V33.613C135.598 31.9915 135.219 30.7377 134.464 29.8484C133.708 28.9608 132.635 28.5144 131.249 28.5144C129.738 28.5144 128.504 29.036 127.548 30.0808C126.592 31.1256 126.113 32.6601 126.113 34.6879V47.3457C126.113 47.5864 125.92 47.782 125.683 47.782H121.55C121.312 47.782 121.119 47.5864 121.119 47.3457V24.8351C121.119 24.5944 121.312 24.3988 121.55 24.3988H125.683C125.92 24.3988 126.113 24.5944 126.113 24.8351V25.9234C126.113 26.3195 126.599 26.5135 126.861 26.2193C128.301 24.5994 130.258 23.7887 132.73 23.7887C135.463 23.7887 137.54 24.8385 138.96 26.9364C139.127 27.1838 139.485 27.1905 139.661 26.9498C141.201 24.8418 143.44 23.787 146.379 23.787L146.376 23.7953Z" fill="#00236E"/>
<path d="M74.1191 21.2861C74.1191 23.772 72.1041 25.787 69.6191 25.787C67.1342 25.787 65.1191 23.772 65.1191 21.2861C65.1191 18.8002 67.1342 16.787 69.6191 16.787C72.1041 16.787 74.1191 18.8019 74.1191 21.2861Z" fill="#F24405"/>
<path d="M66.495 36.0757L57.198 25.3211C57.0178 25.1115 57.1663 24.787 57.4416 24.787H59.7959C62.3387 24.787 64.381 25.8054 65.9193 27.8405C65.926 27.8488 65.9327 27.8571 65.9394 27.8654L69.8854 32.0537C70.0122 32.1885 70.2258 32.1885 70.3526 32.0537L74.3136 27.8654C74.3136 27.8654 74.3286 27.8488 74.3353 27.8388C75.8637 25.8037 77.8993 24.787 80.4421 24.787H82.7963C83.0716 24.787 83.2201 25.1131 83.0399 25.3211L73.743 36.0757C73.6379 36.1971 73.6379 36.3768 73.743 36.4983L83.0399 47.2528C83.2201 47.4625 83.0733 47.787 82.7963 47.787H76.7663C76.6729 47.787 76.5845 47.747 76.5227 47.6755L70.3626 40.5535C70.2341 40.4054 70.0039 40.4054 69.877 40.5535L63.7169 47.6755C63.6568 47.7454 63.5684 47.787 63.4733 47.787H57.4433C57.168 47.787 57.0195 47.4608 57.1997 47.2528L66.4966 36.4983C66.6018 36.3768 66.6018 36.1971 66.4966 36.0757H66.495Z" fill="#F24405"/>
</svg>
