<svg width="372" height="41" viewBox="0 0 372 41" fill="none" xmlns="http://www.w3.org/2000/svg">
<path d="M357.383 12.15C361.783 12.15 365.167 13.45 367.533 16.05C369.9 18.65 371.083 22.2167 371.083 26.75C371.083 27.45 371.067 27.9834 371.033 28.35H352.233C352.667 29.8834 353.417 31.0667 354.483 31.9C355.55 32.7 356.85 33.1 358.383 33.1C359.55 33.1 360.667 32.8667 361.733 32.4C362.833 31.9334 363.833 31.25 364.733 30.35L369.383 35C367.983 36.5667 366.283 37.7667 364.283 38.6C362.317 39.4 360.083 39.8 357.583 39.8C354.683 39.8 352.15 39.2334 349.983 38.1C347.817 36.9667 346.15 35.3667 344.983 33.3C343.85 31.2334 343.283 28.8334 343.283 26.1C343.283 23.3334 343.867 20.9 345.033 18.8C346.2 16.6667 347.85 15.0334 349.983 13.9C352.117 12.7334 354.583 12.15 357.383 12.15ZM362.433 23.6C362.433 22.0334 361.967 20.7834 361.033 19.85C360.133 18.8834 358.933 18.4 357.433 18.4C356.033 18.4 354.85 18.8667 353.883 19.8C352.95 20.7334 352.333 22 352.033 23.6H362.433Z" fill="#00236E"/>
<path d="M341.405 38.1C340.405 38.6667 339.255 39.1167 337.955 39.45C336.655 39.75 335.338 39.9 334.005 39.9C331.338 39.9 329.171 39.1333 327.505 37.6C325.871 36.0667 325.055 33.95 325.055 31.25V19.65H321.305V13.75H325.055V6.25H333.905V13.75H340.905V19.65H333.905V29.85C333.905 31.75 334.688 32.7 336.255 32.7C337.221 32.7 338.371 32.4 339.705 31.8L341.405 38.1Z" fill="#00236E"/>
<path d="M307.963 12.1C310.93 12.1 313.297 13.0333 315.063 14.9C316.863 16.7666 317.763 19.2833 317.763 22.45V39.5H308.913V25C308.913 23.4666 308.497 22.2666 307.663 21.4C306.83 20.5 305.713 20.05 304.313 20.05C302.847 20.0833 301.63 20.5666 300.663 21.5C299.73 22.4333 299.18 23.6666 299.013 25.2V39.5H290.113V12.45H299.013V16.85C299.98 15.2833 301.213 14.1 302.713 13.3C304.247 12.5 305.997 12.1 307.963 12.1Z" fill="#00236E"/>
<path d="M271.885 12.15C276.285 12.15 279.668 13.45 282.035 16.05C284.402 18.65 285.585 22.2167 285.585 26.75C285.585 27.45 285.568 27.9834 285.535 28.35H266.735C267.168 29.8834 267.918 31.0667 268.985 31.9C270.052 32.7 271.352 33.1 272.885 33.1C274.052 33.1 275.168 32.8667 276.235 32.4C277.335 31.9334 278.335 31.25 279.235 30.35L283.885 35C282.485 36.5667 280.785 37.7667 278.785 38.6C276.818 39.4 274.585 39.8 272.085 39.8C269.185 39.8 266.652 39.2334 264.485 38.1C262.318 36.9667 260.652 35.3667 259.485 33.3C258.352 31.2334 257.785 28.8334 257.785 26.1C257.785 23.3334 258.368 20.9 259.535 18.8C260.702 16.6667 262.352 15.0334 264.485 13.9C266.618 12.7334 269.085 12.15 271.885 12.15ZM276.935 23.6C276.935 22.0334 276.468 20.7834 275.535 19.85C274.635 18.8834 273.435 18.4 271.935 18.4C270.535 18.4 269.352 18.8667 268.385 19.8C267.452 20.7334 266.835 22 266.535 23.6H276.935Z" fill="#00236E"/>
<path d="M244.313 12.45H253.163V39.5H244.313V12.45ZM248.663 0C250.03 0 251.146 0.45 252.013 1.35C252.913 2.21667 253.363 3.35 253.363 4.75C253.363 6.11667 252.913 7.25 252.013 8.15C251.146 9.05 250.03 9.5 248.663 9.5C247.296 9.5 246.163 9.05 245.263 8.15C244.396 7.25 243.963 6.11667 243.963 4.75C243.963 3.35 244.396 2.21667 245.263 1.35C246.163 0.45 247.296 0 248.663 0Z" fill="#00236E"/>
<path d="M228.352 2.40002H237.252V39.5H228.352V2.40002Z" fill="#00236E"/>
<path d="M218.832 16.35C217.699 14.9167 216.349 13.7834 214.782 12.95C213.216 12.0834 211.666 11.65 210.132 11.65C208.366 11.65 206.749 12.1 205.282 13C203.849 13.8667 202.716 15.0834 201.882 16.65C201.049 18.1834 200.632 19.9 200.632 21.8C200.632 23.7 201.049 25.4334 201.882 27C202.716 28.5334 203.849 29.75 205.282 30.65C206.749 31.5167 208.366 31.95 210.132 31.95C211.566 31.95 213.066 31.5834 214.632 30.85C216.199 30.1167 217.599 29.1167 218.832 27.85L224.182 33.6C222.282 35.6 220.016 37.2 217.382 38.4C214.782 39.5667 212.199 40.15 209.632 40.15C206.166 40.15 203.032 39.35 200.232 37.75C197.432 36.15 195.232 33.9667 193.632 31.2C192.032 28.4334 191.232 25.3334 191.232 21.9C191.232 18.5 192.049 15.4334 193.682 12.7C195.316 9.96669 197.549 7.81669 200.382 6.25002C203.249 4.68336 206.449 3.90002 209.982 3.90002C212.582 3.90002 215.149 4.45002 217.682 5.55002C220.216 6.61669 222.366 8.08336 224.132 9.95002L218.832 16.35Z" fill="#00236E"/>
<path d="M169.541 2.40002H174.191V39.5H169.541V2.40002Z" fill="#00236E"/>
<path d="M150.495 12.9C154.595 12.9 157.695 14.1167 159.795 16.55C161.895 18.95 162.945 22.3 162.945 26.6C162.945 27.2667 162.928 27.7667 162.895 28.1H141.995C142.362 30.4667 143.345 32.35 144.945 33.75C146.578 35.15 148.578 35.85 150.945 35.85C152.512 35.85 153.962 35.5667 155.295 35C156.662 34.4334 157.845 33.6334 158.845 32.6L161.395 35.25C160.095 36.65 158.528 37.7334 156.695 38.5C154.862 39.2667 152.828 39.65 150.595 39.65C147.995 39.65 145.678 39.1 143.645 38C141.645 36.8667 140.078 35.2834 138.945 33.25C137.845 31.2167 137.295 28.9 137.295 26.3C137.295 23.7 137.845 21.4 138.945 19.4C140.078 17.3667 141.645 15.7834 143.645 14.65C145.645 13.4834 147.928 12.9 150.495 12.9ZM158.745 24.5C158.612 22.1 157.812 20.2167 156.345 18.85C154.878 17.45 152.945 16.75 150.545 16.75C148.212 16.75 146.262 17.45 144.695 18.85C143.162 20.25 142.245 22.1334 141.945 24.5H158.745Z" fill="#00236E"/>
<path d="M130.561 2.40002V39.5H125.911V34.25C124.911 36.0167 123.561 37.3834 121.861 38.35C120.194 39.2834 118.244 39.75 116.011 39.75C113.511 39.75 111.294 39.1834 109.361 38.05C107.461 36.8834 105.977 35.2834 104.911 33.25C103.844 31.1834 103.311 28.8334 103.311 26.2C103.311 23.6 103.844 21.3 104.911 19.3C105.977 17.2667 107.461 15.6834 109.361 14.55C111.294 13.4167 113.494 12.85 115.961 12.85C118.227 12.85 120.211 13.3167 121.911 14.25C123.611 15.1834 124.944 16.5334 125.911 18.3V2.40002H130.561ZM116.961 35.75C118.694 35.75 120.227 35.35 121.561 34.55C122.927 33.75 123.994 32.6334 124.761 31.2C125.527 29.7667 125.911 28.15 125.911 26.35C125.911 24.5167 125.527 22.8834 124.761 21.45C123.994 20.0167 122.927 18.9 121.561 18.1C120.227 17.3 118.694 16.9 116.961 16.9C115.227 16.9 113.677 17.3167 112.311 18.15C110.977 18.95 109.927 20.0667 109.161 21.5C108.394 22.9334 108.011 24.55 108.011 26.35C108.011 28.15 108.394 29.7667 109.161 31.2C109.927 32.6334 110.977 33.75 112.311 34.55C113.677 35.35 115.227 35.75 116.961 35.75Z" fill="#00236E"/>
<path d="M64.6121 13.05L85.8621 13.1V16.4L69.8621 35.65L86.2621 35.7V39.55L64.1621 39.5V36.2L80.1121 16.95L64.6121 16.9V13.05Z" fill="#00236E"/>
<path d="M46.5492 12.9C49.1826 12.9 51.5159 13.4667 53.5492 14.6C55.6159 15.7334 57.2159 17.3167 58.3492 19.35C59.5159 21.35 60.0992 23.65 60.0992 26.25C60.0992 28.85 59.5159 31.1667 58.3492 33.2C57.2159 35.2334 55.6159 36.8167 53.5492 37.95C51.5159 39.0834 49.1826 39.65 46.5492 39.65C43.8826 39.65 41.5159 39.0834 39.4492 37.95C37.4159 36.8167 35.8159 35.25 34.6492 33.25C33.5159 31.2167 32.9492 28.8834 32.9492 26.25C32.9492 23.65 33.5159 21.35 34.6492 19.35C35.8159 17.3167 37.4159 15.7334 39.4492 14.6C41.5159 13.4667 43.8826 12.9 46.5492 12.9ZM46.5492 16.95C44.8159 16.95 43.2659 17.35 41.8992 18.15C40.5659 18.95 39.5159 20.0667 38.7492 21.5C38.0159 22.9 37.6492 24.5 37.6492 26.3C37.6492 28.1334 38.0159 29.7667 38.7492 31.2C39.5159 32.6334 40.5659 33.75 41.8992 34.55C43.2659 35.3167 44.8159 35.7 46.5492 35.7C48.2492 35.7 49.7659 35.3167 51.0992 34.55C52.4659 33.75 53.5159 32.6334 54.2492 31.2C55.0159 29.7667 55.3992 28.1334 55.3992 26.3C55.3992 24.5 55.0159 22.9 54.2492 21.5C53.5159 20.0667 52.4659 18.95 51.0992 18.15C49.7659 17.35 48.2492 16.95 46.5492 16.95Z" fill="#00236E"/>
<path d="M0 4.5H5.15L16.7 34.15L28.25 4.5H33.3L19.1 39.5H14.1L0 4.5Z" fill="#00236E"/>
</svg>
