<svg width="586" height="137" viewBox="0 0 586 137" fill="none" xmlns="http://www.w3.org/2000/svg">
<path d="M160.194 69.6641C160.194 71.9681 160.13 73.6961 160.002 74.8481H114.978C115.106 79.5201 116.13 83.4561 118.05 86.6561C119.97 89.8561 122.498 92.2561 125.634 93.8561C128.77 95.4561 132.194 96.2561 135.906 96.2561C141.026 96.2561 145.314 95.0081 148.77 92.5121C152.226 89.9521 154.402 86.4961 155.298 82.1441H159.81C158.786 87.4561 156.162 91.7761 151.938 95.1041C147.714 98.3681 142.37 100 135.906 100C131.042 100 126.69 98.9121 122.85 96.7361C119.01 94.5601 116.002 91.4561 113.826 87.4241C111.65 83.3281 110.562 78.5601 110.562 73.1201C110.562 67.6801 111.618 62.9441 113.73 58.9121C115.906 54.8801 118.914 51.8081 122.754 49.6961C126.594 47.5201 130.978 46.4321 135.906 46.4321C140.898 46.4321 145.218 47.5201 148.866 49.6961C152.578 51.8081 155.394 54.6561 157.314 58.2401C159.234 61.7601 160.194 65.5681 160.194 69.6641ZM155.874 71.2961C156.066 66.6881 155.234 62.7841 153.378 59.5841C151.586 56.3841 149.122 54.0161 145.986 52.4801C142.85 50.8801 139.458 50.0801 135.81 50.0801C132.162 50.0801 128.77 50.8801 125.634 52.4801C122.562 54.0161 120.034 56.3841 118.05 59.5841C116.13 62.7841 115.106 66.6881 114.978 71.2961H155.874Z" fill="#0528F2"/>
<path d="M86.4007 50.848V85.312C86.4007 89.152 87.1047 91.808 88.5127 93.28C89.9207 94.688 92.4167 95.392 96.0007 95.392H101.857V99.232H95.3287C90.7847 99.232 87.4247 98.176 85.2487 96.064C83.1367 93.888 82.0807 90.304 82.0807 85.312V50.848H74.2087V47.104H82.0807V33.856H86.4007V47.104H101.857V50.848H86.4007Z" fill="#0528F2"/>
<path d="M43.6763 46.0479C49.8843 46.0479 54.9402 47.9678 58.8442 51.8078C62.7482 55.5838 64.7002 61.2159 64.7002 68.7039V99.2319H60.4762V68.9918C60.4762 62.7838 58.9082 58.0479 55.7722 54.7839C52.6362 51.4559 48.3803 49.7919 43.0043 49.7919C37.3722 49.7919 32.8603 51.5838 29.4683 55.1679C26.1403 58.7519 24.4763 64.0639 24.4763 71.1039V99.2319H20.1562V47.1038H24.4763V58.1438C25.9483 54.2398 28.3802 51.2639 31.7722 49.2159C35.2282 47.1039 39.1963 46.0479 43.6763 46.0479Z" fill="#0528F2"/>
<path d="M4.32 31.8398V99.2318H0V31.8398H4.32Z" fill="#0528F2"/>
<g clip-path="url(#clip0_2884_1084)">
<path d="M585.194 97.3452C584.776 97.9993 584.193 98.2046 583.408 98.1917C579.746 98.1532 576.071 98.1789 572.41 98.1789C571.117 98.1789 570.75 97.807 570.75 96.5244C570.75 83.3655 570.75 70.1938 570.75 57.0349C570.75 54.2774 570.357 51.5841 569.115 49.0831C567.126 45.0944 563.857 43.0038 559.511 42.5806C556.711 42.2984 554 42.6062 551.44 43.8375C547.475 45.7357 545.257 49.0318 544.18 53.2257C543.61 55.4317 543.395 57.689 543.395 59.9591C543.382 72.0663 543.395 84.1863 543.395 96.2936C543.395 97.8967 543.104 98.1917 541.558 98.1917C537.921 98.1917 534.285 98.1917 530.636 98.1917C529.344 98.1917 528.976 97.8198 528.976 96.5244C528.976 83.4681 528.976 70.4246 528.976 57.3683C528.976 54.8161 528.723 52.3023 527.773 49.9039C526.011 45.4535 522.755 43.0167 518.029 42.5934C513.126 42.1574 508.894 43.5297 505.6 47.3388C503.382 49.9039 502.432 53.0205 501.989 56.3295C501.786 57.8685 501.761 59.4076 501.761 60.9595C501.761 72.7076 501.761 84.4685 501.761 96.2166C501.761 97.8967 501.469 98.1917 499.809 98.1917C496.198 98.1917 492.587 98.1917 488.976 98.1917C487.697 98.1917 487.342 97.8326 487.342 96.5116C487.342 75.1059 487.342 53.7003 487.342 32.3074C487.342 30.9094 487.709 30.5247 489.065 30.5247C492.701 30.5247 496.338 30.5247 499.987 30.5247C501.33 30.5247 501.748 30.9479 501.761 32.3074C501.761 33.1667 501.761 34.026 501.761 34.8853C501.761 35.4625 501.976 35.9242 502.533 36.1294C503.078 36.3346 503.547 36.1807 503.94 35.7446C508.792 30.3195 515.026 28.588 521.995 28.8317C527.076 29.0113 531.637 30.5631 535.451 34.0773C536.604 35.1418 537.605 36.3474 538.517 37.63C539.277 38.7201 540.05 38.733 540.861 37.6684C544.789 32.4485 550.059 29.6654 556.471 28.9984C561.412 28.4854 566.265 28.8317 570.839 30.9223C578.301 34.3467 582.597 40.349 584.396 48.3136C584.751 49.8783 584.979 51.4558 585.067 53.059C585.067 53.1872 585.055 53.3411 585.232 53.3924V97.3581L585.194 97.3452Z" fill="#F24405"/>
<path d="M436.129 100C435.28 99.6152 434.355 99.705 433.468 99.5383C423.281 97.6016 416.959 91.4454 414.158 81.4672C413.335 78.5558 413.056 75.5547 413.056 72.5407C413.043 59.2151 413.056 45.8894 413.056 32.5638C413.056 30.858 413.386 30.5117 415.045 30.5117C418.606 30.5117 422.153 30.5117 425.714 30.5117C427.082 30.5117 427.462 30.8965 427.462 32.2688C427.462 45.0429 427.462 57.8171 427.462 70.5912C427.462 72.887 427.716 75.1699 428.514 77.3502C430.402 82.5317 434.215 85.2892 439.499 86.0459C443.161 86.5717 446.759 86.2383 450.155 84.6223C454.919 82.3522 457.554 78.4276 458.618 73.3231C459.062 71.2069 459.239 69.065 459.239 66.9103C459.239 55.4316 459.239 43.9656 459.239 32.4868C459.239 30.8452 459.569 30.5117 461.203 30.5117C464.738 30.5117 468.26 30.5117 471.795 30.5117C473.29 30.5117 473.658 30.8708 473.658 32.3458C473.658 53.6873 473.658 75.0288 473.658 96.3832C473.658 97.871 473.341 98.1916 471.897 98.1916C468.21 98.1916 464.51 98.1916 460.823 98.1916C459.657 98.1916 459.265 97.794 459.252 96.6012C459.252 95.075 459.252 93.5616 459.252 92.0354C459.252 91.625 459.341 91.1632 458.834 90.9837C458.352 90.817 458.162 91.2274 457.934 91.5224C454.133 96.396 449.065 98.8842 443.085 99.6922C442.464 99.782 441.818 99.6922 441.235 100.013H436.141L436.129 100Z" fill="#F24405"/>
<path d="M270.807 99.8205C252.955 99.8205 239.955 89.6243 235.85 74.1825C234.9 70.5913 234.304 66.9489 234.292 63.2424C234.254 49.5063 242.603 34.6801 259.645 30.0116C265.904 28.293 272.201 27.7672 278.46 29.7808C288.634 33.0641 295.717 39.8616 300 49.6859C301.634 53.4437 302.584 57.4068 302.964 61.5109C303.053 62.4857 302.736 62.9602 301.799 63.1782C291.473 65.5638 281.159 67.9365 270.833 70.3092C264.979 71.6559 259.125 72.9897 253.272 74.3364C252.017 74.6314 251.688 75.4009 252.322 76.5295C255.54 82.2625 260.468 85.4304 266.905 86.0717C273.227 86.7001 279.132 85.3406 284.39 81.6212C286.835 79.8898 288.622 77.5684 289.927 74.8622C290.446 73.7849 290.864 73.5797 292.017 73.9516C295.324 75.0033 298.619 76.055 301.925 77.1195C303.281 77.5556 303.56 78.1712 302.977 79.4794C299.011 88.4187 292.245 94.203 283.161 97.3196C278.448 98.9356 273.607 99.8077 270.833 99.8205H270.807ZM269.338 41.9008C268.071 41.9008 266.816 42.0419 265.587 42.2728C264.384 42.5036 263.193 42.8243 262.027 43.209C254.032 45.928 249.053 52.5844 248.672 61.0877C248.609 62.4472 249.217 62.9859 250.51 62.6909C255.134 61.6392 259.772 60.5747 264.396 59.5102C271.289 57.9198 278.169 56.3423 285.061 54.7391C286.176 54.4826 286.544 53.7772 286.062 52.7896C282.641 45.7998 277.092 42.1189 269.35 41.888L269.338 41.9008Z" fill="#F24405"/>
<path d="M368.001 98.179C365.213 98.179 362.426 98.179 359.626 98.179C359.081 98.179 358.714 97.9994 358.359 97.589C352.759 91.0096 347.158 84.4429 341.545 77.8635C341.419 77.7224 341.292 77.5685 341.165 77.4274C340.481 76.6579 340.038 76.6579 339.366 77.4274C336.528 80.7492 333.69 84.0838 330.852 87.4056C327.976 90.7787 325.099 94.139 322.236 97.5249C321.843 97.9866 321.438 98.179 320.83 98.1662C315.331 98.1405 309.832 98.1533 304.333 98.1662C303.826 98.1662 303.332 98.1918 303.079 97.6147C302.838 97.0632 303.129 96.6784 303.459 96.2808C312.125 86.1359 320.779 75.991 329.433 65.8332C330.307 64.8072 330.32 64.7046 329.445 63.6785C320.804 53.5464 312.176 43.4143 303.535 33.2822C303.167 32.859 302.774 32.4486 303.091 31.8201C303.383 31.2173 303.927 31.2943 304.447 31.3071C307.234 31.3584 310.022 31.1917 312.809 31.4097C318.777 31.8714 323.604 34.5135 327.418 39.1306C330.155 42.4396 333.208 45.4536 336.097 48.6215C337.187 49.8271 338.289 51.007 339.404 52.1869C340.088 52.9052 340.443 52.9052 341.115 52.1869C344.814 48.2367 348.603 44.3634 352.176 40.2849C354.254 37.9122 356.319 35.5908 359.081 34.0133C362.185 32.2177 365.555 31.3969 369.103 31.3199C371.46 31.2686 373.804 31.3199 376.16 31.3071C376.667 31.3071 377.174 31.2815 377.44 31.8201C377.719 32.3973 377.402 32.8077 377.047 33.2309C370.015 41.4777 362.983 49.7245 355.951 57.9584C354.33 59.8566 352.708 61.7675 351.086 63.6785C350.237 64.6789 350.237 64.8072 351.048 65.7691C355.622 71.1301 360.196 76.4783 364.757 81.8394C368.862 86.6489 372.968 91.4713 377.073 96.2808C377.415 96.6784 377.681 97.0888 377.453 97.6147C377.212 98.1662 376.693 98.1533 376.186 98.1533C373.449 98.1533 370.712 98.1533 367.975 98.1533L368.001 98.179Z" fill="#F24405"/>
<path d="M171.194 50.8015C171.194 35.4879 171.194 20.1615 171.194 4.84788C171.194 3.48838 171.384 3.2447 172.689 2.91124C176.363 1.97498 180.038 1.03872 183.725 0.102467C185.068 -0.230994 185.625 0.205071 185.625 1.61587C185.625 17.8144 185.625 34.0258 185.625 50.2243C185.625 62.0365 185.625 73.836 185.613 85.6482C185.613 86.3792 185.777 86.546 186.5 86.546C200.069 86.5203 213.639 86.5331 227.209 86.5331C228.717 86.5331 228.945 86.7768 228.945 88.3159C228.945 91.3812 228.945 94.4593 228.945 97.5246C228.945 98.5891 228.565 98.9867 227.526 98.9867C209.42 98.9867 191.302 98.9867 173.196 98.9867C171.866 98.9867 171.207 98.2813 171.207 96.9346C171.194 81.5569 171.194 66.1792 171.194 50.8015Z" fill="#F24405"/>
<path d="M387.019 64.3581C387.019 53.6873 387.019 43.0165 387.019 32.3458C387.019 30.858 387.374 30.5117 388.869 30.5117C392.48 30.5117 396.091 30.5117 399.702 30.5117C401.007 30.5117 401.438 30.9478 401.438 32.2432C401.438 53.6616 401.438 75.093 401.438 96.5115C401.438 97.8068 401.058 98.1788 399.778 98.1788C396.091 98.1788 392.391 98.1788 388.704 98.1788C387.374 98.1788 387.032 97.8325 387.032 96.4473C387.032 85.7509 387.032 75.0545 387.032 64.3581H387.019Z" fill="#F24405"/>
<path d="M339.924 34.1539C333.069 34.1539 327.443 28.4851 327.494 21.5209C327.557 13.6974 333.905 8.74674 340.24 8.87499C346.854 9.01607 352.391 14.6721 352.378 21.5594C352.378 28.5107 346.778 34.1668 339.924 34.1539Z" fill="#F24405"/>
</g>
<path d="M550.096 112.008V129.768H547.912V112.008H550.096Z" fill="#787878"/>
<path d="M530.877 123.144C530.877 121.8 531.149 120.624 531.693 119.616C532.237 118.592 532.981 117.8 533.925 117.24C534.885 116.68 535.949 116.4 537.117 116.4C538.269 116.4 539.269 116.648 540.117 117.144C540.965 117.64 541.597 118.264 542.013 119.016V116.616H544.221V129.768H542.013V127.32C541.581 128.088 540.933 128.728 540.069 129.24C539.221 129.736 538.229 129.984 537.093 129.984C535.925 129.984 534.869 129.696 533.925 129.12C532.981 128.544 532.237 127.736 531.693 126.696C531.149 125.656 530.877 124.472 530.877 123.144ZM542.013 123.168C542.013 122.176 541.813 121.312 541.413 120.576C541.013 119.84 540.469 119.28 539.781 118.896C539.109 118.496 538.365 118.296 537.549 118.296C536.733 118.296 535.989 118.488 535.317 118.872C534.645 119.256 534.109 119.816 533.709 120.552C533.309 121.288 533.109 122.152 533.109 123.144C533.109 124.152 533.309 125.032 533.709 125.784C534.109 126.52 534.645 127.088 535.317 127.488C535.989 127.872 536.733 128.064 537.549 128.064C538.365 128.064 539.109 127.872 539.781 127.488C540.469 127.088 541.013 126.52 541.413 125.784C541.813 125.032 542.013 124.16 542.013 123.168Z" fill="#787878"/>
<path d="M526.915 114.48C526.499 114.48 526.147 114.336 525.859 114.048C525.571 113.76 525.427 113.408 525.427 112.992C525.427 112.576 525.571 112.224 525.859 111.936C526.147 111.648 526.499 111.504 526.915 111.504C527.315 111.504 527.651 111.648 527.923 111.936C528.211 112.224 528.355 112.576 528.355 112.992C528.355 113.408 528.211 113.76 527.923 114.048C527.651 114.336 527.315 114.48 526.915 114.48ZM527.971 116.616V129.768H525.787V116.616H527.971Z" fill="#787878"/>
<path d="M510.393 123.168C510.393 121.808 510.665 120.624 511.209 119.616C511.753 118.592 512.505 117.8 513.465 117.24C514.441 116.68 515.553 116.4 516.801 116.4C518.417 116.4 519.745 116.792 520.785 117.576C521.841 118.36 522.537 119.448 522.873 120.84H520.521C520.297 120.04 519.857 119.408 519.201 118.944C518.561 118.48 517.761 118.248 516.801 118.248C515.553 118.248 514.545 118.68 513.777 119.544C513.009 120.392 512.625 121.6 512.625 123.168C512.625 124.752 513.009 125.976 513.777 126.84C514.545 127.704 515.553 128.136 516.801 128.136C517.761 128.136 518.561 127.912 519.201 127.464C519.841 127.016 520.281 126.376 520.521 125.544H522.873C522.521 126.888 521.817 127.968 520.761 128.784C519.705 129.584 518.385 129.984 516.801 129.984C515.553 129.984 514.441 129.704 513.465 129.144C512.505 128.584 511.753 127.792 511.209 126.768C510.665 125.744 510.393 124.544 510.393 123.168Z" fill="#787878"/>
<path d="M506.431 114.48C506.015 114.48 505.663 114.336 505.375 114.048C505.087 113.76 504.943 113.408 504.943 112.992C504.943 112.576 505.087 112.224 505.375 111.936C505.663 111.648 506.015 111.504 506.431 111.504C506.831 111.504 507.167 111.648 507.439 111.936C507.727 112.224 507.871 112.576 507.871 112.992C507.871 113.408 507.727 113.76 507.439 114.048C507.167 114.336 506.831 114.48 506.431 114.48ZM507.487 116.616V129.768H505.302V116.616H507.487Z" fill="#787878"/>
<path d="M502.756 118.416H499.996V129.768H497.812V118.416H496.108V116.616H497.812V115.68C497.812 114.208 498.188 113.136 498.94 112.464C499.708 111.776 500.932 111.432 502.612 111.432V113.256C501.652 113.256 500.972 113.448 500.572 113.832C500.188 114.2 499.996 114.816 499.996 115.68V116.616H502.756V118.416Z" fill="#787878"/>
<path d="M492.626 114.48C492.21 114.48 491.858 114.336 491.57 114.048C491.282 113.76 491.138 113.408 491.138 112.992C491.138 112.576 491.282 112.224 491.57 111.936C491.858 111.648 492.21 111.504 492.626 111.504C493.026 111.504 493.362 111.648 493.634 111.936C493.922 112.224 494.066 112.576 494.066 112.992C494.066 113.408 493.922 113.76 493.634 114.048C493.362 114.336 493.026 114.48 492.626 114.48ZM493.682 116.616V129.768H491.498V116.616H493.682Z" fill="#787878"/>
<path d="M485.42 118.416V126.168C485.42 126.808 485.556 127.264 485.828 127.536C486.1 127.792 486.572 127.92 487.244 127.92H488.852V129.768H486.884C485.668 129.768 484.756 129.488 484.148 128.928C483.54 128.368 483.236 127.448 483.236 126.168V118.416H481.532V116.616H483.236V113.304H485.42V116.616H488.852V118.416H485.42Z" fill="#787878"/>
<path d="M475.987 118.752C476.371 118 476.915 117.416 477.619 117C478.339 116.584 479.211 116.376 480.235 116.376V118.632H479.659C477.211 118.632 475.987 119.96 475.987 122.616V129.768H473.803V116.616H475.987V118.752Z" fill="#787878"/>
<path d="M467.519 126.048H460.223L458.879 129.768H456.575L462.623 113.136H465.143L471.167 129.768H468.863L467.519 126.048ZM466.895 124.272L463.871 115.824L460.847 124.272H466.895Z" fill="#787878"/>
<path d="M434.198 123.144C434.198 121.8 434.469 120.624 435.013 119.616C435.557 118.592 436.301 117.8 437.245 117.24C438.205 116.68 439.27 116.4 440.438 116.4C441.59 116.4 442.589 116.648 443.438 117.144C444.286 117.64 444.917 118.264 445.333 119.016V116.616H447.542V129.768H445.333V127.32C444.901 128.088 444.253 128.728 443.389 129.24C442.541 129.736 441.549 129.984 440.413 129.984C439.245 129.984 438.189 129.696 437.245 129.12C436.301 128.544 435.557 127.736 435.013 126.696C434.469 125.656 434.198 124.472 434.198 123.144ZM445.333 123.168C445.333 122.176 445.133 121.312 444.733 120.576C444.333 119.84 443.79 119.28 443.102 118.896C442.43 118.496 441.686 118.296 440.87 118.296C440.054 118.296 439.31 118.488 438.638 118.872C437.966 119.256 437.43 119.816 437.03 120.552C436.63 121.288 436.43 122.152 436.43 123.144C436.43 124.152 436.63 125.032 437.03 125.784C437.43 126.52 437.966 127.088 438.638 127.488C439.31 127.872 440.054 128.064 440.87 128.064C441.686 128.064 442.43 127.872 443.102 127.488C443.79 127.088 444.333 126.52 444.733 125.784C445.133 125.032 445.333 124.16 445.333 123.168Z" fill="#787878"/>
<path d="M430.235 114.48C429.819 114.48 429.467 114.336 429.179 114.048C428.891 113.76 428.747 113.408 428.747 112.992C428.747 112.576 428.891 112.224 429.179 111.936C429.467 111.648 429.819 111.504 430.235 111.504C430.635 111.504 430.971 111.648 431.243 111.936C431.531 112.224 431.675 112.576 431.675 112.992C431.675 113.408 431.531 113.76 431.243 114.048C430.971 114.336 430.635 114.48 430.235 114.48ZM431.291 116.616V129.768H429.107V116.616H431.291Z" fill="#787878"/>
<path d="M413.713 123.168C413.713 121.808 413.985 120.624 414.529 119.616C415.073 118.592 415.825 117.8 416.785 117.24C417.761 116.68 418.873 116.4 420.121 116.4C421.737 116.4 423.065 116.792 424.105 117.576C425.161 118.36 425.857 119.448 426.193 120.84H423.841C423.617 120.04 423.177 119.408 422.521 118.944C421.881 118.48 421.081 118.248 420.121 118.248C418.873 118.248 417.865 118.68 417.097 119.544C416.329 120.392 415.945 121.6 415.945 123.168C415.945 124.752 416.329 125.976 417.097 126.84C417.865 127.704 418.873 128.136 420.121 128.136C421.081 128.136 421.881 127.912 422.521 127.464C423.161 127.016 423.601 126.376 423.841 125.544H426.193C425.841 126.888 425.137 127.968 424.081 128.784C423.025 129.584 421.705 129.984 420.121 129.984C418.873 129.984 417.761 129.704 416.785 129.144C415.825 128.584 415.073 127.792 414.529 126.768C413.985 125.744 413.713 124.544 413.713 123.168Z" fill="#787878"/>
<path d="M405.586 116.376C407.186 116.376 408.482 116.864 409.474 117.84C410.466 118.8 410.962 120.192 410.962 122.016V129.768H408.802V122.328C408.802 121.016 408.474 120.016 407.818 119.328C407.162 118.624 406.266 118.272 405.13 118.272C403.978 118.272 403.058 118.632 402.37 119.352C401.698 120.072 401.362 121.12 401.362 122.496V129.768H399.178V116.616H401.362V118.488C401.794 117.816 402.378 117.296 403.114 116.928C403.866 116.56 404.69 116.376 405.586 116.376Z" fill="#787878"/>
<path d="M396.295 122.688C396.295 123.104 396.271 123.544 396.223 124.008H385.711C385.791 125.304 386.231 126.32 387.031 127.056C387.847 127.776 388.831 128.136 389.983 128.136C390.927 128.136 391.711 127.92 392.335 127.488C392.975 127.04 393.423 126.448 393.679 125.712H396.031C395.679 126.976 394.975 128.008 393.919 128.808C392.863 129.592 391.551 129.984 389.983 129.984C388.735 129.984 387.615 129.704 386.623 129.144C385.647 128.584 384.879 127.792 384.319 126.768C383.759 125.728 383.479 124.528 383.479 123.168C383.479 121.808 383.751 120.616 384.295 119.592C384.839 118.568 385.599 117.784 386.575 117.24C387.567 116.68 388.703 116.4 389.983 116.4C391.231 116.4 392.335 116.672 393.295 117.216C394.255 117.76 394.991 118.512 395.503 119.472C396.031 120.416 396.295 121.488 396.295 122.688ZM394.039 122.232C394.039 121.4 393.855 120.688 393.487 120.096C393.119 119.488 392.615 119.032 391.975 118.728C391.351 118.408 390.655 118.248 389.887 118.248C388.783 118.248 387.839 118.6 387.055 119.304C386.287 120.008 385.847 120.984 385.735 122.232H394.039Z" fill="#787878"/>
<path d="M373.5 116.4C374.636 116.4 375.628 116.648 376.476 117.144C377.34 117.64 377.98 118.264 378.396 119.016V116.616H380.604V130.056C380.604 131.256 380.348 132.32 379.836 133.248C379.324 134.192 378.588 134.928 377.628 135.456C376.684 135.984 375.58 136.248 374.316 136.248C372.588 136.248 371.148 135.84 369.996 135.024C368.844 134.208 368.164 133.096 367.956 131.688H370.116C370.356 132.488 370.852 133.128 371.604 133.608C372.356 134.104 373.26 134.352 374.316 134.352C375.516 134.352 376.492 133.976 377.244 133.224C378.012 132.472 378.396 131.416 378.396 130.056V127.296C377.964 128.064 377.324 128.704 376.476 129.216C375.628 129.728 374.636 129.984 373.5 129.984C372.332 129.984 371.268 129.696 370.308 129.12C369.364 128.544 368.62 127.736 368.076 126.696C367.532 125.656 367.26 124.472 367.26 123.144C367.26 121.8 367.532 120.624 368.076 119.616C368.62 118.592 369.364 117.8 370.308 117.24C371.268 116.68 372.332 116.4 373.5 116.4ZM378.396 123.168C378.396 122.176 378.196 121.312 377.796 120.576C377.396 119.84 376.852 119.28 376.164 118.896C375.492 118.496 374.748 118.296 373.932 118.296C373.116 118.296 372.372 118.488 371.7 118.872C371.028 119.256 370.492 119.816 370.092 120.552C369.692 121.288 369.492 122.152 369.492 123.144C369.492 124.152 369.692 125.032 370.092 125.784C370.492 126.52 371.028 127.088 371.7 127.488C372.372 127.872 373.116 128.064 373.932 128.064C374.748 128.064 375.492 127.872 376.164 127.488C376.852 127.088 377.396 126.52 377.796 125.784C378.196 125.032 378.396 124.16 378.396 123.168Z" fill="#787878"/>
<path d="M363.298 114.48C362.882 114.48 362.53 114.336 362.242 114.048C361.954 113.76 361.81 113.408 361.81 112.992C361.81 112.576 361.954 112.224 362.242 111.936C362.53 111.648 362.882 111.504 363.298 111.504C363.698 111.504 364.034 111.648 364.306 111.936C364.594 112.224 364.738 112.576 364.738 112.992C364.738 113.408 364.594 113.76 364.306 114.048C364.034 114.336 363.698 114.48 363.298 114.48ZM364.354 116.616V129.768H362.17V116.616H364.354Z" fill="#787878"/>
<path d="M358.448 112.008V129.768H356.264V112.008H358.448Z" fill="#787878"/>
<path d="M353.381 122.688C353.381 123.104 353.357 123.544 353.309 124.008H342.797C342.877 125.304 343.317 126.32 344.117 127.056C344.933 127.776 345.917 128.136 347.069 128.136C348.013 128.136 348.797 127.92 349.421 127.488C350.061 127.04 350.509 126.448 350.765 125.712H353.117C352.765 126.976 352.061 128.008 351.005 128.808C349.949 129.592 348.637 129.984 347.069 129.984C345.821 129.984 344.701 129.704 343.709 129.144C342.733 128.584 341.965 127.792 341.405 126.768C340.845 125.728 340.565 124.528 340.565 123.168C340.565 121.808 340.837 120.616 341.381 119.592C341.925 118.568 342.685 117.784 343.661 117.24C344.653 116.68 345.789 116.4 347.069 116.4C348.317 116.4 349.421 116.672 350.381 117.216C351.341 117.76 352.077 118.512 352.589 119.472C353.117 120.416 353.381 121.488 353.381 122.688ZM351.125 122.232C351.125 121.4 350.941 120.688 350.573 120.096C350.205 119.488 349.701 119.032 349.061 118.728C348.437 118.408 347.741 118.248 346.973 118.248C345.869 118.248 344.925 118.6 344.141 119.304C343.373 120.008 342.933 120.984 342.821 122.232H351.125Z" fill="#787878"/>
<path d="M335.302 118.416V126.168C335.302 126.808 335.438 127.264 335.71 127.536C335.982 127.792 336.454 127.92 337.126 127.92H338.734V129.768H336.766C335.55 129.768 334.638 129.488 334.03 128.928C333.422 128.368 333.118 127.448 333.118 126.168V118.416H331.414V116.616H333.118V113.304H335.302V116.616H338.734V118.416H335.302Z" fill="#787878"/>
<path d="M323.695 116.376C325.295 116.376 326.591 116.864 327.583 117.84C328.575 118.8 329.071 120.192 329.071 122.016V129.768H326.911V122.328C326.911 121.016 326.583 120.016 325.927 119.328C325.271 118.624 324.375 118.272 323.239 118.272C322.087 118.272 321.167 118.632 320.479 119.352C319.807 120.072 319.471 121.12 319.471 122.496V129.768H317.287V116.616H319.471V118.488C319.903 117.816 320.487 117.296 321.223 116.928C321.975 116.56 322.799 116.376 323.695 116.376Z" fill="#787878"/>
<path d="M313.565 113.04V129.768H311.381V113.04H313.565Z" fill="#787878"/>
<path d="M296.039 116.376C297.639 116.376 298.935 116.864 299.927 117.84C300.919 118.8 301.415 120.192 301.415 122.016V129.768H299.255V122.328C299.255 121.016 298.927 120.016 298.271 119.328C297.615 118.624 296.719 118.272 295.583 118.272C294.431 118.272 293.511 118.632 292.823 119.352C292.151 120.072 291.815 121.12 291.815 122.496V129.768H289.631V116.616H291.815V118.488C292.247 117.816 292.831 117.296 293.567 116.928C294.319 116.56 295.143 116.376 296.039 116.376Z" fill="#787878"/>
<path d="M280.015 129.984C278.783 129.984 277.663 129.704 276.655 129.144C275.663 128.584 274.879 127.792 274.303 126.768C273.743 125.728 273.463 124.528 273.463 123.168C273.463 121.824 273.751 120.64 274.327 119.616C274.919 118.576 275.719 117.784 276.727 117.24C277.735 116.68 278.863 116.4 280.111 116.4C281.359 116.4 282.487 116.68 283.495 117.24C284.503 117.784 285.295 118.568 285.871 119.592C286.463 120.616 286.759 121.808 286.759 123.168C286.759 124.528 286.455 125.728 285.847 126.768C285.255 127.792 284.447 128.584 283.423 129.144C282.399 129.704 281.263 129.984 280.015 129.984ZM280.015 128.064C280.799 128.064 281.535 127.88 282.223 127.512C282.911 127.144 283.463 126.592 283.879 125.856C284.311 125.12 284.527 124.224 284.527 123.168C284.527 122.112 284.319 121.216 283.903 120.48C283.487 119.744 282.943 119.2 282.271 118.848C281.599 118.48 280.871 118.296 280.087 118.296C279.287 118.296 278.551 118.48 277.879 118.848C277.223 119.2 276.695 119.744 276.295 120.48C275.895 121.216 275.695 122.112 275.695 123.168C275.695 124.24 275.887 125.144 276.271 125.88C276.671 126.616 277.199 127.168 277.855 127.536C278.511 127.888 279.231 128.064 280.015 128.064Z" fill="#787878"/>
<path d="M258.885 123.168C258.885 121.808 259.157 120.624 259.701 119.616C260.245 118.592 260.997 117.8 261.957 117.24C262.933 116.68 264.045 116.4 265.293 116.4C266.909 116.4 268.237 116.792 269.277 117.576C270.333 118.36 271.029 119.448 271.365 120.84H269.013C268.789 120.04 268.349 119.408 267.693 118.944C267.053 118.48 266.253 118.248 265.293 118.248C264.045 118.248 263.037 118.68 262.269 119.544C261.501 120.392 261.117 121.6 261.117 123.168C261.117 124.752 261.501 125.976 262.269 126.84C263.037 127.704 264.045 128.136 265.293 128.136C266.253 128.136 267.053 127.912 267.693 127.464C268.333 127.016 268.773 126.376 269.013 125.544H271.365C271.013 126.888 270.309 127.968 269.253 128.784C268.197 129.584 266.877 129.984 265.293 129.984C264.045 129.984 262.933 129.704 261.957 129.144C260.997 128.584 260.245 127.792 259.701 126.768C259.157 125.744 258.885 124.544 258.885 123.168Z" fill="#787878"/>
<path d="M243.687 129.984C242.455 129.984 241.335 129.704 240.327 129.144C239.335 128.584 238.551 127.792 237.975 126.768C237.415 125.728 237.135 124.528 237.135 123.168C237.135 121.824 237.423 120.64 237.999 119.616C238.591 118.576 239.391 117.784 240.399 117.24C241.407 116.68 242.535 116.4 243.783 116.4C245.031 116.4 246.159 116.68 247.167 117.24C248.175 117.784 248.967 118.568 249.543 119.592C250.135 120.616 250.431 121.808 250.431 123.168C250.431 124.528 250.127 125.728 249.519 126.768C248.927 127.792 248.119 128.584 247.095 129.144C246.071 129.704 244.935 129.984 243.687 129.984ZM243.687 128.064C244.471 128.064 245.207 127.88 245.895 127.512C246.583 127.144 247.135 126.592 247.551 125.856C247.983 125.12 248.199 124.224 248.199 123.168C248.199 122.112 247.991 121.216 247.575 120.48C247.159 119.744 246.615 119.2 245.943 118.848C245.271 118.48 244.543 118.296 243.759 118.296C242.959 118.296 242.223 118.48 241.551 118.848C240.895 119.2 240.367 119.744 239.967 120.48C239.567 121.216 239.367 122.112 239.367 123.168C239.367 124.24 239.559 125.144 239.943 125.88C240.343 126.616 240.871 127.168 241.527 127.536C242.183 127.888 242.903 128.064 243.687 128.064Z" fill="#787878"/>
<path d="M229.394 127.752L233.474 116.616H235.802L230.642 129.768H228.098L222.938 116.616H225.29L229.394 127.752Z" fill="#787878"/>
<path d="M219.72 114.48C219.304 114.48 218.952 114.336 218.664 114.048C218.376 113.76 218.232 113.408 218.232 112.992C218.232 112.576 218.376 112.224 218.664 111.936C218.952 111.648 219.304 111.504 219.72 111.504C220.12 111.504 220.456 111.648 220.728 111.936C221.016 112.224 221.16 112.576 221.16 112.992C221.16 113.408 221.016 113.76 220.728 114.048C220.456 114.336 220.12 114.48 219.72 114.48ZM220.776 116.616V129.768H218.592V116.616H220.776Z" fill="#787878"/>
<path d="M212.513 118.416V126.168C212.513 126.808 212.649 127.264 212.921 127.536C213.193 127.792 213.665 127.92 214.337 127.92H215.945V129.768H213.977C212.761 129.768 211.849 129.488 211.241 128.928C210.633 128.368 210.329 127.448 210.329 126.168V118.416H208.625V116.616H210.329V113.304H212.513V116.616H215.945V118.416H212.513Z" fill="#787878"/>
<path d="M194.455 123.168C194.455 121.808 194.727 120.624 195.271 119.616C195.815 118.592 196.567 117.8 197.527 117.24C198.503 116.68 199.615 116.4 200.863 116.4C202.479 116.4 203.807 116.792 204.847 117.576C205.903 118.36 206.599 119.448 206.935 120.84H204.583C204.359 120.04 203.919 119.408 203.263 118.944C202.623 118.48 201.823 118.248 200.863 118.248C199.615 118.248 198.607 118.68 197.839 119.544C197.071 120.392 196.687 121.6 196.687 123.168C196.687 124.752 197.071 125.976 197.839 126.84C198.607 127.704 199.615 128.136 200.863 128.136C201.823 128.136 202.623 127.912 203.263 127.464C203.903 127.016 204.343 126.376 204.583 125.544H206.935C206.583 126.888 205.879 127.968 204.823 128.784C203.767 129.584 202.447 129.984 200.863 129.984C199.615 129.984 198.503 129.704 197.527 129.144C196.567 128.584 195.815 127.792 195.271 126.768C194.727 125.744 194.455 124.544 194.455 123.168Z" fill="#787878"/>
<path d="M190.493 114.48C190.077 114.48 189.725 114.336 189.437 114.048C189.149 113.76 189.005 113.408 189.005 112.992C189.005 112.576 189.149 112.224 189.437 111.936C189.725 111.648 190.077 111.504 190.493 111.504C190.893 111.504 191.229 111.648 191.501 111.936C191.789 112.224 191.933 112.576 191.933 112.992C191.933 113.408 191.789 113.76 191.501 114.048C191.229 114.336 190.893 114.48 190.493 114.48ZM191.549 116.616V129.768H189.365V116.616H191.549Z" fill="#787878"/>
<path d="M172.33 123.144C172.33 121.8 172.602 120.624 173.146 119.616C173.69 118.592 174.434 117.8 175.378 117.24C176.338 116.68 177.41 116.4 178.594 116.4C179.618 116.4 180.57 116.64 181.45 117.12C182.33 117.584 183.002 118.2 183.466 118.968V112.008H185.674V129.768H183.466V127.296C183.034 128.08 182.394 128.728 181.546 129.24C180.698 129.736 179.706 129.984 178.57 129.984C177.402 129.984 176.338 129.696 175.378 129.12C174.434 128.544 173.69 127.736 173.146 126.696C172.602 125.656 172.33 124.472 172.33 123.144ZM183.466 123.168C183.466 122.176 183.266 121.312 182.866 120.576C182.466 119.84 181.922 119.28 181.234 118.896C180.562 118.496 179.818 118.296 179.002 118.296C178.186 118.296 177.442 118.488 176.77 118.872C176.098 119.256 175.562 119.816 175.162 120.552C174.762 121.288 174.562 122.152 174.562 123.144C174.562 124.152 174.762 125.032 175.162 125.784C175.562 126.52 176.098 127.088 176.77 127.488C177.442 127.872 178.186 128.064 179.002 128.064C179.818 128.064 180.562 127.872 181.234 127.488C181.922 127.088 182.466 126.52 182.866 125.784C183.266 125.032 183.466 124.16 183.466 123.168Z" fill="#787878"/>
<path d="M170.264 122.688C170.264 123.104 170.24 123.544 170.192 124.008H159.68C159.76 125.304 160.2 126.32 161 127.056C161.816 127.776 162.8 128.136 163.952 128.136C164.896 128.136 165.68 127.92 166.304 127.488C166.944 127.04 167.392 126.448 167.648 125.712H170C169.648 126.976 168.944 128.008 167.888 128.808C166.832 129.592 165.52 129.984 163.952 129.984C162.704 129.984 161.584 129.704 160.592 129.144C159.616 128.584 158.848 127.792 158.288 126.768C157.728 125.728 157.448 124.528 157.448 123.168C157.448 121.808 157.72 120.616 158.264 119.592C158.808 118.568 159.568 117.784 160.544 117.24C161.536 116.68 162.672 116.4 163.952 116.4C165.2 116.4 166.304 116.672 167.264 117.216C168.224 117.76 168.96 118.512 169.472 119.472C170 120.416 170.264 121.488 170.264 122.688ZM168.008 122.232C168.008 121.4 167.824 120.688 167.456 120.096C167.088 119.488 166.584 119.032 165.944 118.728C165.32 118.408 164.624 118.248 163.856 118.248C162.752 118.248 161.808 118.6 161.024 119.304C160.256 120.008 159.816 120.984 159.704 122.232H168.008Z" fill="#787878"/>
<path d="M151.494 118.752C151.878 118 152.422 117.416 153.126 117C153.846 116.584 154.718 116.376 155.742 116.376V118.632H155.166C152.718 118.632 151.494 119.96 151.494 122.616V129.768H149.31V116.616H151.494V118.752Z" fill="#787878"/>
<path d="M135.276 119.04C135.708 118.288 136.348 117.664 137.196 117.168C138.06 116.656 139.06 116.4 140.196 116.4C141.364 116.4 142.42 116.68 143.364 117.24C144.324 117.8 145.076 118.592 145.62 119.616C146.164 120.624 146.436 121.8 146.436 123.144C146.436 124.472 146.164 125.656 145.62 126.696C145.076 127.736 144.324 128.544 143.364 129.12C142.42 129.696 141.364 129.984 140.196 129.984C139.076 129.984 138.084 129.736 137.22 129.24C136.372 128.728 135.724 128.096 135.276 127.344V136.008H133.092V116.616H135.276V119.04ZM144.204 123.144C144.204 122.152 144.004 121.288 143.604 120.552C143.204 119.816 142.66 119.256 141.972 118.872C141.3 118.488 140.556 118.296 139.74 118.296C138.94 118.296 138.196 118.496 137.508 118.896C136.836 119.28 136.292 119.848 135.876 120.6C135.476 121.336 135.276 122.192 135.276 123.168C135.276 124.16 135.476 125.032 135.876 125.784C136.292 126.52 136.836 127.088 137.508 127.488C138.196 127.872 138.94 128.064 139.74 128.064C140.556 128.064 141.3 127.872 141.972 127.488C142.66 127.088 143.204 126.52 143.604 125.784C144.004 125.032 144.204 124.152 144.204 123.144Z" fill="#787878"/>
<path d="M118.81 129.984C117.802 129.984 116.898 129.816 116.098 129.48C115.298 129.128 114.666 128.648 114.202 128.04C113.738 127.416 113.482 126.704 113.434 125.904H115.69C115.754 126.56 116.058 127.096 116.602 127.512C117.162 127.928 117.89 128.136 118.786 128.136C119.618 128.136 120.274 127.952 120.754 127.584C121.234 127.216 121.474 126.752 121.474 126.192C121.474 125.616 121.218 125.192 120.706 124.92C120.194 124.632 119.402 124.352 118.33 124.08C117.354 123.824 116.554 123.568 115.93 123.312C115.322 123.04 114.794 122.648 114.346 122.136C113.914 121.608 113.698 120.92 113.698 120.072C113.698 119.4 113.898 118.784 114.298 118.224C114.698 117.664 115.266 117.224 116.002 116.904C116.738 116.568 117.578 116.4 118.522 116.4C119.978 116.4 121.154 116.768 122.05 117.504C122.946 118.24 123.426 119.248 123.49 120.528H121.306C121.258 119.84 120.978 119.288 120.466 118.872C119.97 118.456 119.298 118.248 118.45 118.248C117.666 118.248 117.042 118.416 116.578 118.752C116.114 119.088 115.882 119.528 115.882 120.072C115.882 120.504 116.018 120.864 116.29 121.152C116.578 121.424 116.93 121.648 117.346 121.824C117.778 121.984 118.37 122.168 119.122 122.376C120.066 122.632 120.834 122.888 121.426 123.144C122.018 123.384 122.522 123.752 122.938 124.248C123.37 124.744 123.594 125.392 123.61 126.192C123.61 126.912 123.41 127.56 123.01 128.136C122.61 128.712 122.042 129.168 121.306 129.504C120.586 129.824 119.754 129.984 118.81 129.984Z" fill="#787878"/>
<path d="M109.376 114.48C108.96 114.48 108.608 114.336 108.32 114.048C108.032 113.76 107.888 113.408 107.888 112.992C107.888 112.576 108.032 112.224 108.32 111.936C108.608 111.648 108.96 111.504 109.376 111.504C109.776 111.504 110.112 111.648 110.384 111.936C110.672 112.224 110.816 112.576 110.816 112.992C110.816 113.408 110.672 113.76 110.384 114.048C110.112 114.336 109.776 114.48 109.376 114.48ZM110.432 116.616V129.768H108.248V116.616H110.432Z" fill="#787878"/>
<path d="M100.365 129.984C99.3568 129.984 98.4528 129.816 97.6528 129.48C96.8528 129.128 96.2208 128.648 95.7568 128.04C95.2928 127.416 95.0368 126.704 94.9888 125.904H97.2448C97.3088 126.56 97.6128 127.096 98.1568 127.512C98.7168 127.928 99.4448 128.136 100.341 128.136C101.173 128.136 101.829 127.952 102.309 127.584C102.789 127.216 103.029 126.752 103.029 126.192C103.029 125.616 102.773 125.192 102.261 124.92C101.749 124.632 100.957 124.352 99.8848 124.08C98.9088 123.824 98.1088 123.568 97.4848 123.312C96.8768 123.04 96.3488 122.648 95.9008 122.136C95.4688 121.608 95.2528 120.92 95.2528 120.072C95.2528 119.4 95.4528 118.784 95.8528 118.224C96.2528 117.664 96.8208 117.224 97.5568 116.904C98.2928 116.568 99.1328 116.4 100.077 116.4C101.533 116.4 102.709 116.768 103.605 117.504C104.501 118.24 104.981 119.248 105.045 120.528H102.861C102.813 119.84 102.533 119.288 102.021 118.872C101.525 118.456 100.853 118.248 100.005 118.248C99.2208 118.248 98.5968 118.416 98.1328 118.752C97.6688 119.088 97.4368 119.528 97.4368 120.072C97.4368 120.504 97.5728 120.864 97.8448 121.152C98.1328 121.424 98.4848 121.648 98.9008 121.824C99.3328 121.984 99.9248 122.168 100.677 122.376C101.621 122.632 102.389 122.888 102.981 123.144C103.573 123.384 104.077 123.752 104.493 124.248C104.925 124.744 105.149 125.392 105.165 126.192C105.165 126.912 104.965 127.56 104.565 128.136C104.165 128.712 103.597 129.168 102.861 129.504C102.141 129.824 101.309 129.984 100.365 129.984Z" fill="#787878"/>
<path d="M90.9306 114.48C90.5146 114.48 90.1626 114.336 89.8746 114.048C89.5866 113.76 89.4426 113.408 89.4426 112.992C89.4426 112.576 89.5866 112.224 89.8746 111.936C90.1626 111.648 90.5146 111.504 90.9306 111.504C91.3306 111.504 91.6666 111.648 91.9386 111.936C92.2266 112.224 92.3706 112.576 92.3706 112.992C92.3706 113.408 92.2266 113.76 91.9386 114.048C91.6666 114.336 91.3306 114.48 90.9306 114.48ZM91.9866 116.616V129.768H89.8026V116.616H91.9866Z" fill="#787878"/>
<path d="M86.0803 112.008V129.768H83.8963V112.008H86.0803Z" fill="#787878"/>
<path d="M66.8616 123.144C66.8616 121.8 67.1336 120.624 67.6776 119.616C68.2216 118.592 68.9656 117.8 69.9096 117.24C70.8696 116.68 71.9336 116.4 73.1016 116.4C74.2536 116.4 75.2536 116.648 76.1016 117.144C76.9496 117.64 77.5816 118.264 77.9976 119.016V116.616H80.2056V129.768H77.9976V127.32C77.5656 128.088 76.9176 128.728 76.0536 129.24C75.2056 129.736 74.2136 129.984 73.0776 129.984C71.9096 129.984 70.8536 129.696 69.9096 129.12C68.9656 128.544 68.2216 127.736 67.6776 126.696C67.1336 125.656 66.8616 124.472 66.8616 123.144ZM77.9976 123.168C77.9976 122.176 77.7976 121.312 77.3976 120.576C76.9976 119.84 76.4536 119.28 75.7656 118.896C75.0936 118.496 74.3496 118.296 73.5336 118.296C72.7176 118.296 71.9736 118.488 71.3016 118.872C70.6296 119.256 70.0936 119.816 69.6936 120.552C69.2936 121.288 69.0936 122.152 69.0936 123.144C69.0936 124.152 69.2936 125.032 69.6936 125.784C70.0936 126.52 70.6296 127.088 71.3016 127.488C71.9736 127.872 72.7176 128.064 73.5336 128.064C74.3496 128.064 75.0936 127.872 75.7656 127.488C76.4536 127.088 76.9976 126.52 77.3976 125.784C77.7976 125.032 77.9976 124.16 77.9976 123.168ZM76.2936 112.896L71.1816 115.632V114L76.2936 111V112.896Z" fill="#787878"/>
<path d="M58.734 116.376C60.334 116.376 61.63 116.864 62.622 117.84C63.614 118.8 64.11 120.192 64.11 122.016V129.768H61.95V122.328C61.95 121.016 61.622 120.016 60.966 119.328C60.31 118.624 59.414 118.272 58.278 118.272C57.126 118.272 56.206 118.632 55.518 119.352C54.846 120.072 54.51 121.12 54.51 122.496V129.768H52.326V116.616H54.51V118.488C54.942 117.816 55.526 117.296 56.262 116.928C57.014 116.56 57.838 116.376 58.734 116.376Z" fill="#787878"/>
<path d="M46.0421 126.048H38.7461L37.4021 129.768H35.0981L41.1461 113.136H43.6661L49.6901 129.768H47.3861L46.0421 126.048ZM45.4181 124.272L42.3941 115.824L39.3701 124.272H45.4181Z" fill="#787878"/>
<defs>
<clipPath id="clip0_2884_1084">
<rect width="414" height="100" fill="white" transform="translate(171.194)"/>
</clipPath>
</defs>
</svg>
