<svg width="264" height="45" viewBox="0 0 264 45" fill="none" xmlns="http://www.w3.org/2000/svg">
<path d="M72.0729 31.3453C72.0729 32.3819 72.0441 33.1594 71.9865 33.6777H51.7291C51.7867 35.7798 52.2474 37.5507 53.1112 38.9904C53.9751 40.4302 55.1125 41.51 56.5235 42.2299C57.9344 42.9498 59.475 43.3097 61.1451 43.3097C63.4487 43.3097 65.378 42.7482 66.933 41.6252C68.4879 40.4734 69.467 38.9184 69.8701 36.9604H71.9002C71.4394 39.3504 70.2588 41.294 68.3583 42.7914C66.4578 44.26 64.0534 44.9942 61.1451 44.9942C58.9567 44.9942 56.9986 44.5047 55.2709 43.5257C53.5432 42.5466 52.1898 41.1501 51.2107 39.336C50.2317 37.4931 49.7422 35.3478 49.7422 32.9002C49.7422 30.4527 50.2173 28.3218 51.1676 26.5077C52.1466 24.6936 53.5 23.3114 55.2277 22.3612C56.9554 21.3822 58.9279 20.8926 61.1451 20.8926C63.3912 20.8926 65.3348 21.3822 66.9762 22.3612C68.6463 23.3114 69.9133 24.5928 70.7771 26.2054C71.641 27.7891 72.0729 29.5024 72.0729 31.3453ZM70.1292 32.0796C70.2156 30.0063 69.8413 28.2498 69.0062 26.8101C68.2 25.3703 67.0913 24.3049 65.6804 23.6138C64.2694 22.8939 62.7433 22.534 61.1019 22.534C59.4606 22.534 57.9344 22.8939 56.5235 23.6138C55.1413 24.3049 54.0039 25.3703 53.1112 26.8101C52.2474 28.2498 51.7867 30.0063 51.7291 32.0796H70.1292Z" fill="white"/>
<path d="M38.8742 22.8794V38.3857C38.8742 40.1134 39.1909 41.3084 39.8244 41.9707C40.4579 42.6042 41.5809 42.9209 43.1935 42.9209H45.8282V44.6486H42.8911C40.8466 44.6486 39.3349 44.1735 38.3559 43.2233C37.4056 42.2442 36.9305 40.6317 36.9305 38.3857V22.8794H33.3887V21.1949H36.9305V15.2343H38.8742V21.1949H45.8282V22.8794H38.8742Z" fill="white"/>
<path d="M19.6487 20.7198C22.4418 20.7198 24.7166 21.5836 26.4732 23.3114C28.2297 25.0103 29.1079 27.5443 29.1079 30.9133V44.6486H27.2074V31.0429C27.2074 28.2497 26.502 26.1189 25.091 24.6503C23.68 23.153 21.7651 22.4043 19.3463 22.4043C16.8123 22.4043 14.7823 23.2106 13.2561 24.8231C11.7588 26.4356 11.0101 28.8256 11.0101 31.9931V44.6486H9.06641V21.1949H11.0101V26.1621C11.6724 24.4056 12.7666 23.0666 14.2927 22.1452C15.8477 21.1949 17.633 20.7198 19.6487 20.7198Z" fill="white"/>
<path d="M1.94368 14.3273V44.6486H0V14.3273H1.94368Z" fill="white"/>
<path d="M263.387 43.7997C263.198 44.094 262.936 44.1863 262.582 44.1805C260.932 44.1632 259.276 44.1748 257.627 44.1748C257.044 44.1748 256.879 44.0074 256.879 43.4304C256.879 37.5099 256.879 31.5836 256.879 25.663C256.879 24.4224 256.702 23.2106 256.142 22.0853C255.246 20.2907 253.773 19.3501 251.815 19.1597C250.553 19.0327 249.331 19.1712 248.178 19.7252C246.391 20.5792 245.392 22.0623 244.907 23.9492C244.65 24.9417 244.553 25.9573 244.553 26.9787C244.547 32.4261 244.553 37.8792 244.553 43.3265C244.553 44.0478 244.422 44.1805 243.725 44.1805C242.087 44.1805 240.448 44.1805 238.804 44.1805C238.222 44.1805 238.056 44.0132 238.056 43.4304C238.056 37.556 238.056 31.6874 238.056 25.8131C238.056 24.6647 237.942 23.5337 237.514 22.4546C236.72 20.4523 235.253 19.3559 233.124 19.1655C230.915 18.9693 229.008 19.5867 227.523 21.3005C226.524 22.4546 226.096 23.8569 225.896 25.3457C225.805 26.0381 225.794 26.7306 225.794 27.4288C225.794 32.7146 225.794 38.0061 225.794 43.2919C225.794 44.0478 225.662 44.1805 224.914 44.1805C223.287 44.1805 221.66 44.1805 220.033 44.1805C219.457 44.1805 219.297 44.019 219.297 43.4246C219.297 33.7937 219.297 24.1627 219.297 14.5375C219.297 13.9086 219.462 13.7354 220.073 13.7354C221.712 13.7354 223.35 13.7354 224.994 13.7354C225.6 13.7354 225.788 13.9259 225.794 14.5375C225.794 14.9242 225.794 15.3108 225.794 15.6974C225.794 15.9571 225.891 16.1648 226.142 16.2571C226.387 16.3495 226.599 16.2802 226.776 16.084C228.962 13.6431 231.771 12.8641 234.911 12.9737C237.2 13.0545 239.255 13.7527 240.974 15.3339C241.493 15.8128 241.944 16.3552 242.355 16.9323C242.698 17.4228 243.046 17.4286 243.411 16.9496C245.181 14.601 247.556 13.3488 250.445 13.0487C252.671 12.8179 254.858 12.9737 256.919 13.9143C260.281 15.455 262.216 18.1556 263.027 21.7391C263.187 22.4431 263.29 23.1529 263.33 23.8742C263.33 23.9319 263.324 24.0011 263.404 24.0242V43.8055L263.387 43.7997Z" fill="white"/>
<path d="M196.223 44.9943C195.84 44.8211 195.423 44.8615 195.024 44.7865C190.434 43.9152 187.585 41.1453 186.323 36.6559C185.952 35.346 185.827 33.9957 185.827 32.6396C185.821 26.6441 185.827 20.6486 185.827 14.653C185.827 13.8855 185.975 13.7297 186.723 13.7297C188.327 13.7297 189.926 13.7297 191.53 13.7297C192.147 13.7297 192.318 13.9029 192.318 14.5203C192.318 20.2677 192.318 26.0151 192.318 31.7625C192.318 32.7954 192.432 33.8226 192.792 34.8036C193.642 37.1348 195.361 38.3755 197.741 38.716C199.391 38.9525 201.012 38.8025 202.542 38.0754C204.689 37.0541 205.876 35.2883 206.356 32.9916C206.556 32.0395 206.636 31.0758 206.636 30.1064C206.636 24.9418 206.636 19.783 206.636 14.6184C206.636 13.8798 206.784 13.7297 207.521 13.7297C209.113 13.7297 210.7 13.7297 212.293 13.7297C212.967 13.7297 213.132 13.8913 213.132 14.5549C213.132 24.157 213.132 33.7591 213.132 43.367C213.132 44.0364 212.99 44.1806 212.339 44.1806C210.678 44.1806 209.011 44.1806 207.349 44.1806C206.824 44.1806 206.647 44.0017 206.641 43.4651C206.641 42.7784 206.641 42.0975 206.641 41.4108C206.641 41.2261 206.681 41.0184 206.453 40.9376C206.236 40.8626 206.15 41.0472 206.048 41.18C204.335 43.3727 202.051 44.4922 199.357 44.8558C199.077 44.8962 198.786 44.8558 198.523 45H196.228L196.223 44.9943Z" fill="white"/>
<path d="M121.732 44.9133C113.689 44.9133 107.831 40.3258 105.982 33.3781C105.553 31.7624 105.285 30.1236 105.279 28.4559C105.262 22.2757 109.024 15.605 116.703 13.5046C119.523 12.7313 122.36 12.4947 125.181 13.4007C129.765 14.8779 132.956 17.9363 134.886 22.3565C135.622 24.0472 136.05 25.8303 136.222 27.6769C136.262 28.1154 136.119 28.329 135.696 28.427C131.044 29.5004 126.397 30.5679 121.744 31.6354C119.106 32.2413 116.469 32.8415 113.831 33.4474C113.266 33.5801 113.118 33.9263 113.403 34.4341C114.853 37.0135 117.074 38.4389 119.974 38.7274C122.823 39.0101 125.483 38.3985 127.852 36.725C128.954 35.946 129.759 34.9015 130.347 33.684C130.581 33.1992 130.77 33.1069 131.289 33.2743C132.779 33.7474 134.264 34.2206 135.754 34.6996C136.364 34.8958 136.49 35.1728 136.227 35.7613C134.44 39.7834 131.392 42.3859 127.299 43.7881C125.175 44.5152 122.994 44.9076 121.744 44.9133H121.732ZM121.07 18.8538C120.499 18.8538 119.934 18.9173 119.38 19.0212C118.838 19.125 118.301 19.2693 117.776 19.4424C114.174 20.6657 111.93 23.6606 111.759 27.4865C111.73 28.0981 112.004 28.3405 112.587 28.2078C114.671 27.7346 116.76 27.2556 118.844 26.7767C121.949 26.0611 125.049 25.3514 128.155 24.6301C128.657 24.5147 128.823 24.1973 128.606 23.753C127.065 20.608 124.564 18.9519 121.076 18.848L121.07 18.8538Z" fill="white"/>
<path d="M165.526 44.1748C164.27 44.1748 163.014 44.1748 161.752 44.1748C161.507 44.1748 161.341 44.094 161.181 43.9094C158.658 40.9491 156.134 37.9946 153.605 35.0343C153.548 34.9709 153.491 34.9016 153.434 34.8382C153.126 34.4919 152.926 34.4919 152.623 34.8382C151.345 36.3327 150.066 37.833 148.787 39.3276C147.491 40.8452 146.195 42.3571 144.905 43.8805C144.728 44.0883 144.545 44.1748 144.271 44.169C141.794 44.1575 139.316 44.1633 136.838 44.169C136.61 44.169 136.387 44.1806 136.273 43.9209C136.165 43.6728 136.296 43.4997 136.444 43.3208C140.349 38.7563 144.249 34.1919 148.148 29.6216C148.542 29.16 148.547 29.1138 148.153 28.6522C144.26 24.0935 140.372 19.5348 136.479 14.9761C136.313 14.7857 136.136 14.601 136.279 14.3183C136.41 14.0471 136.656 14.0817 136.89 14.0875C138.146 14.1105 139.402 14.0355 140.658 14.1336C143.347 14.3414 145.522 15.5301 147.24 17.6075C148.473 19.0963 149.849 20.4523 151.151 21.8776C151.642 22.4201 152.138 22.9509 152.641 23.4818C152.949 23.805 153.109 23.805 153.411 23.4818C155.078 21.7045 156.785 19.9618 158.395 18.1268C159.331 17.0593 160.262 16.0148 161.507 15.305C162.905 14.4972 164.424 14.1279 166.022 14.0932C167.084 14.0702 168.14 14.0932 169.202 14.0875C169.431 14.0875 169.659 14.0759 169.779 14.3183C169.904 14.578 169.762 14.7626 169.602 14.953C166.433 18.6635 163.265 22.3739 160.096 26.0785C159.366 26.9326 158.635 27.7924 157.904 28.6522C157.522 29.1023 157.522 29.16 157.887 29.5928C159.948 32.0048 162.009 34.4111 164.064 36.8232C165.914 38.9871 167.764 41.1568 169.613 43.3208C169.767 43.4997 169.887 43.6843 169.784 43.9209C169.676 44.169 169.442 44.1633 169.214 44.1633C167.98 44.1633 166.747 44.1633 165.514 44.1633L165.526 44.1748Z" fill="white"/>
<path d="M76.8477 22.8586C76.8477 15.9686 76.8477 9.07291 76.8477 2.18294C76.8477 1.57127 76.9333 1.46163 77.5213 1.3116C79.1769 0.890352 80.8325 0.469106 82.4938 0.04786C83.0989 -0.102173 83.3501 0.094024 83.3501 0.728778C83.3501 8.01691 83.3501 15.3108 83.3501 22.5989C83.3501 27.9136 83.3501 33.2224 83.3444 38.537C83.3444 38.866 83.4186 38.941 83.744 38.941C89.8583 38.9294 95.9725 38.9352 102.087 38.9352C102.766 38.9352 102.869 39.0448 102.869 39.7373C102.869 41.1164 102.869 42.5014 102.869 43.8805C102.869 44.3595 102.698 44.5383 102.229 44.5383C94.0714 44.5383 85.9077 44.5383 77.7497 44.5383C77.1502 44.5383 76.8534 44.221 76.8534 43.6151C76.8477 36.6963 76.8477 29.7774 76.8477 22.8586Z" fill="white"/>
<path d="M174.094 28.9581C174.094 24.157 174.094 19.356 174.094 14.5549C174.094 13.8855 174.254 13.7297 174.927 13.7297C176.554 13.7297 178.181 13.7297 179.808 13.7297C180.396 13.7297 180.59 13.9259 180.59 14.5088C180.59 24.1455 180.59 33.788 180.59 43.4247C180.59 44.0075 180.419 44.1748 179.843 44.1748C178.181 44.1748 176.514 44.1748 174.853 44.1748C174.254 44.1748 174.099 44.019 174.099 43.3958C174.099 38.5832 174.099 33.7706 174.099 28.9581H174.094Z" fill="white"/>
<path d="M152.876 15.3685C149.787 15.3685 147.253 12.818 147.276 9.68457C147.304 6.16457 150.164 3.93716 153.019 3.99487C155.999 4.05834 158.494 6.60313 158.488 9.70188C158.488 12.8295 155.965 15.3743 152.876 15.3685Z" fill="white"/>
</svg>
