<?xml version="1.0" encoding="UTF-8"?>
<svg width="420px" height="80px" viewBox="0 0 420 80" version="1.1" xmlns="http://www.w3.org/2000/svg" xmlns:xlink="http://www.w3.org/1999/xlink">
    <title>questionpro-logo-color</title>
    <g id="export-curves" stroke="none" stroke-width="1" fill="none" fill-rule="evenodd">
        <g id="questionpro-logo-color" transform="translate(-20.000000, -20.000000)">
            <g transform="translate(20.000000, 20.000000)">
                <rect id="logo-area" x="0" y="0" width="420" height="80"></rect>
                <g id="QuestionPro-wordmark" transform="translate(100.000000, 13.488000)" fill-rule="nonzero">
                    <path d="M24.064,60.032 C27.328,60.032 29.248,59.584 29.248,58.496 L29.248,56.32 C29.248,55.616 28.608,55.296 27.84,55.296 L24.064,55.296 C20.8,55.296 20.096,54.784 20.096,51.584 L20.096,48.832 C28.672,47.808 34.624,41.728 34.624,28.864 L34.624,20.608 C34.624,6.4 27.392,0.512 17.344,0.512 C7.296,0.512 -5.68434189e-14,6.4 -5.68434189e-14,20.608 L-5.68434189e-14,28.864 C-5.68434189e-14,41.664 5.952,47.68 14.464,48.768 L14.464,51.648 C14.464,58.368 17.792,60.032 24.064,60.032 Z M17.344,43.712 C10.304,43.712 5.888,39.616 5.888,28.864 L5.888,20.608 C5.888,9.856 10.368,5.76 17.344,5.76 C24.384,5.76 28.736,9.856 28.736,20.608 L28.736,28.864 C28.736,39.616 24.32,43.712 17.344,43.712 Z M51.552,48.96 C55.328,48.96 58.208,48 61.728,46.016 L61.728,47.232 C61.728,47.936 62.24,48.512 62.944,48.512 L66.144,48.512 C66.848,48.512 67.36,47.936 67.36,47.232 L67.36,14.592 C67.36,13.888 66.784,13.312 66.144,13.312 L63.008,13.312 C62.304,13.312 61.728,13.952 61.728,14.592 L61.728,41.6 C58.784,43.072 55.776,44.096 53.088,44.096 C48.224,44.096 46.048,42.112 46.048,35.648 L46.048,14.592 C46.048,13.888 45.472,13.312 44.768,13.312 L41.696,13.312 C40.992,13.312 40.416,13.888 40.416,14.592 L40.416,35.648 C40.416,44.16 43.872,48.96 51.552,48.96 Z M87.04,48.96 C91.328,48.96 94.848,48.576 98.496,47.872 C99.52,47.68 99.776,47.232 99.776,46.4 L99.776,44.224 C99.776,43.584 99.264,43.328 98.752,43.328 L98.432,43.328 L98.432,43.328 C95.488,43.776 90.752,44.032 87.04,44.032 C81.152,44.032 78.144,41.216 78.144,33.6 L78.144,32.704 L99.584,32.704 C100.352,32.704 100.8,32.128 100.8,31.296 L100.8,27.84 C100.8,18.752 96.064,12.864 86.72,12.864 C77.568,12.864 72.512,18.688 72.512,27.84 L72.512,33.6 C72.512,45.504 79.68,48.96 87.04,48.96 Z M95.104,28.416 L78.144,28.416 L78.144,27.84 C78.144,20.928 81.216,17.792 86.72,17.792 C92.352,17.792 95.104,20.608 95.104,27.84 L95.104,28.416 Z M116.384,48.96 C123.552,48.96 128.352,46.208 128.352,39.68 C128.352,35.904 126.624,33.152 121.312,30.016 L114.976,26.24 C112.032,24.512 110.56,23.296 110.56,21.376 C110.56,18.112 112.928,17.664 116.512,17.664 C120.096,17.664 124.192,17.984 126.432,18.176 L126.624,18.176 L126.624,18.176 C127.264,18.176 127.712,17.856 127.712,17.088 L127.712,14.976 C127.712,14.272 127.328,13.824 126.496,13.696 C123.488,13.184 120.096,12.864 116.512,12.864 C109.92,12.864 104.928,14.72 104.928,21.376 C104.928,25.408 107.552,28.16 111.456,30.528 L117.92,34.368 C121.568,36.544 122.72,37.76 122.72,39.68 C122.72,43.136 120.544,44.224 116.384,44.224 C114.08,44.224 109.408,43.904 106.336,43.52 L106.08,43.52 L106.08,43.52 C105.44,43.52 104.928,43.904 104.928,44.48 L104.928,46.72 C104.928,47.424 105.44,47.808 106.272,48 C109.408,48.768 114.016,48.96 116.384,48.96 Z M146.88,48.96 C148.096,48.96 149.76,48.832 151.04,48.64 C151.872,48.512 152.192,48.128 152.192,47.552 L152.192,45.312 C152.192,44.672 151.744,44.416 150.848,44.416 L147.264,44.416 C144.704,44.416 143.808,43.904 143.808,40.384 L143.808,18.048 L150.72,18.048 C151.424,18.048 152,17.472 152,16.768 L152,14.592 C152,13.888 151.424,13.312 150.72,13.312 L143.808,13.312 L143.808,6.336 C143.808,5.696 143.36,5.248 142.848,5.248 L142.656,5.248 L142.656,5.248 L139.328,5.76 C138.624,5.888 138.176,6.4 138.176,7.04 L138.176,13.312 L131.968,13.312 C131.264,13.312 130.752,13.76 130.752,14.464 L130.752,16.192 C130.752,16.896 131.264,17.28 131.968,17.344 L138.176,18.048 L138.176,40.384 C138.176,47.424 140.992,48.96 146.88,48.96 Z M160.928,7.68 C161.632,7.68 162.208,7.104 162.208,6.4 L162.208,1.28 C162.208,0.576 161.632,0 160.928,0 L157.664,0 C156.96,0 156.384,0.576 156.384,1.28 L156.384,6.4 C156.384,7.104 156.96,7.68 157.664,7.68 L160.928,7.68 Z M160.8,48.512 C161.504,48.512 162.08,47.936 162.08,47.232 L162.08,14.592 C162.08,13.888 161.504,13.312 160.8,13.312 L157.728,13.312 C157.024,13.312 156.448,13.888 156.448,14.592 L156.448,47.232 C156.448,47.936 157.024,48.512 157.728,48.512 L160.8,48.512 Z M182.208,48.96 C191.616,48.96 196.48,42.752 196.48,33.344 L196.48,28.48 C196.48,19.072 191.616,12.864 182.208,12.864 C172.8,12.864 168,19.072 168,28.48 L168,33.344 C168,42.752 172.8,48.96 182.208,48.96 Z M182.208,44.032 C176.192,44.032 173.632,39.872 173.632,33.344 L173.632,28.48 C173.632,21.888 176.256,17.792 182.208,17.792 C188.224,17.792 190.848,21.952 190.848,28.48 L190.848,33.344 C190.848,39.936 188.16,44.032 182.208,44.032 Z M205.984,48.512 C206.688,48.512 207.264,47.872 207.264,47.232 L207.264,20.224 C210.208,18.752 213.216,17.728 215.904,17.728 C220.768,17.728 222.944,19.712 222.944,26.176 L222.944,47.232 C222.944,47.936 223.52,48.512 224.224,48.512 L227.296,48.512 C228,48.512 228.576,47.936 228.576,47.232 L228.576,26.176 C228.576,17.664 225.12,12.864 217.44,12.864 C213.664,12.864 210.784,13.824 207.264,15.808 L207.264,14.592 C207.264,13.888 206.752,13.312 206.048,13.312 L202.848,13.312 C202.144,13.312 201.632,13.888 201.632,14.592 L201.632,47.232 C201.632,47.936 202.208,48.512 202.848,48.512 L205.984,48.512 Z" id="Question" fill="#1B3380"></path>
                    <path d="M240.128,48.512 C240.832,48.512 241.28,47.872 241.28,47.232 L241.28,29.248 C242.944,29.376 245.632,29.568 247.68,29.568 C258.048,29.568 265.6,25.92 265.6,15.232 L265.6,14.4 C265.6,4.096 258.048,0.512 247.68,0.512 C243.968,0.512 239.808,0.704 237.056,1.024 C236.096,1.152 235.52,1.728 235.52,2.624 L235.52,47.232 C235.52,47.936 236.032,48.512 236.672,48.512 L240.128,48.512 Z M247.68,24.704 C246.994824,24.704 246.038367,24.6714464 245.047441,24.6286798 L244.195159,24.5900427 C243.062256,24.5365813 241.972706,24.4781176 241.28,24.448 L241.28,5.696 C242.816,5.568 245.696,5.44 247.68,5.44 C255.936,5.44 259.776,7.936 259.776,14.4 L259.776,15.232 C259.776,21.888 256.448,24.704 247.68,24.704 Z M274.784,48.512 C275.488,48.512 276.064,47.872 276.064,47.232 L276.064,20.416 C279.264,18.496 281.952,17.728 284.896,17.728 C285.792,17.728 286.24,17.344 286.24,16.64 L286.24,14.016 C286.24,13.248 285.792,12.864 284.896,12.864 C282.016,12.864 279.072,13.696 275.872,15.936 L275.872,14.592 C275.872,13.888 275.36,13.312 274.656,13.312 L271.648,13.312 C270.944,13.312 270.432,13.888 270.432,14.592 L270.432,47.232 C270.432,47.936 271.008,48.512 271.648,48.512 L274.784,48.512 Z M302.976,48.96 C312.384,48.96 317.248,42.752 317.248,33.344 L317.248,28.48 C317.248,19.072 312.384,12.864 302.976,12.864 C293.568,12.864 288.768,19.072 288.768,28.48 L288.768,33.344 C288.768,42.752 293.568,48.96 302.976,48.96 Z M302.976,44.032 C296.96,44.032 294.4,39.872 294.4,33.344 L294.4,28.48 C294.4,21.888 297.024,17.792 302.976,17.792 C308.992,17.792 311.616,21.952 311.616,28.48 L311.616,33.344 C311.616,39.936 308.928,44.032 302.976,44.032 Z" id="Pro" fill="#1B87E6"></path>
                </g>
                <g id="questionpro-cube">
                    <rect id="cube" fill="#1B3380" x="0" y="0" width="80" height="80" rx="10"></rect>
                    <path d="M30.0009285,58 C32.7604457,58 35,60.2376973 35,62.9990715 C35,65.7604457 32.7604457,68 30.0009285,68 C27.2376973,68 25,65.7604457 25,62.9990715 C25,60.2376973 27.2376973,58 30.0009285,58 Z M49,12 C58,12 65,20 65,28 C65,36 58,44 49,44 L49,44 L35,44 L35,53 L25,53 L25,34 L25,34 L49,34 C52,34 55,31 55,28 C55,25 52,22 49,22 L49,22 L25,22 L25,12 L25,12 Z" id="isotype" fill="#FFFFFF"></path>
                </g>
            </g>
        </g>
    </g>
</svg>